<svg width="24" height="24" viewBox="0 0 24 24" fill="none" xmlns="http://www.w3.org/2000/svg">
<path d="M19.938 8.00008H21C21.5304 8.00008 22.0391 8.21079 22.4142 8.58587C22.7893 8.96094 23 9.46965 23 10.0001V14.0001C23 14.5305 22.7893 15.0392 22.4142 15.4143C22.0391 15.7894 21.5304 16.0001 21 16.0001H19.938C19.6944 17.9335 18.7535 19.7115 17.292 21.0003C15.8304 22.2892 13.9487 23.0003 12 23.0001V21.0001C13.5913 21.0001 15.1174 20.3679 16.2426 19.2427C17.3679 18.1175 18 16.5914 18 15.0001V9.00008C18 7.40878 17.3679 5.88266 16.2426 4.75744C15.1174 3.63222 13.5913 3.00008 12 3.00008C10.4087 3.00008 8.88258 3.63222 7.75736 4.75744C6.63214 5.88266 6 7.40878 6 9.00008V16.0001H3C2.46957 16.0001 1.96086 15.7894 1.58579 15.4143C1.21071 15.0392 1 14.5305 1 14.0001V10.0001C1 9.46965 1.21071 8.96094 1.58579 8.58587C1.96086 8.21079 2.46957 8.00008 3 8.00008H4.062C4.30425 6.06562 5.24456 4.28619 6.70625 2.99612C8.16795 1.70605 10.0504 0.994141 12 0.994141C13.9496 0.994141 15.832 1.70605 17.2937 2.99612C18.7554 4.28619 19.6958 6.06562 19.938 8.00008ZM3 10.0001V14.0001H4V10.0001H3ZM20 10.0001V14.0001H21V10.0001H20ZM7.76 15.7851L8.82 14.0851C9.77384 14.6804 10.8756 14.996 12 14.996C13.1244 14.996 14.2262 14.6804 15.18 14.0851L16.24 15.7851C14.9683 16.5791 13.4992 17 12 17C10.5008 17 9.0317 16.5791 7.76 15.7851Z" fill="white"/>
</svg>
