<svg width="24" height="24" viewBox="0 0 24 24" fill="none" xmlns="http://www.w3.org/2000/svg">
<path d="M13 19.938C15.0207 19.6836 16.8684 18.6687 18.1671 17.0999C19.4658 15.5311 20.1178 13.5263 19.9903 11.4937C19.8629 9.46111 18.9656 7.55348 17.4811 6.15917C15.9966 4.76486 14.0366 3.9887 12 3.9887C9.96341 3.9887 8.00336 4.76486 6.51889 6.15917C5.03443 7.55348 4.13714 9.46111 4.00969 11.4937C3.88225 13.5263 4.53424 15.5311 5.83292 17.0999C7.13161 18.6687 8.97935 19.6836 11 19.938V14H9V12H11V10.346C10.9201 9.55361 11.0584 8.75445 11.4 8.035C11.6561 7.55119 12.052 7.15569 12.536 6.9C13.0634 6.65035 13.6395 6.52026 14.223 6.519C14.6503 6.50366 15.0781 6.53079 15.5 6.6V8.5H15C14.4868 8.44574 13.9679 8.50165 13.478 8.664C13.3432 8.73336 13.2334 8.84315 13.164 8.978C13.044 9.204 13 9.428 13 10.346V12H15.5L15 14H13V19.938ZM12 22C10.0222 22 8.08879 21.4135 6.4443 20.3147C4.79981 19.2159 3.51809 17.6541 2.76121 15.8268C2.00433 13.9996 1.8063 11.9889 2.19215 10.0491C2.578 8.10929 3.53041 6.32746 4.92894 4.92894C6.32746 3.53041 8.10929 2.578 10.0491 2.19215C11.9889 1.8063 13.9996 2.00433 15.8268 2.76121C17.6541 3.51809 19.2159 4.79981 20.3147 6.4443C21.4135 8.08879 22 10.0222 22 12C22 14.6522 20.9464 17.1957 19.0711 19.0711C17.1957 20.9464 14.6522 22 12 22Z" fill="white"/>
</svg>
