<svg width="24" height="24" viewBox="0 0 24 24" fill="none" xmlns="http://www.w3.org/2000/svg">
<path d="M12 9C11.4067 9 10.8266 9.17595 10.3333 9.50559C9.83994 9.83524 9.45542 10.3038 9.22836 10.8519C9.0013 11.4001 8.94189 12.0033 9.05764 12.5853C9.1734 13.1672 9.45912 13.7018 9.87868 14.1213C10.2982 14.5409 10.8328 14.8266 11.4147 14.9424C11.9967 15.0581 12.5999 14.9987 13.1481 14.7716C13.6962 14.5446 14.1648 14.1601 14.4944 13.6667C14.8241 13.1734 15 12.5933 15 12C15 11.2044 14.6839 10.4413 14.1213 9.87868C13.5587 9.31607 12.7956 9 12 9ZM12 7C12.9889 7 13.9556 7.29324 14.7779 7.84265C15.6001 8.39206 16.241 9.17295 16.6194 10.0866C16.9978 11.0002 17.0969 12.0055 16.9039 12.9755C16.711 13.9454 16.2348 14.8363 15.5355 15.5355C14.8363 16.2348 13.9454 16.711 12.9755 16.9039C12.0055 17.0969 11.0002 16.9978 10.0866 16.6194C9.17295 16.241 8.39206 15.6001 7.84265 14.7779C7.29324 13.9556 7 12.9889 7 12C7 10.6739 7.52678 9.40215 8.46447 8.46447C9.40215 7.52678 10.6739 7 12 7ZM18.5 6.75C18.5 6.99723 18.4267 7.2389 18.2893 7.44446C18.152 7.65002 17.9568 7.81024 17.7284 7.90485C17.4999 7.99946 17.2486 8.02421 17.0061 7.97598C16.7637 7.92775 16.5409 7.8087 16.3661 7.63388C16.1913 7.45907 16.0723 7.23634 16.024 6.99386C15.9758 6.75139 16.0005 6.50005 16.0951 6.27165C16.1898 6.04324 16.35 5.84801 16.5555 5.71066C16.7611 5.57331 17.0028 5.5 17.25 5.5C17.5815 5.5 17.8995 5.6317 18.1339 5.86612C18.3683 6.10054 18.5 6.41848 18.5 6.75ZM12 4C9.526 4 9.122 4.007 7.971 4.058C7.35654 4.06607 6.74791 4.17833 6.171 4.39C5.7629 4.53906 5.39372 4.77835 5.091 5.09C4.77945 5.39281 4.54019 5.76196 4.391 6.17C4.17952 6.74692 4.0676 7.35558 4.06 7.97C4.006 9.075 4 9.461 4 12C4 14.474 4.007 14.878 4.058 16.029C4.06616 16.6434 4.17807 17.2519 4.389 17.829C4.54507 18.2341 4.78426 18.6021 5.09118 18.9092C5.3981 19.2163 5.76594 19.4557 6.171 19.612C6.7479 19.8238 7.35651 19.9364 7.971 19.945C9.071 19.997 9.461 20.003 12 20.003C14.474 20.003 14.878 19.996 16.029 19.945C16.6433 19.9366 17.2519 19.8247 17.829 19.614C18.2366 19.4639 18.6055 19.2247 18.909 18.914C19.2205 18.6112 19.4598 18.242 19.609 17.834C19.82 17.2569 19.9323 16.6484 19.941 16.034C19.993 14.934 19.999 14.544 19.999 12.005C19.999 9.531 19.992 9.127 19.941 7.976C19.9327 7.36156 19.8205 6.75296 19.609 6.176C19.4592 5.76828 19.22 5.39926 18.909 5.096C18.6063 4.78429 18.2371 4.545 17.829 4.396C17.2521 4.18462 16.6434 4.0727 16.029 4.065C14.925 4.006 14.539 4 12 4ZM12 2C14.717 2 15.056 2.01 16.122 2.06C16.9517 2.07713 17.7726 2.23434 18.55 2.525C19.2179 2.77512 19.8228 3.1687 20.322 3.678C20.8305 4.1779 21.224 4.78259 21.475 5.45C21.7653 6.22747 21.9225 7.04829 21.94 7.878C21.987 8.944 22 9.283 22 12C22 14.717 21.99 15.056 21.94 16.122C21.9224 16.9517 21.7652 17.7725 21.475 18.55C21.2185 19.2146 20.8257 19.8182 20.322 20.322C19.8182 20.8257 19.2146 21.2185 18.55 21.475C17.7725 21.7653 16.9517 21.9225 16.122 21.94C15.056 21.987 14.722 22 12 22C9.278 22 8.944 21.99 7.878 21.94C7.0483 21.9224 6.2275 21.7652 5.45 21.475C4.78537 21.2185 4.18178 20.8257 3.67803 20.322C3.17428 19.8182 2.78152 19.2146 2.525 18.55C2.23423 17.7727 2.07702 16.9518 2.06 16.122C2.013 15.056 2 14.717 2 12C2 9.283 2.01 8.944 2.06 7.878C2.07702 7.04824 2.23423 6.22733 2.525 5.45C2.77524 4.78218 3.1688 4.17732 3.678 3.678C4.17773 3.16931 4.78247 2.77582 5.45 2.525C6.22733 2.23423 7.04824 2.07702 7.878 2.06C8.944 2.013 9.283 2 12 2Z" fill="white"/>
</svg>
