<svg width="24" height="24" viewBox="0 0 24 24" fill="none" xmlns="http://www.w3.org/2000/svg">
<path d="M4 3H20C20.2652 3 20.5196 3.10536 20.7071 3.29289C20.8946 3.48043 21 3.73478 21 4V20C21 20.2652 20.8946 20.5196 20.7071 20.7071C20.5196 20.8946 20.2652 21 20 21H4C3.73478 21 3.48043 20.8946 3.29289 20.7071C3.10536 20.5196 3 20.2652 3 20V4C3 3.73478 3.10536 3.48043 3.29289 3.29289C3.48043 3.10536 3.73478 3 4 3ZM5 5V19H19V5H5ZM7.5 9C7.20333 9 6.91332 8.91203 6.66664 8.7472C6.41997 8.58238 6.22771 8.34811 6.11418 8.07403C6.00065 7.79994 5.97094 7.49834 6.02882 7.20736C6.0867 6.91639 6.22956 6.64912 6.43934 6.43934C6.64912 6.22956 6.91639 6.0867 7.20736 6.02882C7.49834 5.97094 7.79994 6.00065 8.07403 6.11418C8.34811 6.22771 8.58238 6.41997 8.7472 6.66664C8.91203 6.91332 9 7.20333 9 7.5C9 7.89782 8.84196 8.27936 8.56066 8.56066C8.27936 8.84196 7.89782 9 7.5 9ZM6.5 10H8.5V17.5H6.5V10ZM12 10.43C12.5196 9.87063 13.2374 9.53682 14 9.5C14.4795 9.50528 14.9529 9.60779 15.3917 9.80133C15.8304 9.99487 16.2253 10.2754 16.5525 10.626C16.8797 10.9765 17.1324 11.3898 17.2952 11.8409C17.4581 12.2919 17.5278 12.7713 17.5 13.25V17.5H15.5V13.25C15.5 13.0202 15.4547 12.7926 15.3668 12.5803C15.2788 12.368 15.1499 12.1751 14.9874 12.0126C14.8249 11.8501 14.632 11.7212 14.4197 11.6332C14.2074 11.5453 13.9798 11.5 13.75 11.5C13.5202 11.5 13.2926 11.5453 13.0803 11.6332C12.868 11.7212 12.6751 11.8501 12.5126 12.0126C12.3501 12.1751 12.2212 12.368 12.1332 12.5803C12.0453 12.7926 12 13.0202 12 13.25V17.5H10V10H12V10.43Z" fill="white"/>
</svg>
