<svg width="148" height="48" viewBox="0 0 148 48" fill="none" xmlns="http://www.w3.org/2000/svg">
<rect opacity="0.1" width="48" height="48" rx="16" fill="#1226AA"/>
<path fill-rule="evenodd" clip-rule="evenodd" d="M19.6471 12.025C19.6471 12.0428 19.477 13.046 19.269 14.2542C19.0611 15.4625 18.8909 16.4696 18.8909 16.4922C18.8909 16.5249 20.007 16.5333 24.3618 16.5333C27.9189 16.5333 29.9517 16.5453 30.1731 16.5676C30.5882 16.6093 31.014 16.7065 31.2441 16.8118C31.602 16.9757 31.8605 17.3075 31.9647 17.7366C32.0366 18.0331 32.0363 18.8697 31.9642 19.4105C31.8862 19.9948 31.3308 23.0739 31.2349 23.453C31.0261 24.2792 30.7982 24.7518 30.4296 25.1234C30.0316 25.5248 29.6129 25.6853 28.7407 25.771C28.3658 25.8078 22.409 25.8231 22.409 25.7873C22.409 25.7768 22.6235 24.5215 22.8857 22.9976C23.1479 21.4737 23.3625 20.2096 23.3625 20.1885C23.3625 20.1593 22.7412 20.152 20.8068 20.1584L18.2511 20.1668L17.7874 22.8633C17.5323 24.3463 17.3131 25.6152 17.3002 25.683L17.2769 25.8063H14.4826C12.2769 25.8063 11.6853 25.8149 11.6739 25.8474C11.6615 25.8822 11 30.2808 11 30.3279C11 30.3368 12.2354 30.3442 13.7454 30.3442C15.3497 30.3442 16.4908 30.3565 16.4908 30.3738C16.4908 30.39 16.2762 31.6493 16.014 33.1721C15.7518 34.6949 15.5373 35.9542 15.5373 35.9705C15.5373 35.9878 16.6013 36 18.0936 36L20.65 35.9999L21.1215 33.246C21.3808 31.7314 21.6006 30.4588 21.61 30.4182L21.627 30.3442L24.936 30.3437C26.7559 30.3434 28.5039 30.3284 28.8204 30.3103C31.2726 30.1702 32.878 29.5825 34.0907 28.381C35.0882 27.3927 35.7362 26.1249 36.1864 24.2808C36.3304 23.691 37.1116 19.5296 37.1862 18.9553C37.4298 17.0792 37.2593 15.5684 36.6754 14.4287C35.968 13.0482 34.6945 12.3409 32.4042 12.0567C31.9982 12.0063 19.6471 11.9757 19.6471 12.025Z" fill="#1226AA"/>
<path d="M73.2344 24.1015C73.2344 20.093 70.8438 17.2769 67.5414 17.2769C65.7423 17.2769 64.1404 18.1395 63.4257 19.5856V17.6321H60V35.6448H63.4996V28.7442C64.2636 30.1395 65.7669 30.926 67.5414 30.926C70.8438 30.926 73.2344 28.1099 73.2344 24.1015ZM69.6608 24.1015C69.6608 26.2579 68.4532 27.6786 66.5063 27.6786C64.5593 27.6786 63.3764 26.2579 63.3764 24.1015C63.3764 21.945 64.5593 20.5243 66.5063 20.5243C68.4532 20.5243 69.6608 21.945 69.6608 24.1015Z" fill="#243561"/>
<path d="M84.9298 17.6321V19.5602C84.2151 18.1395 82.6132 17.2769 80.8141 17.2769C77.5363 17.2769 75.1457 20.093 75.1457 24.1015C75.1457 28.1099 77.5363 30.926 80.8141 30.926C82.6132 30.926 84.2151 30.0634 84.9298 28.6427V30.5708H88.3801V17.6321H84.9298ZM85.0037 24.1015C85.0037 26.2579 83.7961 27.6786 81.8492 27.6786C79.9022 27.6786 78.6946 26.2579 78.6946 24.1015C78.6946 21.945 79.9022 20.5243 81.8492 20.5243C83.7961 20.5243 85.0037 21.945 85.0037 24.1015Z" fill="#243561"/>
<path d="M99.6319 17.6321V24.4059C99.6319 26.1311 98.6461 27.1205 97.0688 27.1205C95.6148 27.1205 94.974 26.334 94.974 24.6342V17.6321H91.4744V25.5729C91.4744 28.6173 93.101 30.3932 95.738 30.3932C97.5371 30.3932 98.9911 29.556 99.6812 28.2114V29.2516C99.6812 31.5602 98.375 32.8287 96.1816 32.8287C94.9001 32.8287 93.5446 32.3975 92.4848 31.611L91.0308 34.2748C92.2877 35.3657 94.2346 36 96.4034 36C100.716 36 103.107 33.5898 103.107 29.2516V17.6321H99.6319Z" fill="#243561"/>
<path d="M119.685 24.1015C119.685 20.093 117.294 17.277 113.992 17.277C112.217 17.277 110.714 18.0888 109.95 19.4334V12H106.45V30.5708H109.876V28.6173C110.591 30.0634 112.192 30.926 113.992 30.926C117.294 30.926 119.685 28.1099 119.685 24.1015ZM116.111 24.1015C116.111 26.2579 114.903 27.6786 112.956 27.6786C111.01 27.6786 109.827 26.2579 109.827 24.1015C109.827 21.945 111.01 20.5243 112.956 20.5243C114.903 20.5243 116.111 21.945 116.111 24.1015Z" fill="#1226AA"/>
<path d="M122.089 25.5983C122.089 28.871 124.258 30.926 127.88 30.926C131.503 30.926 133.647 28.871 133.647 25.5983V17.6321H130.148V25.1416C130.148 26.8414 129.384 27.6786 127.88 27.6786C126.352 27.6786 125.588 26.8414 125.588 25.1416V17.6321H122.089V25.5983Z" fill="#1226AA"/>
<path d="M136.799 30.5708H140.299V12H136.799V30.5708Z" fill="#1226AA"/>
<path d="M143.658 30.5708H147.158V12H143.658V30.5708Z" fill="#1226AA"/>
</svg>
