<svg width="115" height="49" viewBox="0 0 115 49" fill="none" xmlns="http://www.w3.org/2000/svg">
<path d="M4.04195 35.5057C4.06895 31.0399 4.08895 22.3583 4.08895 16.2005V5H111.864V18.8994C111.864 28.119 111.884 32.7989 111.931 32.7989C111.978 32.7989 111.998 34.6458 111.998 38.2046V43.6104H4.00195L4.04195 35.5057ZM111.024 38.2056V33.7728H4.99591L4.97591 38.1376C4.96891 40.5415 4.97591 42.5425 4.99591 42.5895C5.01591 42.6575 15.6595 42.6705 58.0237 42.6575L111.024 42.6375V38.2056ZM110.89 19.2694V5.97396H5.06291L5.04291 19.2024C5.03591 26.4811 5.04291 32.4709 5.06291 32.5179C5.08291 32.5849 15.7065 32.5979 57.9897 32.5849L110.89 32.5649V19.2694Z" fill="white"/>
<path d="M83.4388 42.0186C83.4128 41.9986 83.3918 41.9116 83.3918 41.8386C83.3918 41.7106 83.4257 41.6966 83.7277 41.7176C84.1177 41.7506 84.2647 41.6636 84.2647 41.4016C84.2647 41.0856 84.1107 40.9516 83.6877 40.8976C83.4172 40.8599 83.1483 40.8108 82.8818 40.7506L82.4518 40.6426V40.3406C82.4518 40.0787 82.4658 40.0447 82.5728 40.0917C83.4257 40.4686 84.1507 40.5486 84.6407 40.3266C85.0037 40.1597 85.1377 39.9577 85.1377 39.5817C85.1377 39.0317 84.9167 38.8637 83.9297 38.6417C83.1778 38.4807 82.8008 38.2787 82.5998 37.9167C82.2038 37.2048 82.6268 36.3188 83.4857 36.0828C83.8017 35.9958 84.8357 36.0428 85.2257 36.1568C85.4607 36.2248 85.4737 36.2448 85.4737 36.4928C85.4737 36.6408 85.4607 36.7618 85.4537 36.7618C85.4407 36.7618 85.2517 36.7018 85.0377 36.6268C84.6147 36.4798 83.8557 36.4468 83.5597 36.5598C83.0498 36.7548 82.8748 37.3998 83.2448 37.7618C83.3848 37.9027 83.5797 37.9767 84.1307 38.0977C84.8697 38.2587 85.2317 38.4067 85.4137 38.6147C85.9037 39.1717 85.8367 40.1857 85.2857 40.5826C85.1224 40.6807 84.9459 40.7551 84.7617 40.8036C84.5807 40.8506 84.4267 40.8916 84.4127 40.8976C84.3997 40.9046 84.4527 41.0256 84.5267 41.1666C84.7087 41.5086 84.7017 41.7036 84.4997 41.8986C84.3657 42.0386 84.2787 42.0666 83.9097 42.0666C83.6737 42.0666 83.4597 42.0466 83.4397 42.0196L83.4388 42.0186ZM61.4617 40.8646C61.1187 40.7766 60.7357 40.5286 60.5687 40.2796C60.2787 39.8567 60.2257 39.4747 60.2257 37.7218V36.0898H60.8237L60.8437 37.8897C60.8637 39.5417 60.8767 39.7027 60.9977 39.9107C61.2397 40.3206 61.4477 40.4206 62.0386 40.4206C62.6296 40.4206 62.8386 40.3206 63.0796 39.9107C63.1996 39.7027 63.2136 39.5407 63.2336 37.8897L63.2536 36.0898H63.8586L63.8386 37.8897C63.8186 39.4337 63.7986 39.7157 63.6976 39.9507C63.4216 40.5626 62.9456 40.8576 62.1796 40.8976C61.8976 40.9116 61.5756 40.8976 61.4617 40.8646V40.8646ZM70.8693 40.8646C70.2643 40.7166 69.8343 40.2866 69.6933 39.7027C69.6603 39.5417 69.6263 38.6687 69.6263 37.7558V36.0888H70.2243L70.2443 37.9217C70.2643 39.6887 70.2713 39.7557 70.4193 39.9967C70.6273 40.3326 71.0293 40.4866 71.5872 40.4336C72.0712 40.3936 72.2922 40.2526 72.4802 39.8767C72.6012 39.6417 72.6152 39.4537 72.6352 37.8547L72.6552 36.0888H73.2662L73.2322 37.8547C73.2052 39.8357 73.1722 39.9907 72.7492 40.4266C72.3462 40.8496 71.5602 41.0316 70.8693 40.8636V40.8646ZM78.8259 40.7976C78.6123 40.7189 78.418 40.5955 78.2559 40.4356C78.0938 40.2758 77.9677 40.0832 77.886 39.8707C77.826 39.6897 77.792 39.0987 77.772 37.8557L77.738 36.0898H78.35L78.37 37.8557C78.39 39.4547 78.403 39.6427 78.524 39.8777C78.7119 40.2536 78.9339 40.3946 79.4169 40.4346C79.9739 40.4886 80.3769 40.3346 80.5849 39.9977C80.7329 39.7567 80.7399 39.6897 80.7599 37.9227L80.7799 36.0898H81.3778V37.7897C81.3778 39.5887 81.3438 39.8367 81.0558 40.2666C80.6859 40.8306 79.6319 41.0866 78.8259 40.7966V40.7976ZM31.0829 39.7287V38.6017L30.2709 37.3988C29.828 36.7338 29.445 36.1688 29.431 36.1428C29.411 36.1158 29.532 36.0888 29.7 36.0888H30.0089L30.6599 37.0628C31.0159 37.5998 31.3249 38.0367 31.3519 38.0367C31.3789 38.0367 31.6879 37.5998 32.0439 37.0628L32.6938 36.0888H33.3058L32.4658 37.3318L31.6199 38.5807V40.8576H31.0829V39.7287ZM34.0378 38.4737V36.0898H36.9927V36.5598H34.6408V38.0377H36.9237V38.5077L35.8027 38.5207L34.6748 38.5407L34.6548 39.4337L34.6348 40.3206H37.0597V40.8576H34.0378V38.4737ZM39.2086 38.7087V36.5598H37.5286V36.0898H41.4905V36.5598H39.8125V40.8586H39.2086V38.7087ZM42.2304 38.4737V36.0898H42.7674V37.0968C42.7674 37.6548 42.7874 38.1047 42.8204 38.1047C42.8474 38.1047 43.3504 37.6478 43.9354 37.0968L45.0103 36.0898H45.7153L45.0973 36.6808C44.7543 37.0028 44.2374 37.5008 43.9424 37.7817L43.4054 38.2997L44.6803 39.5817L45.9563 40.8576H45.2173L44.0434 39.6827C43.3984 39.0377 42.8474 38.5077 42.8204 38.5077C42.7874 38.5077 42.7674 39.0377 42.7674 39.6827V40.8576H42.2294L42.2304 38.4737ZM46.5273 38.4737V36.0898H47.1322V40.8576H46.5273V38.4737ZM48.4752 38.4737V36.0898H49.0792V40.3206H51.3621V40.8576H48.4752V38.4737ZM52.168 38.4737V36.0898H52.706V40.8576H52.167L52.168 38.4737ZM56.1969 38.4737V36.0898H56.7338V37.1038C56.7338 37.6748 56.7608 38.1037 56.7938 38.0907C56.8278 38.0847 57.3318 37.6278 57.9088 37.0838L58.9638 36.0898H59.6547L59.1177 36.6138C58.8228 36.8958 58.3058 37.3928 57.9628 37.7088L57.3518 38.2857L58.5878 39.5217C59.2657 40.1997 59.8227 40.7766 59.8227 40.8036C59.8227 40.8376 59.6617 40.8576 59.4737 40.8576H59.1177L57.9298 39.6687L56.7348 38.4737V40.8576H56.1979L56.1969 38.4737ZM65.1275 38.4667V36.0768L66.1555 36.1038C67.0214 36.1238 67.2224 36.1508 67.4854 36.2638C68.2974 36.6408 68.3914 37.9567 67.6454 38.4337L67.3574 38.6147L67.6124 38.8297C67.7934 38.9777 68.0024 39.2997 68.3104 39.9107C68.5524 40.3876 68.7534 40.7976 68.7534 40.8176C68.7534 40.8376 68.6264 40.8576 68.4714 40.8576H68.1834L67.7664 40.0317C67.5384 39.5817 67.2764 39.1387 67.1824 39.0517C66.9874 38.8697 66.6454 38.7827 66.1215 38.7757H65.7315V40.8576H65.1275V38.4667ZM67.1354 38.2047C67.4984 38.0247 67.6524 37.4268 67.4444 37.0238C67.2634 36.6738 66.9874 36.5598 66.3225 36.5598H65.7325V38.3057H66.3365C66.7394 38.3057 67.0144 38.2727 67.1354 38.2057V38.2047ZM74.5291 38.4737V36.0898H75.0661V40.3206H77.416V40.8576H74.5281L74.5291 38.4737ZM46.5273 35.1839V34.8809H47.1322V35.4858H46.5273V35.1839ZM52.168 35.1839V34.8809H52.706V35.4858H52.167L52.168 35.1839ZM16.8815 31.477C12.7787 31.202 9.1318 29.0061 7.68186 25.9302C5.72194 21.7804 8.13884 17.1676 13.2886 15.2537C13.8796 15.0317 15.0006 14.7367 15.5915 14.6357L15.8405 14.5957V15.6567L15.4235 15.8107C14.2556 16.2276 12.9196 17.1006 12.1467 17.9466C10.8917 19.3095 10.2268 20.8604 10.1528 22.6334C10.1058 23.6813 10.1928 24.3993 10.4747 25.2393C11.4827 28.2601 14.1886 30.3091 17.6265 30.658C19.8764 30.886 22.3873 30.1001 24.0322 28.6501L24.4352 28.2941V29.7711L23.6162 30.1741C21.5883 31.174 19.2184 31.638 16.8815 31.477V31.477ZM34.8437 25.1113V22.4514L35.3207 22.4714L35.7967 22.4924L36.7107 24.2853C37.2206 25.2723 37.6436 26.0852 37.6636 26.0852C37.6836 26.0852 38.0936 25.2653 38.5706 24.2723L39.4436 22.4654L39.9335 22.4584H40.4165V27.7632H39.4106L39.3976 25.7692L39.3776 23.7683L38.3836 25.7822L37.3896 27.7972L36.4097 25.8832C35.8717 24.8293 35.4087 23.9433 35.3747 23.9093C35.3417 23.8693 35.3147 24.6743 35.3147 25.8032V27.7632H34.8447L34.8437 25.1113ZM42.3644 25.1113V22.4584H45.2503V22.9964H43.3704V24.8763H45.2503V25.3463H43.3704V27.2262H45.2503V27.7632H42.3644V25.1113ZM46.9302 25.1043V22.4454L48.1932 22.4724C49.3271 22.4924 49.4751 22.5124 49.7231 22.6404C50.8721 23.2503 50.9051 24.7683 49.7911 25.4473C49.6971 25.5073 49.7641 25.6552 50.3211 26.6222L50.9591 27.7302L50.4091 27.7502C50.0261 27.7632 49.8381 27.7432 49.7841 27.6832C49.6901 27.5832 48.3402 25.2393 48.3402 25.1853C48.3402 25.1653 48.4282 25.1453 48.5282 25.1453C48.8712 25.1453 49.3011 24.8693 49.4681 24.5403C49.5491 24.3793 49.6161 24.1643 49.6161 24.0703C49.6161 23.8013 49.3341 23.3113 49.0862 23.1504C48.9112 23.0304 48.7632 22.9964 48.4342 22.9964H48.0042V27.7632H46.9302V25.1043ZM52.638 25.1113V22.4584H53.712V24.8833L54.6389 23.9233C55.1489 23.3923 55.6729 22.8484 55.8009 22.7074C56.0159 22.4654 56.0489 22.4524 56.3509 22.4724L56.6808 22.4924L55.6189 23.5873C54.6319 24.6143 54.5649 24.6953 54.6519 24.8293C54.6989 24.9093 55.1829 25.5613 55.7269 26.2862C56.0764 26.7482 56.4211 27.2139 56.7608 27.6832C56.7948 27.7432 56.6668 27.7632 56.1839 27.7632L55.5589 27.7572L54.6519 26.5552L53.746 25.3453L53.726 26.5552L53.712 27.7632H52.638V25.1113ZM58.5468 25.1113V22.4584H61.3667V22.9964H59.5547V24.8763H61.3677V25.3463H59.5547V27.2262H61.3677V27.7632H58.5478L58.5468 25.1113ZM62.9796 27.4812C62.9856 27.2262 63.1336 26.9582 64.2885 25.1113L65.5905 23.0294L64.2885 23.0094L62.9786 22.9964V22.4584H66.8064V22.7204C66.8064 22.9494 66.6254 23.2783 65.4965 25.0703C64.7785 26.2192 64.1875 27.1722 64.1875 27.1932C64.1875 27.2132 64.7785 27.2262 65.4975 27.2262H66.8064V27.7632H62.9786L62.9796 27.4812ZM71.9092 25.1113V22.4454L73.1722 22.4724C74.4081 22.4924 74.4341 22.4994 74.7431 22.6804C74.955 22.7971 75.1309 22.9696 75.2516 23.1792C75.3724 23.3888 75.4334 23.6275 75.4281 23.8693C75.4211 24.2993 75.3411 24.4793 75.0181 24.8223L74.7841 25.0643L74.9381 25.1443C75.4421 25.4063 75.8041 26.0842 75.7041 26.5742C75.6231 26.9642 75.3481 27.3472 75.0121 27.5422C74.6961 27.7302 74.6901 27.7302 73.3062 27.7502L71.9092 27.7702V25.1113ZM74.2391 27.0912C74.6891 26.8172 74.8101 26.1382 74.4811 25.7422C74.2331 25.4533 73.9441 25.3463 73.3872 25.3463H72.9172V27.2262H73.4742C73.9041 27.2262 74.0721 27.1992 74.2401 27.0922L74.2391 27.0912ZM73.9111 24.7483C74.2261 24.5883 74.3941 24.2983 74.3941 23.9223C74.3941 23.3253 74.0111 22.9964 73.3202 22.9964H72.9172V24.8763H73.2872C73.5212 24.8763 73.7571 24.8293 73.9111 24.7483V24.7483ZM76.825 27.6492C76.845 27.5822 77.322 26.3872 77.886 24.9903L78.9129 22.4524L79.2829 22.4724L79.6589 22.4924L80.7129 25.1323L81.7668 27.7632H80.6589L80.3709 27.0252L80.0809 26.2862L78.9739 26.3002L77.873 26.3202L77.59 27.0252L77.308 27.7302L77.053 27.7502C76.832 27.7702 76.798 27.7572 76.825 27.6502V27.6492ZM79.8059 25.6282C79.6789 25.2323 79.0339 23.7013 78.9869 23.6883C78.9339 23.6683 78.147 25.5743 78.155 25.7022C78.155 25.7292 78.537 25.7492 79.0009 25.7492C79.7799 25.7492 79.8409 25.7422 79.8059 25.6282V25.6282ZM83.3248 25.1113V22.4584H83.9697L85.5817 24.3723C86.4616 25.4273 87.2066 26.2862 87.2326 26.2862C87.2666 26.2862 87.2866 25.4263 87.2866 24.3723V22.4594H87.7566V27.7642H87.0986L85.4667 25.8102L83.8287 23.8563L83.8087 25.8102L83.7947 27.7642H83.3248V25.1113ZM89.7045 25.1113V22.4584H90.7115L90.7185 23.6883V24.9093L91.9134 23.6813L93.1024 22.4514L93.4103 22.4714L93.7203 22.4924L92.6584 23.6003L91.5984 24.7153L92.6054 26.0512C93.1554 26.7902 93.6723 27.4752 93.7463 27.5822L93.8743 27.7632H92.6184L91.7184 26.5612C91.2214 25.8972 90.7924 25.3533 90.7654 25.3533C90.7314 25.3463 90.7115 25.8902 90.7115 26.5552V27.7632H89.7045V25.1113ZM95.4383 27.6492L96.4992 24.9903L97.5202 22.4524L97.8902 22.4724L98.2591 22.4924L99.2531 24.9433C99.7971 26.2932 100.273 27.4752 100.307 27.5832L100.374 27.7632H99.2731L98.9841 27.0252L98.6891 26.2862H96.4982L96.2032 27.0252L95.9142 27.7632H95.6522C95.4373 27.7632 95.4043 27.7432 95.4373 27.6492H95.4383ZM98.4331 25.6952C98.4331 25.5683 97.6542 23.7213 97.6012 23.7153C97.5412 23.7013 96.7552 25.5553 96.7552 25.6952C96.7552 25.7222 97.1312 25.7492 97.5942 25.7492C98.0572 25.7492 98.4341 25.7222 98.4341 25.6952H98.4331ZM103 27.6892C102.757 27.6421 102.521 27.568 102.295 27.4682C101.757 27.2062 101.765 27.2192 101.905 26.9182C101.965 26.7762 102.033 26.6422 102.039 26.6282C102.053 26.6082 102.16 26.6892 102.281 26.8102C102.42 26.9458 102.585 27.0524 102.766 27.1238C102.947 27.1952 103.14 27.23 103.335 27.2262C103.631 27.2262 103.711 27.1932 103.879 27.0312C104.041 26.8712 104.074 26.7762 104.074 26.5212C104.074 26.1252 103.9 25.9372 102.98 25.3933C102.234 24.9503 101.959 24.6343 101.885 24.1513C101.791 23.5403 102.06 22.9894 102.597 22.6734C102.845 22.5264 102.973 22.4994 103.369 22.4994C103.866 22.5054 104.403 22.6534 104.672 22.8554C104.819 22.9694 104.826 22.9954 104.746 23.2243L104.665 23.4793L104.517 23.3453C104.014 22.8814 103.201 22.8754 102.959 23.3383C102.825 23.6003 102.845 23.9563 102.999 24.1513C103.074 24.2453 103.476 24.5413 103.906 24.8023C104.826 25.3803 105.028 25.6422 105.034 26.2722C105.041 27.3072 104.188 27.8982 103 27.6902V27.6892ZM106.76 25.1113V22.4584H107.767V27.7632H106.76V25.1113Z" fill="white"/>
<path d="M12.9521 22.9623V18.2295H14.3291L15.887 20.8684C16.747 22.3123 17.485 23.5543 17.539 23.6213C17.619 23.7353 17.7739 23.4603 19.0629 20.9894L20.5068 18.2365L21.0308 18.2295H21.5478V27.6971H19.3989L19.3849 25.4542L19.3649 23.2183L18.1569 25.4542C17.492 26.6841 16.947 27.6841 16.941 27.6771C16.941 27.6701 16.384 26.6971 15.706 25.5152C15.0271 24.3332 14.4361 23.3193 14.3831 23.2653C14.3091 23.1853 14.2951 23.5343 14.2951 25.4352V27.6971H12.9521V22.9623ZM22.4208 22.9623V18.2295H24.3207C26.3826 18.2295 26.6846 18.2695 27.3756 18.6125C27.8525 18.8535 28.3425 19.3444 28.5785 19.8204C28.7385 20.1634 28.7665 20.2844 28.7665 20.8144C28.7665 21.3444 28.7395 21.4594 28.5715 21.7813C28.4175 22.0476 28.2277 22.2915 28.0075 22.5063L27.6375 22.8693L27.7995 22.9763C28.1215 23.1913 28.6455 23.7763 28.8065 24.1053C28.9405 24.3872 28.9675 24.5352 28.9675 25.0452C28.9605 25.5422 28.9335 25.7102 28.7995 25.9852C28.5785 26.4422 27.9735 27.0321 27.4696 27.2881C26.7446 27.6501 26.4156 27.6981 24.3207 27.6981H22.4208V22.9623ZM25.5226 26.8171C26.8186 26.5412 27.4366 25.3672 26.8126 24.3592C26.4626 23.7953 25.5496 23.4053 24.7367 23.4793L24.4687 23.4993L24.4487 25.1112C24.4417 25.9972 24.4487 26.7561 24.4617 26.8031C24.5087 26.9111 25.0397 26.9171 25.5226 26.8171V26.8171ZM25.7916 22.4453C26.9326 21.9553 27.1676 20.4444 26.2346 19.6054C25.8446 19.2554 25.4086 19.1015 24.8247 19.1015H24.4347V22.5863L24.5897 22.6133C24.8517 22.6733 25.4696 22.5863 25.7916 22.4453Z" fill="white"/>
<path d="M16.3109 16.9193V12.4535H12.416V10.9756H22.6896V12.4535H18.7958V21.3842H16.3109V16.9193ZM34.8441 17.3213V14.9374H33.5011V14.4674H37.194V14.9374H35.8511V19.7052H34.8441V17.3213ZM39.1749 19.6182C38.5979 19.4232 38.148 19.0543 37.879 18.5373L37.698 18.1943L37.678 16.3344L37.658 14.4674H38.6709V16.1474C38.6709 17.9793 38.6979 18.1343 39.0609 18.5173C39.3359 18.8053 39.6049 18.9203 40.0139 18.9203C40.4239 18.9203 40.6929 18.8053 40.9678 18.5173C41.3308 18.1343 41.3578 17.9793 41.3578 16.1474V14.4674H41.8268V16.2334C41.8268 18.2683 41.7998 18.4233 41.3088 18.9673C41.1233 19.1682 40.9085 19.3401 40.6719 19.4772C40.2619 19.6852 39.5699 19.7462 39.1739 19.6172L39.1749 19.6182ZM42.7678 17.0863V14.4674H43.9897C45.3797 14.4674 45.6007 14.5274 46.0106 15.0114C46.1567 15.1821 46.264 15.3824 46.3254 15.5984C46.3868 15.8145 46.4007 16.0413 46.3663 16.2633C46.3318 16.4853 46.2497 16.6972 46.1257 16.8844C46.0016 17.0717 45.8386 17.23 45.6477 17.3483L45.4597 17.4623L46.0916 18.5643C46.4406 19.1612 46.7296 19.6722 46.7296 19.6852C46.7296 19.6982 46.4676 19.6982 46.1446 19.6922L45.5607 19.6722L44.8427 18.4293C44.5912 18.0063 44.3472 17.5789 44.1107 17.1473C44.1107 17.1203 44.2507 17.0873 44.4197 17.0673C44.9967 17.0063 45.3527 16.6034 45.3527 16.0194C45.3527 15.7034 45.3187 15.5894 45.1717 15.3944C44.9297 15.0784 44.6137 14.9374 44.1507 14.9374H43.7747V19.7052H42.7678V17.0863ZM47.3336 17.0863V14.4674H48.4075V16.8513L49.5565 15.6634C50.7044 14.4674 50.7044 14.4674 50.9994 14.4674C51.1614 14.4674 51.2954 14.4874 51.2954 14.5074C51.2954 14.5274 50.8454 15.0184 50.2885 15.5894C49.7375 16.1664 49.2805 16.6574 49.2805 16.6834C49.2805 16.7103 49.7775 17.3883 50.3885 18.1943C50.7652 18.6833 51.1346 19.178 51.4964 19.6782C51.4964 19.6922 51.2144 19.7052 50.8724 19.7052H50.2545L49.3485 18.4963L48.4415 17.2943L48.4215 18.4963L48.4075 19.7062H47.3336V17.0863ZM52.0344 17.0863V14.4674H53.1083V19.7052H52.0344V17.0863ZM55.2573 18.6043V17.4963L54.4513 16.0124C54.1755 15.5102 53.9068 15.0042 53.6453 14.4944C53.6453 14.4814 53.9003 14.4674 54.2093 14.4674H54.7733L55.3912 15.6294C55.7342 16.2604 56.0362 16.8113 56.0632 16.8383C56.0902 16.8713 56.3922 16.3684 56.7342 15.7304C57.0772 15.0924 57.3792 14.5414 57.4062 14.5144C57.4332 14.4814 57.5662 14.4674 57.7012 14.4814L57.9431 14.5014L57.1372 16.0054L56.3312 17.5093V19.7052H55.2573V18.6043ZM58.4801 17.0863V14.4674H61.368V14.9374H59.5551V16.8173H61.368V17.2883H59.5551V19.1682H61.368V19.7052H58.4801V17.0863ZM66.1218 19.5782C65.6118 19.4102 65.3298 19.2282 64.9329 18.7983C64.4699 18.2823 64.2949 17.8253 64.2949 17.0533C64.2949 16.5164 64.3149 16.4014 64.5039 15.9984C64.7701 15.4376 65.2136 14.98 65.7658 14.6964C66.1358 14.5144 66.2228 14.5014 66.9078 14.5014C67.6187 14.5014 67.6657 14.5084 68.1157 14.7364L68.5857 14.9714L68.6057 15.3274L68.6257 15.6834L68.2837 15.4144C67.5517 14.8374 66.5578 14.7834 66.0138 15.2944C65.2758 15.9854 65.2088 17.8323 65.8938 18.7243C66.3908 19.3762 67.6187 19.3092 68.3717 18.5773L68.6197 18.3353V19.1682L68.2367 19.3632C67.5247 19.7192 66.7938 19.7932 66.1218 19.5782V19.5782ZM70.7346 19.5842C70.3162 19.4406 69.9542 19.1678 69.7007 18.8053C69.3247 18.2413 69.3307 18.2553 69.3047 16.3014L69.2847 14.4674H70.2976V16.0124C70.2976 17.8793 70.3456 18.1413 70.7276 18.5303C71.3726 19.1752 72.4475 19.0203 72.8505 18.2283C72.9705 17.9863 72.9845 17.8323 72.9845 16.2134V14.4674H73.5225V16.0994C73.5225 17.9123 73.4675 18.2953 73.1185 18.7993C72.8609 19.1719 72.4886 19.4502 72.0583 19.5918C71.628 19.7335 71.1632 19.7309 70.7346 19.5842V19.5842ZM74.3945 17.0933V14.4884L74.8444 14.4414C75.2074 14.4014 75.3144 14.4144 75.3684 14.4944C75.4084 14.5484 75.8314 15.3604 76.3084 16.3074C76.7914 17.2543 77.2013 18.0273 77.2213 18.0273C77.2413 18.0273 77.6583 17.2143 78.1483 16.2134L79.0283 14.4004H79.2493C79.3633 14.4004 79.5793 14.4204 79.7192 14.4404L79.9682 14.4884V19.7052H78.9593L78.9463 17.7453L78.9263 15.7774L77.9593 17.7443C77.4223 18.8193 76.9724 19.7052 76.9524 19.7052C76.9324 19.7052 76.4884 18.8653 75.9724 17.8453C75.4544 16.8253 74.9974 15.9454 74.9504 15.8854C74.8834 15.7974 74.8704 16.1804 74.8634 17.7453V19.7052H74.3935L74.3945 17.0933ZM80.9082 17.0863V14.4674H81.9152V16.8193H84.0641V14.4674H85.071V19.7052H84.0641V17.2893H81.9152V19.7072H80.9092L80.9082 17.0863ZM87.3809 19.5842C87.0577 19.4695 86.7666 19.2793 86.5318 19.0294C86.297 18.7794 86.1253 18.477 86.031 18.1473C85.971 17.8993 85.944 17.3073 85.944 16.1334V14.4674H86.951V16.0524C86.951 17.9123 86.9909 18.1343 87.3879 18.5303C88.0329 19.1812 89.1409 19.0073 89.5098 18.2013C89.6238 17.9533 89.6368 17.7383 89.6368 16.2004V14.4674H90.1808L90.1608 16.2744L90.1408 18.0743L89.9058 18.5373C89.4158 19.4972 88.3749 19.9272 87.3809 19.5842V19.5842ZM91.0478 17.0863V14.4674H92.2767C93.3237 14.4674 93.5387 14.4874 93.7667 14.5954C94.0967 14.7494 94.4316 15.0924 94.5666 15.4214C94.8276 16.0394 94.5866 16.9183 94.0627 17.2683C93.9147 17.3623 93.8007 17.4623 93.8007 17.4893C93.8007 17.5163 94.0627 17.9863 94.3776 18.5303C94.6936 19.0673 94.9686 19.5572 94.9886 19.6112C95.0156 19.6852 94.9216 19.7052 94.4516 19.7052H93.8817L93.1357 18.4153L92.3907 17.1203L92.7057 17.0733C93.7267 16.9253 94.0087 15.7304 93.1757 15.1124C93.0417 15.0124 92.8607 14.9714 92.5247 14.9514L92.0547 14.9244V19.7052H91.0478V17.0863ZM95.6806 17.0863V14.4674H96.6876V19.7052H95.6806V17.0863ZM98.8365 18.5573V17.4023L98.0645 15.9724C97.6415 15.1864 97.2925 14.5284 97.2925 14.5084C97.2925 14.4884 97.5475 14.4684 97.8495 14.4684H98.4135L99.0045 15.5754C99.2154 15.9845 99.4372 16.388 99.6694 16.7853C99.7294 16.8653 99.8644 16.6634 100.381 15.7034C100.73 15.0524 101.052 14.5084 101.093 14.4884C101.186 14.4716 101.282 14.4693 101.375 14.4814L101.583 14.5014L100.783 15.9784L99.9854 17.4563L99.9784 18.5843V19.7052H98.8365V18.5573ZM102.127 17.0863V14.4674H105.014V14.9374H103.134V16.8173H105.014V17.2883H103.134V19.1682H105.014V19.7052H102.128L102.127 17.0863ZM106.76 17.3213V14.9374H105.417V14.4674H109.11V14.9374H107.767V19.7052H106.76V17.3213Z" fill="white"/>
<path d="M24.2074 17.5036C23.8984 17.1736 23.0185 16.5696 22.3805 16.2476C21.5977 15.8588 20.7638 15.5828 19.9036 15.4277L19.2656 15.3137V14.5217L19.6206 14.5687C20.2526 14.6487 21.4875 14.9447 22.1795 15.1797C22.9385 15.4417 24.3614 16.1196 24.4094 16.2406C24.4294 16.2876 24.4294 16.6306 24.4224 17.0126L24.4024 17.6976L24.2074 17.5036ZM38.8188 13.9177C38.4768 13.7497 38.6178 13.1927 39.0068 13.1927C39.1068 13.1927 39.2488 13.2397 39.3028 13.2997C39.4628 13.4537 39.4368 13.7697 39.2628 13.8897C39.0878 14.0117 39.0338 14.0177 38.8188 13.9177ZM40.1758 13.8297C40.0478 13.7027 40.0208 13.6217 40.0548 13.5077C40.1288 13.2657 40.2228 13.1927 40.4508 13.1927C40.6787 13.1927 40.7727 13.2657 40.8467 13.5077C40.9007 13.6757 40.6387 13.9977 40.4508 13.9977C40.3908 13.9977 40.2698 13.9237 40.1758 13.8297ZM52.3563 13.6897C51.8393 13.4137 52.2013 12.5878 52.7462 12.7898C53.2092 12.9698 53.2362 13.4807 52.7922 13.7157C52.6123 13.8167 52.5783 13.8167 52.3563 13.6887V13.6897ZM96.0365 13.7297C95.7415 13.6087 95.6535 13.1857 95.8685 12.9168C96.0495 12.6958 96.3925 12.7158 96.6004 12.9508C96.8084 13.1927 96.7954 13.3607 96.5604 13.6017C96.3525 13.8097 96.2785 13.8237 96.0365 13.7297V13.7297Z" fill="white"/>
</svg>
