<svg width="64" height="64" viewBox="0 0 64 64" fill="none" xmlns="http://www.w3.org/2000/svg">
<path d="M51.4662 21.12V34.8534C51.4662 43.0667 46.7729 46.5866 39.7329 46.5866H16.2929C15.0929 46.5866 13.9462 46.4801 12.8796 46.2401C12.2129 46.1334 11.5729 45.9467 10.9862 45.7334C6.98625 44.2401 4.55957 40.7734 4.55957 34.8534V21.12C4.55957 12.9066 9.25289 9.38672 16.2929 9.38672H39.7329C45.7062 9.38672 49.9996 11.92 51.1462 17.7067C51.3329 18.7734 51.4662 19.8666 51.4662 21.12Z" stroke="#687992" stroke-width="3" stroke-miterlimit="10" stroke-linecap="round" stroke-linejoin="round"/>
<path d="M59.4695 29.1203V42.8537C59.4695 51.067 54.7762 54.5869 47.7362 54.5869H24.2961C22.3228 54.5869 20.5362 54.3204 18.9895 53.7337C15.8162 52.5604 13.6561 50.1337 12.8828 46.2404C13.9495 46.4804 15.0961 46.5869 16.2961 46.5869H39.7362C46.7762 46.5869 51.4695 43.067 51.4695 34.8537V21.1203C51.4695 19.8669 51.3628 18.747 51.1495 17.707C56.2162 18.7737 59.4695 22.3469 59.4695 29.1203Z" stroke="#687992" stroke-width="3" stroke-miterlimit="10" stroke-linecap="round" stroke-linejoin="round"/>
<path d="M27.9951 35.0397C31.8832 35.0397 35.0352 31.8878 35.0352 27.9997C35.0352 24.1116 31.8832 20.9597 27.9951 20.9597C24.107 20.9597 20.9551 24.1116 20.9551 27.9997C20.9551 31.8878 24.107 35.0397 27.9951 35.0397Z" stroke="#687992" stroke-width="3" stroke-miterlimit="10" stroke-linecap="round" stroke-linejoin="round"/>
<path d="M12.7461 22.1333V33.8667" stroke="#687992" stroke-width="3" stroke-miterlimit="10" stroke-linecap="round" stroke-linejoin="round"/>
<path d="M43.2578 22.1341V33.8675" stroke="#687992" stroke-width="3" stroke-miterlimit="10" stroke-linecap="round" stroke-linejoin="round"/>
</svg>
