<svg width="24" height="24" viewBox="0 0 24 24" fill="none" xmlns="http://www.w3.org/2000/svg">
<path d="M17.8681 17.8128C16.8596 17.8085 16.0569 17.0227 16.0566 16.039C16.0564 14.9618 16.9972 14.0414 18.1016 14.0374C19.0761 14.0341 19.9604 14.8852 19.9618 15.8276C19.9637 16.8989 18.9948 17.8177 17.8681 17.8128Z" fill="#40BDD7"/>
<path d="M11.216 16.3108C11.2303 15.2494 12.1296 14.3262 13.1496 14.3259C13.8255 14.3259 14.4058 14.7808 14.5649 15.4359C14.8431 16.5804 13.8843 17.823 12.7042 17.8469C11.8668 17.864 11.2043 17.1804 11.216 16.3108Z" fill="#40BDD7"/>
<path d="M19.7778 11.7907C20.0082 11.1434 19.7822 10.5295 19.2087 10.1461C18.4866 9.66305 17.3506 9.86907 16.7508 10.5921C16.4693 10.9313 16.2898 11.3128 16.3365 11.7612C16.4243 12.6035 17.1022 13.1241 18.0094 13.0634C18.9078 12.9565 19.5396 12.4594 19.7778 11.7907Z" fill="#40BDD7"/>
<path d="M13.1621 13.3936C12.2806 13.3934 11.7179 12.69 11.9066 11.8245C12.0854 11.003 12.8928 10.3404 13.7267 10.331C14.6131 10.3214 15.2033 11.0442 15.0139 11.9081C14.8315 12.739 14.0155 13.3936 13.1621 13.3936Z" fill="#40BDD7"/>
<path d="M7.46122 16.3967C7.53317 15.7029 7.91943 15.0699 8.6999 14.7317C9.62826 14.329 10.5261 14.9888 10.4415 15.9982C10.3766 16.7738 9.98545 17.352 9.29005 17.6984C8.357 18.1634 7.44247 17.5737 7.46122 16.3967Z" fill="#40BDD7"/>
<path d="M18.6412 6.1418C18.8107 6.12469 19.073 6.19172 19.3151 6.34149C19.8682 6.68391 20.0299 7.29001 19.7278 7.89119C19.3608 8.62174 18.379 9.07338 17.5797 8.87908C16.6929 8.66346 16.3338 7.79603 16.8363 7.03923C17.2317 6.44391 17.8033 6.14649 18.6412 6.1418Z" fill="#40BDD7"/>
<path d="M4.01953 16.4332C4.04531 15.9382 4.42031 15.3471 5.11289 14.9801C5.90484 14.5603 6.73149 15.0788 6.67758 15.9607C6.63141 16.7182 6.26273 17.3086 5.58586 17.6719C4.77211 18.1092 4.0193 17.6489 4.01953 16.4332Z" fill="#40BDD7"/>
<path d="M13.5792 9.48892C12.7861 9.48681 12.2951 8.84016 12.5142 8.08664C12.751 7.27406 13.7707 6.65085 14.5629 6.83554C15.2131 6.98695 15.5414 7.54992 15.3546 8.19235C15.1456 8.91141 14.3522 9.49056 13.5792 9.48892Z" fill="#40BDD7"/>
<path d="M10.056 10.8804C10.724 10.8825 11.1796 11.4567 11.0615 12.1479C10.938 12.8709 10.288 13.5059 9.56007 13.6156C8.8982 13.7149 8.3589 13.26 8.35164 12.5965C8.34226 11.7337 9.19234 10.8776 10.056 10.8804Z" fill="#40BDD7"/>
<path d="M9.01713 9.08508C9.04596 8.16023 10.1501 7.27336 11.0253 7.47188C11.4378 7.56539 11.7281 7.89352 11.7656 8.30719C11.8491 9.2325 10.6828 10.2455 9.76854 10.0423C9.29604 9.93679 9.00237 9.56273 9.01713 9.08508Z" fill="#40BDD7"/>
<path d="M5.98875 13.9155C5.46351 13.9134 5.09554 13.5192 5.10164 12.9656C5.11054 12.165 5.80804 11.359 6.60093 11.2329C7.16625 11.1436 7.61906 11.4949 7.67554 12.0668C7.76132 12.9359 6.86437 13.9186 5.98875 13.9155Z" fill="#40BDD7"/>
<path d="M6.04894 9.62343C6.05949 8.9053 6.80949 8.13491 7.53981 8.09272C8.10395 8.05968 8.47708 8.47499 8.39364 9.04194C8.29731 9.69632 7.60778 10.3559 6.94824 10.4241C6.41902 10.4789 6.04121 10.1426 6.04894 9.62343Z" fill="#40BDD7"/>
</svg>
