<svg width="119" height="48" viewBox="0 0 119 48" fill="none" xmlns="http://www.w3.org/2000/svg">
<path d="M80.5419 26.9996L81.6933 27.3457C81.6165 27.6726 81.5014 27.9419 81.3287 28.1534C81.156 28.3649 80.9641 28.538 80.7146 28.6342C80.4651 28.7495 80.1581 28.8072 79.7743 28.8072C79.3137 28.8072 78.9491 28.7495 78.642 28.6149C78.3542 28.4803 78.1047 28.2495 77.8936 27.9034C77.6825 27.5765 77.5674 27.1342 77.5674 26.6149C77.5674 25.9226 77.7593 25.3842 78.1239 24.9996C78.4885 24.615 79.0258 24.4419 79.6975 24.4419C80.2348 24.4419 80.6378 24.5573 80.9449 24.7688C81.2519 24.9804 81.4822 25.3073 81.6165 25.7688L80.4651 26.0188C80.4267 25.8842 80.3884 25.788 80.3308 25.7303C80.254 25.6342 80.1773 25.5573 80.0621 25.4996C79.947 25.4419 79.8318 25.4227 79.7167 25.4227C79.4288 25.4227 79.1986 25.538 79.045 25.788C78.9299 25.9611 78.8723 26.2496 78.8723 26.6149C78.8723 27.0765 78.9491 27.4034 79.0834 27.5765C79.2178 27.7495 79.4288 27.8457 79.6783 27.8457C79.9278 27.8457 80.1197 27.7688 80.2348 27.6342C80.3884 27.4611 80.4843 27.2688 80.5419 26.9996Z" fill="white"/>
<path d="M82.1543 26.6151C82.1543 25.9228 82.3462 25.3844 82.73 24.9998C83.1138 24.6152 83.6511 24.4229 84.342 24.4229C85.052 24.4229 85.5894 24.6152 85.9732 24.9805C86.357 25.3652 86.5489 25.8844 86.5489 26.5767C86.5489 27.0767 86.4721 27.4805 86.2994 27.7882C86.1267 28.0959 85.8964 28.3459 85.5702 28.519C85.2631 28.692 84.8601 28.7882 84.3996 28.7882C83.9198 28.7882 83.536 28.7113 83.2098 28.5574C82.9027 28.4036 82.6532 28.1728 82.4422 27.8267C82.2311 27.4805 82.1543 27.1151 82.1543 26.6151ZM83.4592 26.6151C83.4592 27.0382 83.536 27.3459 83.6895 27.5382C83.843 27.7305 84.0541 27.8267 84.342 27.8267C84.6298 27.8267 84.8409 27.7305 84.9945 27.5574C85.148 27.3651 85.2247 27.0382 85.2247 26.5767C85.2247 26.1728 85.148 25.8844 84.9753 25.7113C84.8218 25.519 84.5915 25.4421 84.3228 25.4421C84.0541 25.4421 83.843 25.5382 83.6895 25.7305C83.536 25.8844 83.4592 26.1921 83.4592 26.6151Z" fill="white"/>
<path d="M87.22 24.5H88.928L89.5804 27.0769L90.2329 24.5H91.9408V28.7307H90.8662V25.5L90.041 28.7307H89.0815L88.2563 25.5V28.7307H87.1816V24.5H87.22Z" fill="white"/>
<path d="M92.7852 24.5H94.9537C95.4334 24.5 95.7789 24.6154 96.0091 24.8461C96.2394 25.0769 96.3546 25.3846 96.3546 25.8077C96.3546 26.2307 96.2202 26.5769 95.9708 26.8077C95.7213 27.0577 95.3183 27.173 94.8001 27.173H94.0901V28.7499H92.7852V24.5ZM94.0901 26.3077H94.4163C94.6658 26.3077 94.8385 26.2692 94.9537 26.1731C95.0496 26.0769 95.1072 25.9807 95.1072 25.8461C95.1072 25.7115 95.0688 25.5961 94.9729 25.5C94.8769 25.4038 94.7234 25.3654 94.4739 25.3654H94.1093V26.3077H94.0901Z" fill="white"/>
<path d="M97.0459 24.5H98.3508V27.6923H100.385V28.7307H97.0459V24.5Z" fill="white"/>
<path d="M101.037 24.5H102.342V28.7307H101.037V24.5Z" fill="white"/>
<path d="M105.873 28.0189H104.396L104.184 28.7112H102.86L104.453 24.4805H105.873L107.466 28.7112H106.104L105.873 28.0189ZM105.605 27.115L105.144 25.5958L104.683 27.115H105.605Z" fill="white"/>
<path d="M107.869 24.5H109.078L110.671 26.8461V24.5H111.899V28.7307H110.671L109.097 26.4038V28.7307H107.869V24.5Z" fill="white"/>
<path d="M112.475 24.5H116.447V25.5384H115.123V28.7307H113.818V25.5384H112.494V24.5H112.475Z" fill="white"/>
<path d="M64.8441 30.9422L68.6246 29.7499L67.3964 27.0192C66.4945 28.1538 65.5925 29.6153 64.8441 30.9422ZM63.5584 18.4616L56.1509 1.92334L1.91895 5.00022L16.945 46.0766L45.8648 36.9421C44.0226 34.2883 43.3509 31.1345 45.481 29.596C47.8606 27.8653 51.4492 29.8653 53.7329 32.6922C55.9398 28.9999 62.1383 20.4039 63.5584 18.4616Z" fill="white"/>
<path d="M54.4612 13.8751C56.7257 13.8751 58.568 12.1443 58.568 9.99052C58.568 7.8367 56.7257 6.10596 54.4612 6.10596C52.1968 6.10596 50.3545 7.8367 50.3545 9.99052C50.3545 12.1251 52.1968 13.8751 54.4612 13.8751ZM51.1029 15.5481H57.8195V33.1441H51.1029V15.5481Z" fill="#1226AA"/>
<path d="M47.7837 20.6827C47.8413 20.702 47.8796 20.6827 47.8796 20.6251V16.1636C47.8796 16.1059 47.8413 16.0482 47.7837 16.0097C47.7837 16.0097 46.9009 15.4328 44.2143 15.279C44.08 15.202 41.7195 15.1828 41.0863 15.279C31.2992 16.0674 30.9346 23.1635 30.9346 23.4712V25.2019C30.9346 25.4134 30.9346 32.6634 41.0863 33.298C42.0842 33.3749 44.0224 33.298 44.2143 33.298C46.5555 33.298 48.1675 32.5864 48.1675 32.5864C48.2251 32.5672 48.2635 32.5095 48.2635 32.4518V28.2788C48.2635 28.2211 48.2251 28.2019 48.1867 28.2403C48.1867 28.2403 47.4575 28.8173 44.2719 29.1442C43.3699 29.2403 42.9285 29.2019 42.6023 29.1442C38.0734 28.3749 37.8623 25.0673 37.8623 25.0673C37.8623 25.0096 37.8431 24.9135 37.8431 24.875V23.6058C37.8431 23.5481 37.8431 23.4519 37.8623 23.4135C37.8623 23.4135 38.1693 19.8558 42.6023 19.4712H44.2719C46.2101 19.7212 47.7837 20.6827 47.7837 20.6827Z" fill="#1226AA"/>
<path d="M12.2812 33.0862C12.2812 33.1439 12.3196 33.1824 12.3772 33.1824H18.9211C18.9787 33.1824 19.0171 33.1439 19.0171 33.0862V27.9709C19.0171 27.9132 19.0554 27.8747 19.113 27.8747C19.113 27.8747 29.5718 28.6247 29.5718 21.6056C29.5718 16.048 23.0087 15.4518 20.8593 15.548C20.821 15.548 12.3772 15.548 12.3772 15.548C12.3196 15.548 12.2812 15.5864 12.2812 15.6441V33.0862ZM18.9019 23.9709V19.3748H20.5139C20.5139 19.3748 22.8359 19.471 23.0278 21.0671C23.0662 21.1825 23.0662 21.971 23.0278 22.0094C22.7208 23.8748 20.7058 23.9709 20.7058 23.9709H18.9019Z" fill="#1226AA"/>
<path d="M54.6544 41.6345C55.1917 41.6345 55.6139 41.6345 56.3047 41.3268C58.6843 40.0769 66.7251 20.404 75.2072 14.3464C75.2648 14.308 75.3224 14.2503 75.3608 14.1926C75.4183 14.1157 75.4183 14.0387 75.4183 14.0387C75.4183 14.0387 75.4183 13.6349 74.171 13.6349C66.6292 13.4234 58.7803 29.2885 54.6544 35.5577C54.5968 35.6346 54.3281 35.5577 54.3281 35.5577C54.3281 35.5577 51.5647 32.2885 49.1659 31.0385C49.1084 31.0193 48.8397 30.9231 48.5518 30.9424C48.3599 30.9424 47.2469 31.1731 46.7288 31.7116C46.1147 32.3654 46.1339 32.7308 46.1339 33.5193C46.1339 33.5769 46.1722 33.8462 46.249 33.9808C46.8439 35.0192 49.5114 38.7115 51.7182 40.7499C52.0445 40.9999 52.5626 41.6345 54.6544 41.6345Z" fill="white"/>
<path d="M77.4326 8.40381H83.7079C84.9552 8.40381 85.9531 8.57688 86.7016 8.9038C87.4692 9.24995 88.1025 9.73071 88.5822 10.3461C89.0812 10.9807 89.4458 11.7115 89.6569 12.5384C89.8872 13.3653 90.0023 14.2499 90.0023 15.1922C90.0023 16.6537 89.8296 17.7883 89.5034 18.596C89.1771 19.4037 88.7165 20.0767 88.1216 20.6344C87.5267 21.1729 86.8935 21.5382 86.2218 21.7305C85.3007 21.9805 84.4563 22.0959 83.7079 22.0959H77.4326V8.40381ZM81.6545 11.4999V18.9806H82.6908C83.5735 18.9806 84.2068 18.8844 84.5714 18.6921C84.936 18.4998 85.2431 18.1537 85.4542 17.6729C85.6653 17.1922 85.7804 16.3845 85.7804 15.2883C85.7804 13.8268 85.5501 12.8461 85.0704 12.3076C84.5906 11.7691 83.823 11.4999 82.71 11.4999H81.6545Z" fill="white"/>
<path d="M91.1729 17.5768L95.2028 17.3268C95.2988 17.9806 95.4715 18.4806 95.7402 18.8267C96.1815 19.3844 96.7956 19.6537 97.6016 19.6537C98.1965 19.6537 98.6763 19.519 99.0025 19.2306C99.3287 18.9421 99.5015 18.6152 99.5015 18.2498C99.5015 17.9037 99.3479 17.5768 99.0409 17.2883C98.7339 16.9998 98.0046 16.7498 96.8724 16.4999C95.0109 16.0768 93.706 15.5191 92.9 14.8268C92.094 14.1345 91.7102 13.2499 91.7102 12.173C91.7102 11.4615 91.9213 10.8076 92.3243 10.173C92.7273 9.53841 93.3414 9.05764 94.1665 8.69226C94.9917 8.32688 96.1048 8.15381 97.5249 8.15381C99.2712 8.15381 100.614 8.48073 101.516 9.13457C102.438 9.7884 102.975 10.8269 103.148 12.2499L99.156 12.4807C99.0409 11.8653 98.8298 11.423 98.4844 11.1345C98.1389 10.8461 97.6784 10.7115 97.0835 10.7115C96.5845 10.7115 96.2199 10.8076 95.9704 11.0192C95.721 11.2307 95.6058 11.4807 95.6058 11.7884C95.6058 11.9999 95.7018 12.2114 95.9129 12.3845C96.1048 12.5576 96.5845 12.7307 97.333 12.8845C99.1752 13.2884 100.499 13.6922 101.305 14.096C102.111 14.4999 102.687 15.0191 103.052 15.6152C103.416 16.2114 103.589 16.9037 103.589 17.6537C103.589 18.5383 103.34 19.346 102.86 20.0767C102.38 20.8267 101.689 21.3844 100.826 21.769C99.962 22.1536 98.849 22.3459 97.5249 22.3459C95.2028 22.3459 93.5908 21.9036 92.6889 20.9998C91.8061 20.096 91.3072 18.9614 91.1729 17.5768Z" fill="white"/>
<path d="M104.664 17.5768L108.694 17.3268C108.79 17.9806 108.963 18.4806 109.231 18.8267C109.673 19.3844 110.287 19.6537 111.093 19.6537C111.688 19.6537 112.167 19.519 112.494 19.2306C112.82 18.9421 112.993 18.6152 112.993 18.2498C112.993 17.9037 112.839 17.5768 112.532 17.2883C112.225 16.9998 111.496 16.7498 110.364 16.4999C108.502 16.0768 107.197 15.5191 106.391 14.8268C105.604 14.1345 105.201 13.2499 105.201 12.173C105.201 11.4615 105.412 10.8076 105.815 10.173C106.218 9.53841 106.833 9.05764 107.658 8.69226C108.483 8.32688 109.596 8.15381 111.016 8.15381C112.762 8.15381 114.106 8.48073 115.008 9.13457C115.929 9.7884 116.466 10.8269 116.639 12.2499L112.647 12.4807C112.532 11.8653 112.321 11.423 111.976 11.1345C111.63 10.8461 111.17 10.7115 110.575 10.7115C110.076 10.7115 109.711 10.8076 109.462 11.0192C109.212 11.2307 109.097 11.4807 109.097 11.7884C109.097 11.9999 109.193 12.2114 109.404 12.3845C109.596 12.5576 110.076 12.7307 110.824 12.8845C112.666 13.2884 113.991 13.6922 114.797 14.096C115.603 14.4999 116.178 15.0191 116.543 15.6152C116.908 16.2114 117.08 16.9037 117.08 17.6537C117.08 18.5383 116.831 19.346 116.351 20.0767C115.871 20.8267 115.18 21.3844 114.317 21.769C113.453 22.1536 112.34 22.3459 111.016 22.3459C108.694 22.3459 107.082 21.9036 106.18 20.9998C105.278 20.096 104.779 18.9614 104.664 17.5768Z" fill="white"/>
</svg>
