<svg width="28" height="28" viewBox="0 0 28 28" fill="none" xmlns="http://www.w3.org/2000/svg">
<path d="M14.0007 23.9166H8.16732C4.66732 23.9166 2.33398 22.1666 2.33398 18.0833V9.91665C2.33398 5.83331 4.66732 4.08331 8.16732 4.08331H19.834C23.334 4.08331 25.6673 5.83331 25.6673 9.91665V13.4166" stroke="white" stroke-width="2" stroke-miterlimit="10" stroke-linecap="round" stroke-linejoin="round"/>
<path d="M19.8327 10.5L16.181 13.4167C14.9793 14.3733 13.0077 14.3733 11.806 13.4167L8.16602 10.5" stroke="white" stroke-width="2" stroke-miterlimit="10" stroke-linecap="round" stroke-linejoin="round"/>
<path d="M22.4115 17.2317L18.2816 21.3617C18.1182 21.525 17.9665 21.8284 17.9315 22.05L17.7099 23.625C17.6282 24.1967 18.0249 24.5934 18.5966 24.5117L20.1716 24.29C20.3932 24.255 20.7082 24.1033 20.8599 23.94L24.9899 19.81C25.7016 19.0984 26.0399 18.27 24.9899 17.22C23.9516 16.1817 23.1232 16.52 22.4115 17.2317Z" stroke="white" stroke-width="2" stroke-miterlimit="10" stroke-linecap="round" stroke-linejoin="round"/>
<path d="M21.8164 17.8267C22.1664 19.0867 23.1464 20.0667 24.4064 20.4167" stroke="white" stroke-width="2" stroke-miterlimit="10" stroke-linecap="round" stroke-linejoin="round"/>
</svg>
