<svg width="100" height="20" viewBox="0 0 100 20" fill="none" xmlns="http://www.w3.org/2000/svg">
<path d="M10.0001 15.2167L4.12259 18.5067L5.43509 11.9001L0.489258 7.32675L7.17843 6.53341L10.0001 0.416748L12.8218 6.53341L19.5109 7.32675L14.5651 11.9001L15.8776 18.5067L10.0001 15.2167Z" fill="#FF9910"/>
<path d="M30.0001 15.2167L24.1226 18.5067L25.4351 11.9001L20.4893 7.32675L27.1784 6.53341L30.0001 0.416748L32.8218 6.53341L39.5109 7.32675L34.5651 11.9001L35.8776 18.5067L30.0001 15.2167Z" fill="#FF9910"/>
<path d="M50.0001 15.2167L44.1226 18.5067L45.4351 11.9001L40.4893 7.32675L47.1784 6.53341L50.0001 0.416748L52.8218 6.53341L59.5109 7.32675L54.5651 11.9001L55.8776 18.5067L50.0001 15.2167Z" fill="#FF9910"/>
<path d="M70.0001 15.2167L64.1226 18.5067L65.4351 11.9001L60.4893 7.32675L67.1784 6.53341L70.0001 0.416748L72.8218 6.53341L79.5109 7.32675L74.5651 11.9001L75.8776 18.5067L70.0001 15.2167Z" fill="#FF9910"/>
<path d="M90.0001 15.2167L84.1226 18.5067L85.4351 11.9001L80.4893 7.32675L87.1784 6.53341L90.0001 0.416748L92.8218 6.53341L99.5109 7.32675L94.5651 11.9001L95.8776 18.5067L90.0001 15.2167Z" fill="#FF9910"/>
</svg>
