<svg width="674" height="540" viewBox="0 0 674 540" fill="none" xmlns="http://www.w3.org/2000/svg">
<path d="M119.775 262.82L119.852 262.413L120.296 260.07C120.541 258.776 124.711 234.66 129.561 206.487L138.308 155.669L186.487 155.51C204.88 155.449 217.026 155.454 224.573 155.543C228.348 155.587 230.966 155.652 232.637 155.741C233.475 155.785 234.062 155.834 234.434 155.888C234.47 155.893 234.504 155.898 234.535 155.903C234.505 156.103 234.461 156.377 234.405 156.723C234.284 157.473 234.106 158.556 233.875 159.936C233.415 162.696 232.75 166.64 231.928 171.477C230.285 181.151 228.019 194.393 225.525 208.87C223.032 223.346 220.766 236.548 219.123 246.155C218.301 250.958 217.635 254.864 217.175 257.581C216.945 258.939 216.766 260.001 216.644 260.729C216.584 261.093 216.537 261.375 216.506 261.569C216.49 261.666 216.478 261.742 216.47 261.796C216.466 261.823 216.463 261.846 216.46 261.865C216.459 261.874 216.457 261.884 216.456 261.894C216.456 261.895 216.452 261.925 216.452 261.959C216.452 262.194 216.605 262.326 216.654 262.364C216.714 262.409 216.771 262.432 216.796 262.442C216.812 262.448 216.827 262.453 216.842 262.458C216.881 262.469 216.917 262.477 216.943 262.481C217.021 262.496 217.122 262.507 217.233 262.518C217.46 262.538 217.788 262.557 218.205 262.575C219.043 262.61 220.268 262.641 221.825 262.669C224.939 262.725 229.394 262.767 234.76 262.796C245.493 262.854 259.877 262.859 274.482 262.822C289.088 262.784 303.917 262.704 315.541 262.589C327.145 262.474 335.594 262.325 337.404 262.147C345.714 261.331 351.903 260.156 356.975 258.213C362.058 256.266 366 253.555 369.828 249.698C376.928 242.545 381.291 233.465 385.271 217.73C387.1 210.501 397.665 151.978 399.149 140.866C399.839 135.701 400.184 129.135 400.186 123.158C400.188 117.195 399.848 111.759 399.149 108.878C397.137 100.595 392.133 94.1557 385.168 90.9691C380.722 88.9351 372.561 87.0826 364.645 86.2861C362.51 86.0712 351.758 85.9087 333.132 85.7989C314.485 85.6889 287.909 85.6319 254.087 85.6319C212.682 85.6319 186.675 85.5921 171.02 85.4745C163.192 85.4158 157.956 85.3376 154.679 85.2355C153.039 85.1843 151.898 85.1274 151.17 85.0648C150.933 85.0444 150.746 85.0239 150.604 85.0039C150.627 84.8507 150.657 84.6557 150.694 84.4202C150.79 83.8128 150.932 82.9418 151.114 81.8357C151.479 79.6238 152.007 76.4751 152.659 72.6219C153.962 64.9156 155.759 54.3933 157.736 42.9152C159.714 31.4365 161.511 20.932 162.815 13.2546C163.466 9.41605 163.994 6.28385 164.36 4.08992C164.542 2.99308 164.684 2.13002 164.781 1.53022C164.822 1.27541 164.854 1.06719 164.879 0.908338C164.952 0.902616 165.038 0.896783 165.137 0.890908C165.574 0.865026 166.227 0.840271 167.087 0.816796C168.805 0.769894 171.328 0.72857 174.546 0.692598C180.981 0.620664 190.184 0.570225 201.254 0.53906C223.392 0.476732 252.991 0.491509 282.831 0.565505C312.672 0.639501 342.753 0.772713 365.856 0.947242C377.408 1.03451 387.214 1.1321 394.373 1.23776C401.556 1.34378 406.029 1.45786 406.959 1.57315C450.432 6.96328 474.454 20.3533 487.797 46.3742C498.838 67.9041 502.085 96.4957 497.46 132.086C496.045 142.978 481.192 222.027 478.457 233.217C469.912 268.195 457.623 292.191 438.741 310.883C415.797 333.595 385.406 344.738 338.843 347.397C332.843 347.74 299.622 348.025 265.006 348.03L202.083 348.039L201.685 348.039L201.596 348.427L201.272 349.833C201.089 350.624 196.905 374.829 191.977 403.59L183.081 455.499L134.892 455.5C120.704 455.5 108.553 455.442 99.9503 455.343C95.6484 455.293 92.236 455.233 89.9001 455.166C88.7313 455.132 87.8368 455.096 87.2366 455.058C87.0858 455.049 86.9559 455.04 86.8464 455.031C86.8753 454.848 86.9131 454.615 86.9593 454.333C87.0804 453.594 87.2591 452.522 87.4893 451.153C87.9495 448.414 88.6152 444.491 89.4368 439.673C91.0799 430.036 93.3463 416.822 95.8393 402.355C98.3324 387.888 100.599 374.673 102.242 365.036C103.064 360.217 103.73 356.293 104.19 353.554C104.42 352.184 104.599 351.11 104.721 350.369C104.781 349.999 104.828 349.71 104.859 349.509C104.875 349.408 104.887 349.328 104.895 349.27C104.9 349.241 104.903 349.215 104.906 349.194L104.906 349.192C104.907 349.18 104.912 349.14 104.912 349.102C104.912 348.914 104.813 348.79 104.756 348.734C104.699 348.679 104.642 348.65 104.614 348.636C104.555 348.607 104.498 348.592 104.466 348.585C104.394 348.568 104.308 348.555 104.22 348.545C104.038 348.523 103.778 348.503 103.449 348.484C102.788 348.446 101.815 348.409 100.559 348.375C98.0436 348.307 94.3747 348.247 89.7548 348.197C80.5142 348.098 67.4607 348.039 52.2062 348.039C37.8501 348.039 24.7996 348.004 15.3385 347.948C10.6078 347.92 6.77546 347.887 4.12638 347.85C2.80143 347.831 1.77458 347.812 1.07994 347.792C0.875751 347.786 0.701717 347.78 0.558095 347.774C0.579053 347.618 0.605266 347.427 0.636543 347.202C0.728535 346.542 0.863618 345.599 1.03579 344.414C1.38011 342.042 1.87232 338.702 2.46379 334.717C3.64671 326.746 5.22642 316.195 6.81348 305.652C8.40054 295.108 9.9949 284.572 11.2071 276.63C11.8133 272.66 12.3238 269.338 12.6901 266.989C12.8732 265.814 13.0202 264.883 13.125 264.236C13.1774 263.912 13.219 263.66 13.2493 263.486C13.2524 263.468 13.2553 263.45 13.2582 263.434C13.3248 263.419 13.4133 263.402 13.5277 263.384C13.9139 263.324 14.5157 263.268 15.3825 263.218C17.1114 263.116 19.8393 263.038 23.88 262.979C31.9584 262.861 45.253 262.82 66.2255 262.82H119.361H119.775ZM164.598 0.938538C164.598 0.938635 164.598 0.938602 164.599 0.938451L164.598 0.938538Z" stroke="#00C1DE"/>
<path fill-rule="evenodd" clip-rule="evenodd" d="M338.434 84.4753C338.434 84.8139 335.198 103.873 331.244 126.83C327.289 149.787 324.054 168.922 324.054 169.351C324.054 169.973 345.277 170.132 428.087 170.132C495.73 170.132 534.386 170.36 538.595 170.784C546.487 171.578 554.586 173.423 558.96 175.424C565.767 178.538 570.682 184.842 572.663 192.996C574.031 198.629 574.026 214.525 572.654 224.8C571.171 235.901 560.609 294.404 558.786 301.607C554.815 317.304 550.483 326.284 543.473 333.345C535.904 340.97 527.941 344.021 511.355 345.649C504.228 346.349 390.952 346.64 390.952 345.959C390.952 345.759 395.032 321.908 400.018 292.955C405.004 264.001 409.084 239.983 409.084 239.581C409.084 239.028 397.27 238.889 360.485 239.01L311.887 239.17L303.068 290.402C298.217 318.579 294.049 342.688 293.805 343.977L293.361 346.32H240.226C198.282 346.32 187.032 346.484 186.814 347.101C186.579 347.762 174 431.335 174 432.229C174 432.4 197.493 432.539 226.206 432.539C256.713 432.539 278.412 432.773 278.412 433.102C278.412 433.411 274.333 457.337 269.347 486.27C264.36 515.204 260.281 539.13 260.281 539.439C260.281 539.768 280.514 540.001 308.892 540L357.503 539.999L366.469 487.675C371.401 458.897 375.581 434.718 375.759 433.945L376.083 432.539L439.006 432.53C473.614 432.525 506.853 432.24 512.871 431.896C559.503 429.234 590.03 418.067 613.092 395.239C632.06 376.462 644.383 352.373 652.943 317.336C655.681 306.128 670.538 227.062 671.956 216.151C676.588 180.505 673.346 151.8 662.242 130.146C648.791 103.915 624.573 90.4769 581.02 85.0769C573.301 84.1198 338.434 83.5375 338.434 84.4753Z" fill="#00C1DE"/>
</svg>
