<svg width="24" height="24" viewBox="0 0 24 24" fill="none" xmlns="http://www.w3.org/2000/svg">
<path d="M16.719 14.759L14.22 17.26L11.85 19.63L11.388 20.096C10.02 21.461 8.091 21.926 6.341 21.493C6.014 22.917 4.737 23.983 3.211 23.983C1.438 23.983 0 22.547 0 20.772C0 19.254 1.055 17.983 2.469 17.649C2.023 15.889 2.485 13.944 3.865 12.569L4.044 12.389L6.414 14.759L6.23 14.94C5.461 15.719 5.461 16.964 6.23 17.729C7.001 18.509 8.252 18.509 9.017 17.729L9.482 17.264L11.849 14.893L14.351 12.387L16.719 14.759ZM17.643 21.411C15.821 21.974 13.758 21.531 12.315 20.093L12.135 19.908L14.5 17.539L14.68 17.723C15.451 18.491 16.698 18.491 17.467 17.723C18.232 16.958 18.236 15.713 17.463 14.942L16.997 14.477L14.632 12.107L12.13 9.604L14.5 7.235L16.999 9.74L19.366 12.11L19.83 12.574C21.195 13.934 21.676 15.852 21.241 17.595C22.801 17.819 24 19.155 24 20.775C24 22.559 22.561 23.985 20.791 23.985C19.246 23.985 17.94 22.889 17.656 21.42L17.643 21.411ZM6.975 9.461L9.483 6.956L11.853 4.587L12.315 4.126C13.74 2.7 15.772 2.251 17.58 2.79C17.792 1.229 19.135 0.0149994 20.759 0.0149994C22.531 0.0149994 23.97 1.452 23.97 3.224C23.97 4.855 22.754 6.202 21.18 6.41C21.699 8.209 21.248 10.226 19.83 11.644L19.648 11.828L17.279 9.459L17.463 9.275C18.232 8.505 18.232 7.259 17.463 6.492C16.697 5.726 15.452 5.724 14.682 6.495L14.22 6.956L11.85 9.325L9.345 11.827L6.975 9.461ZM4.322 12.108L3.861 11.646C2.43 10.215 1.986 8.17 2.529 6.358C1.1 6.029 0.03 4.754 0.03 3.224C0.03 1.454 1.47 0.0149994 3.24 0.0149994C4.836 0.0149994 6.16 1.181 6.41 2.706C8.14 2.301 10.036 2.771 11.389 4.121L11.573 4.306L9.203 6.676L9.02 6.495C8.25 5.73 7.004 5.73 6.235 6.495C5.464 7.276 5.465 8.52 6.23 9.285L6.695 9.751L9.065 12.12L11.57 14.625L9.203 16.995L6.693 14.49L4.322 12.12V12.108Z" fill="#5091CD"/>
</svg>
