<svg width="64" height="64" viewBox="0 0 64 64" fill="none" xmlns="http://www.w3.org/2000/svg">
<path d="M31.3064 47.3333H47.093C46.853 47.5466 46.613 47.7333 46.373 47.9467L34.9863 56.4799C31.2263 59.2799 25.093 59.2799 21.3064 56.4799L9.89303 47.9467C7.38636 46.08 5.33301 41.9466 5.33301 38.8266V19.0666C5.33301 15.8133 7.81303 12.2133 10.853 11.0666L24.133 6.07996C26.3197 5.25329 29.9464 5.25329 32.133 6.07996L45.3864 11.0666C47.9197 12.0266 50.0797 14.6933 50.7463 17.4133H31.2797C30.693 17.4133 30.1597 17.44 29.653 17.44C24.7197 17.7333 23.4397 19.5199 23.4397 25.1466V39.6266C23.4663 45.7599 25.0397 47.3333 31.3064 47.3333Z" stroke="#687992" stroke-width="3" stroke-linecap="round" stroke-linejoin="round"/>
<path d="M23.4668 29.92H58.6668" stroke="#687992" stroke-width="3" stroke-miterlimit="10" stroke-linecap="round" stroke-linejoin="round"/>
<path d="M58.6668 25.1201V39.92C58.6135 45.84 56.9868 47.3067 50.8268 47.3067H31.3068C25.0401 47.3067 23.4668 45.7333 23.4668 39.5733V25.0934C23.4668 19.4934 24.7468 17.7067 29.6801 17.3867C30.1868 17.3867 30.7201 17.36 31.3068 17.36H50.8268C57.0934 17.3867 58.6668 18.9334 58.6668 25.1201Z" stroke="#687992" stroke-width="3" stroke-linecap="round" stroke-linejoin="round"/>
<path d="M30.1865 40.6934H33.7332" stroke="#687992" stroke-width="3" stroke-miterlimit="10" stroke-linecap="round" stroke-linejoin="round"/>
<path d="M39.333 40.6934H48.053" stroke="#687992" stroke-width="3" stroke-miterlimit="10" stroke-linecap="round" stroke-linejoin="round"/>
</svg>
