<?xml version="1.0" encoding="utf-8"?>
<!-- Generator: Adobe Illustrator 26.1.0, SVG Export Plug-In . SVG Version: 6.00 Build 0)  -->
<svg version="1.1" id="Layer_1" xmlns="http://www.w3.org/2000/svg" xmlns:xlink="http://www.w3.org/1999/xlink" x="0px" y="0px"
	 viewBox="0 0 148 48" style="enable-background:new 0 0 148 48;" xml:space="preserve">
<style type="text/css">
	.st0{clip-path:url(#SVGID_00000007425421813255677440000004879244252141324987_);fill:#1226AA;}
	.st1{clip-path:url(#SVGID_00000007425421813255677440000004879244252141324987_);fill:#FFFFFF;}
	.st2{fill:#1226AA;}
	.st3{clip-path:url(#SVGID_00000000209686131274073340000016316689268216843957_);fill:#1226AA;}
	.st4{clip-path:url(#SVGID_00000093163278604206487010000016697683717759381377_);fill:#E7EAF3;}
	.st5{clip-path:url(#SVGID_00000093163278604206487010000016697683717759381377_);fill:#1226AA;}
	.st6{clip-path:url(#SVGID_00000165953633514334447610000004281646876448053383_);fill:#1226AA;}
</style>
<g>
	<g>
		<defs>
			<rect id="SVGID_00000125571387558782095030000006013122112265888442_" x="4.4" y="7.8" width="139.8" height="32"/>
		</defs>
		<clipPath id="SVGID_00000147220259185845099120000016910497022549296824_">
			<use xlink:href="#SVGID_00000125571387558782095030000006013122112265888442_"  style="overflow:visible;"/>
		</clipPath>
		<path style="clip-path:url(#SVGID_00000147220259185845099120000016910497022549296824_);fill:#E7EAF3;" d="M36.3,17.7
			c0-3.9-0.3-5.9-2.1-7.8c-1.9-1.9-3.9-2.1-7.8-2.1H14.4c-3.9,0-5.9,0.3-7.8,2.1c-1.9,1.9-2.1,3.9-2.1,7.8v12.1
			c0,3.9,0.3,5.9,2.1,7.8s3.9,2.1,7.8,2.1h12.1c3.9,0,5.9-0.3,7.8-2.1s2.1-3.9,2.1-7.8V17.7z"/>
		<path style="clip-path:url(#SVGID_00000147220259185845099120000016910497022549296824_);fill:#1226AA;" d="M29.5,16.1
			c-0.7-0.9-2-1.4-4-1.4h-4.9h-1.4h-2.6l-0.6,3.5h2.6h2.8h2.6c0.7,0,1.2,0.1,1.5,0.2c0.3,0.1,0.5,0.4,0.6,0.7c0.1,0.3,0.1,0.8,0,1.5
			l-0.4,2.5c-0.1,0.7-0.3,1.2-0.5,1.5c-0.2,0.3-0.5,0.5-0.8,0.6c-0.3,0.1-0.9,0.2-1.6,0.2h-4l0.8-4.4h-3.9l-0.8,4.4h-4.3L10,28.9
			h4.2l-0.8,4.4h3.9l0.8-4.4h4.9c1.3,0,2.4-0.2,3.3-0.5c0.9-0.4,1.6-1,2.1-1.8c0.5-0.8,0.9-1.9,1.2-3.3l0.5-2.8
			C30.5,18.5,30.3,17.1,29.5,16.1"/>
		<path style="clip-path:url(#SVGID_00000147220259185845099120000016910497022549296824_);fill:#1226AA;" d="M76.2,28.3l1.3-6.9
			l1.2-2.8H82l-2.5,14.6h-3.5L76.2,28.3z M69.7,33.4c-0.7,0-1.4-0.2-2-0.5c-0.6-0.4-1-1-1.2-1.9c-0.2-0.9-0.2-2.1,0.1-3.6l0.4-2
			c0.3-1.8,0.8-3.2,1.3-4.3c0.6-1,1.2-1.8,2-2.2c0.8-0.4,1.7-0.6,2.7-0.6c1.1,0,2.1,0.2,3.1,0.6c1,0.4,1.8,0.9,2.7,1.5L77.2,23
			c-0.8-0.5-1.5-0.9-2-1.1c-0.5-0.2-1-0.3-1.6-0.3c-0.5,0-1,0.2-1.3,0.5c-0.4,0.3-0.6,0.8-0.9,1.5C71.2,24.1,71,25,70.8,26l-0.2,1.6
			c-0.1,0.6-0.2,1.1-0.2,1.4c0,0.3,0.1,0.5,0.2,0.6c0.1,0.1,0.3,0.2,0.5,0.2c0.3,0,0.7-0.2,1.3-0.6c0.6-0.4,1.2-1,1.9-1.9
			c0.7-0.8,1.5-1.9,2.2-3.1c0.5-0.8,1-1.7,1.5-2.8l0.7,3.7c-0.2,0.4-0.5,0.9-0.7,1.3c-0.2,0.4-0.5,0.8-0.7,1.1
			c-0.8,1.3-1.6,2.4-2.5,3.3c-0.8,0.9-1.7,1.5-2.5,2C71.4,33.2,70.5,33.4,69.7,33.4"/>
		<path style="clip-path:url(#SVGID_00000147220259185845099120000016910497022549296824_);fill:#1226AA;" d="M87.9,29.2h2l-0.4,3
			h-2L87.9,29.2z M84.2,18.6h3.9l0.1,10.9l-0.1,2.8h-3.3L84.2,18.6z M84.9,38.1c-0.5,0-1.2,0-1.9-0.1c-0.7-0.1-1.4-0.2-2.2-0.3
			l0.6-3.1c0.7,0.1,1.3,0.2,1.9,0.2c0.6,0,1.1,0.1,1.5,0.1H85c0.3,0,0.6-0.1,0.9-0.2c0.2-0.1,0.5-0.3,0.8-0.7
			c0.3-0.3,0.7-0.8,1.1-1.5l3.8-7.2c0.6-0.9,1-1.8,1.2-2.5c0.3-0.7,0.4-1.5,0.5-2.1c0.1-0.7,0-1.4-0.1-2h3.7
			c0.2,0.9,0.2,1.9,0.1,2.9c-0.1,1-0.4,2.1-0.8,3.2c-0.3,0.7-0.7,1.4-1.2,2.2l-3.2,5.8c-1,1.5-1.8,2.7-2.4,3.4
			c-0.6,0.7-1.3,1.3-1.9,1.6C86.7,37.9,85.9,38.1,84.9,38.1"/>
		<path style="clip-path:url(#SVGID_00000147220259185845099120000016910497022549296824_);fill:#1226AA;" d="M106.5,22.4h0.2
			c0.5,0,0.9-0.1,1.1-0.2c0.3-0.1,0.5-0.4,0.7-0.7c0.2-0.3,0.3-0.8,0.4-1.3l0.1-0.7c0.1-0.5,0-0.9-0.2-1.2c-0.2-0.3-0.6-0.4-1.3-0.4
			h-5.1l-1.7-3.4h7.9c1.6,0,2.9,0.4,3.7,1.1c0.8,0.7,1.1,1.8,0.9,3.2l-0.1,0.5c-0.2,1.1-0.5,1.9-0.9,2.6c-0.4,0.7-1,1.2-1.7,1.6
			c-0.7,0.4-1.7,0.5-2.7,0.5h-1.9L106.5,22.4z M100.8,22.4h9.1l-0.6,3.2h-9.1L100.8,22.4z M100.6,29.8h5.3c0.7,0,1.3-0.2,1.7-0.5
			c0.4-0.3,0.7-0.8,0.8-1.4l0.1-0.6c0.1-0.4,0.1-0.8,0-1c-0.1-0.2-0.3-0.4-0.5-0.6c-0.3-0.1-0.7-0.2-1.2-0.2h-0.3l-0.3-1.5h2.1
			c1.6,0,2.8,0.3,3.5,1c0.7,0.6,1,1.6,0.7,3l-0.1,0.6c-0.2,1.1-0.5,2-1,2.7c-0.5,0.7-1.1,1.2-2,1.5s-2,0.5-3.4,0.5H100L100.6,29.8z
			 M100.7,14.5h4l-3.2,18.7h-4L100.7,14.5z"/>
		<path style="clip-path:url(#SVGID_00000147220259185845099120000016910497022549296824_);fill:#1226AA;" d="M129.9,18.6l-2.5,14.6
			h-3.5l0.5-6.1l2.4-8.5H129.9z M126.1,25.5c-0.2,0.4-0.4,0.7-0.5,1.1c-0.2,0.3-0.4,0.7-0.6,1c-0.9,1.6-1.7,2.8-2.5,3.6
			c-0.8,0.9-1.6,1.5-2.3,1.8c-0.8,0.4-1.6,0.5-2.5,0.5c-0.8,0-1.5-0.2-2.1-0.5c-0.5-0.4-0.9-0.9-1.1-1.7c-0.2-0.8-0.2-1.8,0.1-3
			l1.6-9.7h4l-1.7,9.7c-0.1,0.4-0.1,0.7-0.1,0.9c0,0.2,0.1,0.4,0.2,0.5c0.1,0.1,0.2,0.1,0.4,0.1c0.3,0,0.7-0.2,1.2-0.7
			c0.6-0.5,1.2-1.2,2-2.2c0.8-1,1.6-2.4,2.5-4c0.2-0.3,0.9-1.7,2.1-4.2L126.1,25.5z"/>
	</g>
	<polygon class="st2" points="133.4,14.5 137.5,14.4 134.2,33.2 130.2,33.2 	"/>
	<polygon class="st2" points="140.2,14.5 137,33.2 141,33.2 144.3,14.4 	"/>
	<g>
		<defs>
			<rect id="SVGID_00000157999267148317696340000006363716597819827088_" x="4.4" y="7.8" width="139.8" height="32"/>
		</defs>
		<clipPath id="SVGID_00000148643617711674342490000001153044138597749162_">
			<use xlink:href="#SVGID_00000157999267148317696340000006363716597819827088_"  style="overflow:visible;"/>
		</clipPath>
		<path style="clip-path:url(#SVGID_00000148643617711674342490000001153044138597749162_);fill:#1226AA;" d="M55.6,18l1-3.5h-4.4
			L51.6,18H55.6z M54.4,25.3l0.8-4.4h-4l-0.8,4.4H46l-0.5,3.5h4.3L49,33.2h4l0.8-4.4 M65.2,15.9c-0.7-1-2.1-1.4-4-1.4h-4.9L55.6,18
			h4c0.7,0,1.2,0.1,1.5,0.2c0.3,0.1,0.5,0.4,0.6,0.7c0.1,0.3,0.1,0.9,0,1.5L61.3,23c-0.1,0.7-0.3,1.2-0.5,1.5
			c-0.2,0.3-0.5,0.5-0.8,0.6c-0.4,0.1-0.9,0.2-1.6,0.2h-4l-0.6,3.5h4.9c1.3,0,2.5-0.2,3.3-0.6c0.9-0.4,1.6-1,2.1-1.8
			c0.5-0.8,0.9-1.9,1.2-3.4l0.5-2.8C66.1,18.3,65.9,16.9,65.2,15.9"/>
	</g>
</g>
</svg>
