<svg width="64" height="64" viewBox="0 0 64 64" fill="none" xmlns="http://www.w3.org/2000/svg">
<path d="M47.3374 18.7999C46.6974 18.6932 46.0307 18.6666 45.3374 18.6666H18.6707C17.9241 18.6666 17.2041 18.7199 16.5107 18.8266C16.8841 18.0799 17.4174 17.3867 18.0574 16.7467L26.7241 8.05331C30.3774 4.42665 36.2974 4.42665 39.9507 8.05331L44.6174 12.7732C46.3241 14.4532 47.2307 16.5866 47.3374 18.7999Z" stroke="#687992" stroke-width="3" stroke-linecap="round" stroke-linejoin="round"/>
<path d="M24.0003 50.6667C24.0003 52.6667 23.4403 54.56 22.4537 56.16C20.6137 59.2533 17.227 61.3333 13.3337 61.3333C9.44033 61.3333 6.05366 59.2533 4.21366 56.16C3.22699 54.56 2.66699 52.6667 2.66699 50.6667C2.66699 44.7733 7.44033 40 13.3337 40C19.227 40 24.0003 44.7733 24.0003 50.6667Z" stroke="#687992" stroke-width="3" stroke-miterlimit="10" stroke-linecap="round" stroke-linejoin="round"/>
<path d="M17.3119 50.612H9.36523" stroke="#687992" stroke-width="3" stroke-miterlimit="10" stroke-linecap="round" stroke-linejoin="round"/>
<path d="M13.334 46.7188V54.6921" stroke="#687992" stroke-width="3" stroke-miterlimit="10" stroke-linecap="round" stroke-linejoin="round"/>
<path d="M58.6663 32V45.3334C58.6663 53.3334 53.333 58.6667 45.333 58.6667H20.3463C21.173 57.9734 21.893 57.12 22.453 56.16C23.4397 54.56 23.9997 52.6667 23.9997 50.6667C23.9997 44.7734 19.2263 40 13.333 40C10.133 40 7.27967 41.4133 5.33301 43.6266V32C5.33301 24.7467 9.70634 19.68 16.5063 18.8267C17.1997 18.72 17.9197 18.6667 18.6663 18.6667H45.333C46.0263 18.6667 46.693 18.6933 47.333 18.8C54.213 19.6 58.6663 24.6934 58.6663 32Z" stroke="#687992" stroke-width="3" stroke-linecap="round" stroke-linejoin="round"/>
<path d="M58.6663 33.3333H50.6663C47.733 33.3333 45.333 35.7333 45.333 38.6666C45.333 41.6 47.733 44 50.6663 44H58.6663" stroke="#687992" stroke-width="3" stroke-linecap="round" stroke-linejoin="round"/>
</svg>
