<?xml version="1.0" encoding="utf-8"?>
<!-- Generator: Adobe Illustrator 16.0.0, SVG Export Plug-In . SVG Version: 6.00 Build 0)  -->
<!DOCTYPE svg PUBLIC "-//W3C//DTD SVG 1.1//EN" "http://www.w3.org/Graphics/SVG/1.1/DTD/svg11.dtd">
<svg version="1.1" xmlns="http://www.w3.org/2000/svg" xmlns:xlink="http://www.w3.org/1999/xlink" x="0px" y="0px" width="674px"
	 height="540px" viewBox="0 0 674 540" enable-background="new 0 0 674 540" xml:space="preserve">
<g id="Layer_2">
</g>
<g id="Layer_1">
	<path fill="none" stroke="#1226AA" d="M123.869,262.719l0.075-0.398l0.436-2.296c0.24-1.268,4.326-24.899,9.078-52.506
		l8.572-49.796l47.209-0.156c18.024-0.06,29.926-0.055,37.321,0.033c3.698,0.043,6.265,0.106,7.901,0.194
		c0.821,0.043,1.397,0.091,1.761,0.144c0.036,0.005,0.069,0.01,0.1,0.015c-0.029,0.196-0.072,0.464-0.128,0.804
		c-0.118,0.735-0.293,1.796-0.519,3.148c-0.451,2.704-1.103,6.569-1.908,11.309c-1.609,9.479-3.83,22.455-6.273,36.641
		c-2.443,14.185-4.664,27.122-6.274,36.536c-0.806,4.706-1.458,8.534-1.909,11.196c-0.225,1.331-0.4,2.371-0.52,3.084
		c-0.059,0.356-0.104,0.633-0.136,0.823c-0.015,0.095-0.026,0.169-0.034,0.222c-0.005,0.027-0.008,0.05-0.011,0.068
		c-0.001,0.009-0.003,0.018-0.004,0.028c0,0.002-0.004,0.031-0.004,0.064c0,0.231,0.15,0.36,0.198,0.397
		c0.059,0.044,0.115,0.067,0.139,0.076c0.017,0.006,0.031,0.011,0.045,0.016c0.038,0.01,0.074,0.019,0.1,0.023
		c0.077,0.014,0.176,0.025,0.283,0.036c0.224,0.02,0.545,0.039,0.953,0.056c0.821,0.034,2.021,0.065,3.548,0.092
		c3.052,0.056,7.417,0.096,12.674,0.125c10.518,0.057,24.612,0.061,38.925,0.026c14.312-0.038,28.843-0.116,40.233-0.229
		c11.37-0.113,19.649-0.258,21.423-0.432c8.143-0.8,14.208-1.951,19.178-3.855c4.98-1.908,8.844-4.564,12.595-8.344
		c6.957-7.009,11.232-15.907,15.133-31.326c1.791-7.083,12.145-64.43,13.599-75.318c0.676-5.061,1.014-11.496,1.016-17.352
		c0.002-5.844-0.331-11.17-1.016-13.993c-1.972-8.117-6.875-14.426-13.7-17.549c-4.356-1.993-12.354-3.809-20.11-4.589
		c-2.092-0.21-12.628-0.37-30.88-0.478c-18.271-0.107-44.313-0.164-77.455-0.164c-40.573,0-66.057-0.039-81.398-0.154
		c-7.67-0.058-12.801-0.135-16.011-0.235c-1.608-0.049-2.726-0.105-3.439-0.167c-0.231-0.02-0.415-0.04-0.555-0.06
		c0.023-0.15,0.053-0.341,0.088-0.572c0.095-0.595,0.233-1.448,0.412-2.532c0.358-2.167,0.875-5.253,1.515-9.029
		c1.276-7.551,3.038-17.862,4.975-29.109c1.938-11.248,3.7-21.541,4.976-29.064c0.638-3.761,1.156-6.831,1.514-8.98
		c0.179-1.075,0.318-1.92,0.414-2.508c0.04-0.25,0.071-0.454,0.096-0.61c0.072-0.005,0.156-0.011,0.252-0.017
		c0.429-0.025,1.068-0.05,1.911-0.073c1.683-0.046,4.156-0.087,7.309-0.122c6.305-0.07,15.323-0.12,26.171-0.15
		c21.693-0.061,50.697-0.046,79.938,0.026c29.241,0.073,58.717,0.203,81.356,0.375c11.319,0.085,20.928,0.181,27.943,0.284
		c7.038,0.104,11.422,0.216,12.333,0.329c42.599,5.282,66.138,18.402,79.213,43.9c10.818,21.098,14,49.114,9.469,83.989
		c-1.387,10.673-15.941,88.133-18.621,99.098c-8.373,34.274-20.415,57.789-38.918,76.105c-22.482,22.256-52.263,33.175-97.89,35.779
		c-5.88,0.337-38.433,0.616-72.353,0.62l-61.658,0.01h-0.39l-0.088,0.38l-0.317,1.378c-0.179,0.774-4.279,24.493-9.108,52.676
		l-8.716,50.866h-47.22c-13.903,0-25.811-0.056-34.24-0.153c-4.215-0.049-7.559-0.107-9.848-0.174
		c-1.145-0.033-2.021-0.068-2.609-0.105c-0.148-0.009-0.275-0.018-0.383-0.026c0.028-0.18,0.065-0.407,0.111-0.684
		c0.119-0.725,0.294-1.774,0.519-3.116c0.451-2.685,1.104-6.528,1.909-11.25c1.61-9.442,3.831-22.391,6.274-36.567
		c2.442-14.176,4.664-27.126,6.274-36.568c0.806-4.723,1.458-8.567,1.908-11.251c0.226-1.344,0.402-2.396,0.521-3.121
		c0.059-0.363,0.105-0.646,0.136-0.844c0.015-0.099,0.027-0.177,0.035-0.234c0.005-0.027,0.007-0.054,0.011-0.074v-0.002
		c0.001-0.012,0.006-0.05,0.006-0.088c0-0.184-0.098-0.306-0.153-0.36c-0.055-0.054-0.111-0.082-0.14-0.097
		c-0.057-0.027-0.113-0.043-0.145-0.05c-0.07-0.016-0.154-0.029-0.24-0.039c-0.179-0.021-0.434-0.041-0.756-0.06
		c-0.648-0.038-1.602-0.073-2.833-0.106c-2.465-0.067-6.059-0.126-10.586-0.175c-9.055-0.098-21.846-0.154-36.794-0.154
		c-14.067,0-26.855-0.035-36.126-0.089c-4.635-0.028-8.391-0.061-10.987-0.097c-1.298-0.019-2.305-0.037-2.985-0.057
		c-0.2-0.006-0.371-0.013-0.512-0.019c0.021-0.152,0.046-0.34,0.077-0.56c0.09-0.647,0.223-1.57,0.391-2.732
		c0.337-2.324,0.82-5.597,1.399-9.502c1.159-7.811,2.707-18.149,4.262-28.48c1.555-10.333,3.118-20.656,4.305-28.438
		c0.594-3.891,1.094-7.146,1.453-9.447c0.179-1.152,0.323-2.064,0.426-2.698c0.051-0.317,0.092-0.564,0.122-0.735
		c0.003-0.017,0.006-0.034,0.008-0.049c0.065-0.016,0.152-0.033,0.264-0.05c0.378-0.059,0.968-0.113,1.817-0.163
		c1.694-0.1,4.367-0.176,8.327-0.234c7.917-0.117,20.943-0.157,41.495-0.157h52.067H123.869z M167.79,6.103c0,0,0,0,0.002,0H167.79z
		"/>
	<path fill="#1226AA" d="M338.131,87.96c0,0.332-3.17,19.008-7.045,41.503s-7.046,41.246-7.046,41.666
		c0,0.61,20.797,0.765,101.942,0.765c66.283,0,104.161,0.224,108.286,0.639c7.733,0.778,15.67,2.585,19.956,4.546
		c6.669,3.052,11.485,9.229,13.428,17.219c1.34,5.52,1.335,21.096-0.009,31.164c-1.454,10.878-11.803,68.206-13.59,75.263
		c-3.891,15.382-8.136,24.181-15.006,31.101c-7.416,7.472-15.219,10.461-31.472,12.056c-6.983,0.687-117.982,0.972-117.982,0.304
		c0-0.195,3.998-23.566,8.883-51.938c4.887-28.373,8.885-51.908,8.885-52.301c0-0.542-11.577-0.678-47.622-0.56l-47.621,0.157
		l-8.642,50.202c-4.754,27.61-8.838,51.234-9.077,52.497l-0.435,2.297h-52.066c-41.102,0-52.125,0.161-52.338,0.766
		c-0.23,0.646-12.557,82.54-12.557,83.417c0,0.167,23.021,0.303,51.157,0.303c29.894,0,51.156,0.229,51.156,0.552
		c0,0.303-3.997,23.748-8.883,52.099c-4.888,28.353-8.884,51.798-8.884,52.102c0,0.321,19.826,0.55,47.633,0.549l47.635-0.001
		l8.785-51.272c4.834-28.198,8.93-51.893,9.104-52.649l0.317-1.378l61.658-0.009c33.912-0.005,66.483-0.284,72.38-0.622
		c45.694-2.607,75.608-13.551,98.206-35.919c18.587-18.399,30.662-42.005,39.051-76.337c2.682-10.983,17.241-88.459,18.63-99.151
		c4.539-34.929,1.362-63.057-9.519-84.276c-13.181-25.704-36.911-38.872-79.59-44.163C568.276,87.611,338.131,87.041,338.131,87.96z
		"/>
</g>
</svg>
