<svg width="24" height="24" viewBox="0 0 24 24" fill="none" xmlns="http://www.w3.org/2000/svg">
<path d="M15.2995 5.55011C14.539 5.55 13.8088 5.84866 13.2664 6.38175C12.724 6.91484 12.4126 7.63968 12.3995 8.40011L12.3715 9.97511C12.3699 10.0597 12.3504 10.1429 12.3143 10.2194C12.2782 10.2959 12.2264 10.3639 12.1622 10.419C12.098 10.474 12.0228 10.5149 11.9417 10.5389C11.8606 10.5629 11.7754 10.5694 11.6915 10.5581L10.1305 10.3461C7.93456 9.99309 5.88458 9.02186 4.22053 7.54611C3.62053 10.8561 4.79053 13.1461 7.60353 14.9181L9.35053 16.0181C9.43354 16.0703 9.5025 16.142 9.55138 16.227C9.60026 16.312 9.62757 16.4076 9.63093 16.5056C9.63428 16.6036 9.61358 16.7009 9.57062 16.789C9.52767 16.8771 9.46378 16.9534 9.38453 17.0111L7.79253 18.1701C8.65861 18.2352 9.52944 18.1912 10.3845 18.0391C15.0995 17.1001 18.2395 13.5471 18.2395 7.69111C18.0485 7.06337 17.6582 6.5149 17.1278 6.12862C16.5974 5.74235 15.9556 5.53928 15.2995 5.55011ZM10.3995 8.36011C10.417 7.39616 10.7184 6.45878 11.2661 5.66534C11.8138 4.87189 12.5833 4.25763 13.4784 3.89948C14.3736 3.54133 15.3544 3.45519 16.2983 3.65186C17.2421 3.84853 18.107 4.31926 18.7845 5.00511C19.7232 5.12489 20.6731 4.89532 21.4535 4.36011C21.3317 5.55402 20.9145 6.6988 20.2395 7.69111C20.2395 15.3331 15.5395 19.0491 10.7765 20.0001C7.50853 20.6521 2.75653 19.5811 1.39453 18.1591C3.20722 18.0541 4.96959 17.5231 6.53853 16.6091C5.15953 15.7001 -0.329469 12.4701 3.27753 3.78611C4.65243 5.51847 6.41698 6.90167 8.42753 7.82311C9.0487 8.11637 9.71648 8.29846 10.4005 8.36111L10.3995 8.36011Z" fill="white"/>
</svg>
