<?xml version="1.0" encoding="utf-8"?>
<!-- Generator: Adobe Illustrator 26.1.0, SVG Export Plug-In . SVG Version: 6.00 Build 0)  -->
<svg version="1.1" id="Layer_1" xmlns="http://www.w3.org/2000/svg" xmlns:xlink="http://www.w3.org/1999/xlink" x="0px" y="0px"
	 viewBox="0 0 2000 2000" style="enable-background:new 0 0 2000 2000;" xml:space="preserve">
<style type="text/css">
	.st0{fill:#55BFDA;stroke:#000000;stroke-width:0.25;stroke-miterlimit:10;}
	.st1{fill:#112DA3;stroke:#000000;stroke-width:0.25;stroke-miterlimit:10;}
	.st2{fill:#D3E0F3;stroke:#000000;stroke-width:0.25;stroke-miterlimit:10;}
	.st3{fill:#EDF2FA;stroke:#000000;stroke-width:0.25;stroke-miterlimit:10;}
	.st4{fill:#ECFAF6;stroke:#000000;stroke-width:0.25;stroke-miterlimit:10;}
	.st5{fill:#FEFEFE;stroke:#000000;stroke-width:0.25;stroke-miterlimit:10;}
	.st6{fill:#D5E0F1;stroke:#000000;stroke-width:0.25;stroke-miterlimit:10;}
	.st7{fill:#112DA3;}
</style>
<g>
	<path class="st0" d="M1377.4,1783.8c-8.1-6.1-18.1-4.9-27.2-7.1c-64.2-15.3-119.1-46.4-162.8-96.1c-8.2-9.4-16.6-12.6-28.8-12.6
		c-233.1,0.3-466.2,0.4-699.3,0.2c-91-0.1-161-57-180.6-144.9c-6.7-30,0.7-58.6,5.8-87.5c32.2-183.2,64.8-366.3,97.2-549.4
		c12.2-69,24.4-138.1,36.8-207.1c10.1-56.6,50-89.9,107.6-90.2c30-0.2,60-0.1,90.1-0.1c0,17.3,0.1,34.7,0.1,52
		c-1-0.1-1.8,0.1-2.7,0.6c-14.2,0.1-28.4,0.1-42.6,0.2c-16.8-0.2-33.6-1.1-50.3-0.5c-26,1-45.7,17.8-50.2,43
		c-21.7,120.9-43,241.8-64.4,362.7c-24.2,136.9-48,273.9-72.9,410.7c-14.7,80.9,26.8,145.2,103.4,157.2c10.2,0.4,20.3,1.3,30.5,1.3
		c63.6,0.1,127.3,0.1,190.9,0.1c155.8,0,311.6,0.1,467.4-0.2c4.7,0,11.4,4.2,14.4-3.8c-15.7-35-25.9-71.6-30.8-109.6
		c-0.7-29,0.4-57.9,5.7-86.6c23.8-129.9,142.5-237.5,272.7-246.5c20.5-1.4,20.4-1.4,17.1-20.4c-27.2-153.2-54.5-306.3-81.7-459.5
		c-5.9-33.2-23.8-48.3-57.8-48.5c-29.5-0.2-59.1,0-88.6,0c0-17.4,0-34.9,0-52.3c30.5,0,61.1-0.1,91.6,0.1
		c56.8,0.4,96.7,35.6,106.5,91.5c27.9,159.6,56.6,319.2,84.6,478.8c1.6,9,4.5,12.2,13.8,14.1c133.9,27.1,231.8,130.8,249.2,263
		c20.9,158.9-85.7,308.2-243.4,341.1c-10.3,2.1-21.2,0.9-30.8,6.1C1424.2,1783.8,1400.8,1783.8,1377.4,1783.8z M1671.7,1475.4
		c-0.3-141.8-113.7-254.6-255.8-254.5c-141.1,0.2-255.2,114.6-255.1,255.8c0,140.8,116.1,255.5,258,255
		C1558.6,1731.3,1672,1616.4,1671.7,1475.4z"/>
	<path class="st1" d="M1176.2,589.1c0,17.4,0,34.9,0,52.3c-0.2,41.7-0.3,83.4-0.5,125c0,5.1,0.2,10.2-0.1,15.2
		c-0.7,15.8-10.9,26.8-25.2,27.2c-14.8,0.5-26.5-10.8-26.7-27.2c-0.5-46.8-0.4-93.5-0.6-140.3c0-17.4,0-34.8,0-52.2
		c-0.1-40.7,3.3-81.5-2.1-122c-14.1-106-101.9-187.9-208.9-195.5c-106.6-7.6-205.6,61.6-234.7,164.1c-14.3,50.5-7.7,102.1-8.5,153.3
		c0,17.4,0,34.8,0,52.3c-0.2,45.8-0.3,91.6-0.6,137.4c-0.1,17-8.4,27.8-22.3,29.9c-16.1,2.4-29.4-10.1-29.6-28.8
		c-0.4-45.3-0.4-90.6-0.6-135.8c0.5-1,0.5-1.9,0.1-2.9c0-17.3-0.1-34.7-0.1-52c0.2-29.5,0.3-59,0.5-88.6
		c0.8-162.6,132.6-288.1,294.9-281.1c143,6.2,262,128.6,264.2,271.9C1176.2,523.9,1176.1,556.5,1176.2,589.1z"/>
	<path class="st2" d="M570.9,641.9c-8.3,46.8-16.5,93.6-24.8,140.4c-12.2,69.2-24.3,138.4-36.7,207.6c-18.1,101-37,201.9-54.1,303.1
		c-5.2,30.8-14.3,61.3-13.1,93.1c1.6,43.6,25,74.3,59.6,97.2c23,15.3,49.4,19.6,77,19.6c176.7-0.2,353.4-0.1,530,0
		c4.9,38.1,15.1,74.6,30.8,109.6c-5.6,0.1-11.2,0.3-16.8,0.3c-222.9,0-445.8,0-668.8,0.1c-5.9,0-12.3-2-17.7,2.3
		c-76.6-12-118.1-76.3-103.4-157.2c24.9-136.8,48.6-273.8,72.9-410.7c21.4-120.9,42.8-241.9,64.4-362.7c4.5-25.2,24.2-42,50.3-43
		C537.3,640.8,554.1,641.7,570.9,641.9z"/>
	<path class="st3" d="M436.5,1615.1c5.4-4.3,11.8-2.3,17.7-2.3c222.9-0.1,445.8-0.1,668.8-0.1c5.6,0,11.2-0.2,16.8-0.3
		c-3,8-9.7,3.7-14.4,3.8c-155.8,0.3-311.6,0.2-467.4,0.2c-63.7,0-127.3,0.1-190.9-0.1C456.8,1616.3,446.6,1615.5,436.5,1615.1z"/>
	<path class="st2" d="M616.1,644c-0.8-0.8-1.7-1.5-2.6-2.3c0.8-0.5,1.7-0.7,2.7-0.6C616.6,642.1,616.6,643.1,616.1,644z"/>
	<path class="st0" d="M669.1,589.1c151.4,0,302.8,0,454.2,0c0,17.4,0,34.8,0,52.2c-151.4,0-302.8,0-454.2,0
		C669.1,623.9,669.1,606.5,669.1,589.1z"/>
</g>
<path class="st4" d="M1390.1,1027.4c1,0,1.4,0.4,1.3,1.4C1391,1028.3,1390.6,1027.9,1390.1,1027.4z"/>
<path class="st4" d="M1391.5,1127.4c0.1,1-0.3,1.5-1.3,1.5C1390.6,1128.4,1391,1127.9,1391.5,1127.4z"/>
<g>
	<path class="st0" d="M1478.3,1133c9.7-31.4,19.4-62.8,29.1-94.2c0.4-0.9,0.1-1.5-0.9-1.7c-15.4-4.8-30.8-9.8-46.2-14.5
		c-6.5-2-10.2-5.5-8.5-12.7c1.6-6.6,6.7-8.8,14.4-6.4c37.8,11.6,75.6,23.3,113.3,35c8.2,2.6,12.1,8,9.5,13.8
		c-3.1,6.9-8.7,7.5-15.4,5.4c-13.3-4.2-26.7-8-39.8-12.5c-5.3-1.8-7.2-0.4-8.8,4.8c-8.4,28-16.9,56-25.9,83.8
		c-2.2,6.8,0.9,9.4,5.9,11c19.6,6.2,37.6,15.4,55.3,25.6c17.4,10,33.7,21.7,49.2,34.5c27.7,22.8,49.8,50.4,70,79.8
		c7.2,10.5,6.9,10.2,18.8,4.4c22.9-11.2,46.1-21.9,69.2-32.6c5.8-2.7,7.2-5.3,3.6-11.1c-4.4-7.1-8-14.7-11.8-22.1
		c-3.2-6.2-2.6-12,3.3-16.2c4.1-2.9,11.3,0.8,14.6,7.1c13,24.6,26.1,49.2,38.9,73.9c4.2,8.1,8.1,16.4,11.8,24.8
		c2.4,5.3,1,10.1-4.3,12.5c-4.8,2.2-9.6,2.2-12.6-3.8c-7.6-14.9-15.7-29.5-23.1-44.5c-2.7-5.4-4.7-6.4-10.6-3.5
		c-20.1,10-40.6,19-60.9,28.5c-2.5,1.2-4.7,2.9-7.2,4.1c-14.6,7.5-14.1,7.2-7,21.9c15.6,32,24.3,66.2,28.9,101.4
		c4.2,31.6,3.7,63.4-1.4,94.8c-4.3,26.4-10.9,52.3-21.3,77.4c-12.2,29.3-26.9,56.7-46.1,81.8c-24.1,31.7-52.9,58.2-86.2,80.2
		c-38.5,25.4-80.3,42.3-125.4,51.2c-41.5,8.3-83,8.6-124.9,2.2c-23.8-3.7-46.8-10.1-68.9-18.6c-33.2-12.8-64-30.6-91.8-53.3
		c-73.6-60.3-115.7-138.2-128.5-232c-4.7-34.6-3.6-69.3,3.2-103.8c3.3-16.6,6.3-33.2,12-49.1c20.8-58.3,53.6-108.7,100-150.2
		c26.9-24.1,57.2-43.2,89.9-57.8c46.1-20.6,94.7-31.3,145.6-30.2c26.9,0.6,53.4,3.3,79.3,10.7c3.1,0.9,6.5,0.8,9.8,1.2
		C1477.6,1134.3,1478.1,1134,1478.3,1133z M1508.4,1166.8c-22-7.2-43.8-14.8-66.7-19.2c-34.6-6.6-69.2-7.2-103.8-2.5
		c-41.8,5.7-80.9,19.6-117.7,40.7c-26.2,15-50,32.9-71,54.3c-27.5,28-49.6,59.7-65.6,95.9c-12.3,27.8-21.3,56.7-25.9,86.5
		c-6,38.8-5,77.6,3.6,116.1c14.3,64.1,43.3,120.3,89.9,166.9c40.1,40.1,87.4,68.3,142.2,83.4c6,1.7,11.6,5.5,18.3,4.3
		c38.8,10.3,78,10.5,117.4,5c54.1-7.6,103.5-27,147.9-59.2c53.9-39,92.3-89.8,116.1-151.6c9.8-25.4,16-51.9,18.9-78.9
		c6.9-63.2-3.6-123.6-31.2-180.8c-21.2-43.8-51-81.1-88.7-111.8C1566.8,1195.4,1539.1,1178.7,1508.4,1166.8z"/>
	<path class="st5" d="M1508.4,1166.8c30.6,11.8,58.4,28.6,83.8,49.2c37.7,30.7,67.5,68,88.7,111.8c27.6,57.2,38.1,117.6,31.2,180.8
		c-3,27-9.2,53.5-18.9,78.9c-23.8,61.8-62.2,112.6-116.1,151.6c-44.4,32.2-93.8,51.6-147.9,59.2c-39.3,5.5-78.6,5.3-117.4-5
		c-4.5-4.7-10.9-6.1-16.3-9.1c-68.2-37.3-118.7-90.9-149.9-162.6c-16.8-38.7-25.7-79.1-26.9-121.1c-1.4-49.1,8.1-96.1,27.8-141.2
		c14.6-33.4,34.1-63.3,58.5-90.1c34.7-37.9,76.1-65.9,124.1-84.5c42.5-16.5,86.3-23.9,131.9-22.5
		C1476.8,1162.7,1492.5,1165.5,1508.4,1166.8z"/>
	<path class="st6" d="M1508.4,1166.8c-15.9-1.4-31.6-4.2-47.6-4.7c-45.5-1.5-89.4,5.9-131.9,22.5c-47.9,18.7-89.4,46.6-124.1,84.5
		c-24.5,26.8-44,56.7-58.5,90.1c-19.7,45.2-29.2,92.1-27.8,141.2c1.2,42,10,82.4,26.9,121.1c31.2,71.7,81.7,125.2,149.9,162.6
		c5.5,3,11.8,4.4,16.3,9.1c-6.7,1.2-12.3-2.6-18.3-4.3c-54.8-15.2-102.1-43.4-142.2-83.4c-46.6-46.6-75.6-102.8-89.9-166.9
		c-8.6-38.5-9.6-77.4-3.6-116.1c4.6-29.8,13.6-58.7,25.9-86.5c15.9-36.2,38.1-67.9,65.6-95.9c21-21.4,44.8-39.2,71-54.3
		c36.8-21.1,75.8-34.9,117.7-40.7c34.7-4.8,69.3-4.2,103.8,2.5C1464.6,1152.1,1486.4,1159.7,1508.4,1166.8z"/>
</g>
<g>
	<path class="st7" d="M1252.8,1575.7l43.7-0.9h70.8c7,0,12.7,5.7,12.7,12.7v4.6c0,7-5.7,12.7-12.7,12.7h-133.8
		c-8.9,0-16.5-6.3-18.1-15.1l-1-5.5c-1.1-5.8,0.7-11.7,4.7-16c22.7-23.9,87.8-97.4,92-103.4c20.6-23.6,29.1-43.2,29.1-67.2
		c0-27.8-18-44.9-44.9-44.9c-22.6,0-34.7,13.4-40.7,29.6c-2.2,6-8.5,9.4-14.7,8l-8.9-2c-7.6-1.7-11.9-9.8-8.9-17
		c11-26.9,36.1-47.7,75.8-47.7c47.9,0,77.1,28.3,77.1,70.6c0,31.7-14.1,60.8-39.8,91.2c-2.6,3-36.8,42-40.2,45.4
		c-2.6,2.6-38.5,40.7-42,43.2L1252.8,1575.7L1252.8,1575.7z"/>
	<path class="st7" d="M1416.4,1526.8l-3.2-11.8c-1-3.9-0.4-8,1.7-11.4l104.3-170.4c2.8-4.7,7.9-7.5,13.4-7.5h17.9
		c8.7,0,15.7,7,15.7,15.7V1509h28.5c6.2,0,11.3,5.1,11.3,11.3v6.1c0,6.2-5.1,11.3-11.3,11.3h-28.5v54.7c0,6.9-5.6,12.5-12.5,12.5h-7
		c-6.9,0-12.5-5.6-12.5-12.5v-54.7h-103.5C1423.9,1537.6,1418.1,1533.2,1416.4,1526.8z M1534.5,1360.4l-29.1,51.4l-58.7,97.2h87.3
		v-87.8l2.1-60.8L1534.5,1360.4L1534.5,1360.4z"/>
</g>
</svg>
