<?xml version="1.0" encoding="utf-8"?>
<!-- Generator: Adobe Illustrator 26.1.0, SVG Export Plug-In . SVG Version: 6.00 Build 0)  -->
<svg version="1.1" id="Layer_1" xmlns="http://www.w3.org/2000/svg" xmlns:xlink="http://www.w3.org/1999/xlink" x="0px" y="0px"
	 viewBox="0 0 2000 2000" style="enable-background:new 0 0 2000 2000;" xml:space="preserve">
<style type="text/css">
	.st0{fill:#112DA3;stroke:#000000;stroke-width:0.25;stroke-miterlimit:10;}
	.st1{fill:#D1DEF3;stroke:#000000;stroke-width:0.25;stroke-miterlimit:10;}
	.st2{fill:#FCFCFE;stroke:#000000;stroke-width:0.25;stroke-miterlimit:10;}
	.st3{fill:#55BFDA;stroke:#000000;stroke-width:0.25;stroke-miterlimit:10;}
</style>
<g>
	<path class="st0" d="M557.5,998.3c0-208.6,0-417.2,0-625.8c0-23.5,4.1-27.7,27.3-27.7c214.6,0,429.3,0.1,644-0.2
		c11.6,0,20.1,3,28.2,11.6c59.3,62.5,118.9,124.6,178.7,186.7c7,7.3,9.8,15,9.8,24.9c-0.2,352.9-0.1,705.9-0.1,1058.8
		c0,9.5,0.1,18.9-10.2,23.9c-10,4.9-16.8-1.5-23.7-7c-26.9-21.5-54-42.8-80.5-64.8c-7.1-5.9-11.4-5.7-18.5,0.2
		c-26.9,22.3-54.7,43.4-81.6,65.6c-11.4,9.4-20.7,9.2-32-0.2c-25.4-21.2-52.1-40.7-77-62.4c-10.9-9.5-17.4-8.1-27.6,0.6
		c-25.2,21.4-51.7,41.1-77.2,62.2c-10.9,9-19.8,9.3-30.8,0.2c-27.2-22.5-55.3-44.1-82.7-66.5c-6.7-5.5-10.9-5.3-17.6,0.2
		c-26.6,21.9-53.7,43.2-80.6,64.6c-15.7,12.5-19,12.4-35-0.4c-25.5-20.3-51.6-39.9-76.1-61.3c-10.7-9.3-16.9-7.4-26.4,0.6
		c-24.9,21-50.7,41-76.2,61.2c-6.9,5.5-13.6,12-23.7,7.3c-10.4-4.9-10.5-14.2-10.5-23.8C557.5,1417.4,557.5,1207.9,557.5,998.3z
		 M657.8,1546.5c25.6-17.9,23.4-17.9,49.7,3.2c24.3,19.5,48.9,38.7,72.9,58.5c5.8,4.7,9.3,4.8,15.2,0c27.4-22.4,55.2-44.3,82.8-66.3
		c13.8-11.1,18.9-11.2,32.9,0c27.3,21.7,54.8,43.2,81.6,65.5c6.9,5.8,11,5,17.5-0.3c26.3-21.5,53-42.6,79.5-63.8
		c16.3-13,20.2-13.1,36.1-0.4c25.8,20.6,52,40.8,77.3,61.9c8.5,7.1,13.7,8.3,22.9,0.5c26.6-22.6,54.4-43.7,81.5-65.7
		c9.5-7.7,18.1-7.9,27.5-0.2c17.3,14.1,34.8,28,52.3,41.8c7.4,5.9,15,11.5,23.5,18.1c0.4-3.6,0.7-5,0.7-6.3
		c0-335.1,0-670.3,0.2-1005.4c0-9.3-2.8-11.6-11.7-11.5c-51.7,0.4-103.3,0.2-155,0.2c-18.2,0-23.2-5.1-23.3-23.1
		c-0.1-53.1-0.4-106.1,0.2-159.2c0.2-12.2-2.3-16.2-15.6-16.2c-151.3,0.5-302.6,0.3-453.8,0.4c-31.6,0-63.3,0.3-94.9,0.5
		c-16.3-0.2-32.6,0.6-48.8-0.8c-14.2-1.2-18.4,2.9-18.4,17.9c0.5,395.7,0.4,791.3,0.4,1187c0,4.9,0,9.8,0,18.4
		C615.1,1581.6,636.4,1564.1,657.8,1546.5z M1255.5,403.6c0,46,0.2,87.9-0.2,129.7c-0.1,8.2,2.7,10,10.4,9.9
		c30.2-0.4,60.4-0.2,90.7-0.2c9.9,0,19.9,0,32.8,0C1343.8,495.7,1300.9,451,1255.5,403.6z"/>
	<path class="st1" d="M657.9,378.9c0,37,0,74-0.1,111c-16.7,1.1-15.5,1.2-17,29.1c-0.8,15.7,8.4,12.8,17,13.5c0,10.7,0,21.5,0,32.2
		c-14.3-2.1-17,4.6-16.9,18c0.5,132.8,0.5,265.7,0,398.5c0,13.3,2.3,20.2,16.8,17.8c0,182.5,0,365,0,547.5
		c-21.4,17.6-42.7,35.1-66.8,54.8c0-8.6,0-13.5,0-18.4c0-395.7,0.1-791.3-0.4-1187c0-14.9,4.1-19,18.4-17.9
		C625.2,379.5,641.6,378.7,657.9,378.9z"/>
	<path class="st2" d="M1255.5,403.6c45.4,47.4,88.3,92.1,133.7,139.4c-13,0-22.9,0-32.8,0c-30.2,0-60.5-0.2-90.7,0.2
		c-7.6,0.1-10.4-1.7-10.4-9.9C1255.7,491.5,1255.5,449.6,1255.5,403.6z"/>
	<path class="st3" d="M1001.4,1038.3c80.5,0,160.9,0.3,241.4-0.3c13.2-0.1,16.6,3.9,15.9,16.3c-0.6,10.7,1,18.7-15.1,18.6
		c-161.4-0.7-322.8-0.7-484.2,0.1c-18.2,0.1-13.8-9.9-15.1-20c-1.7-13.4,4.3-15,15.8-14.9C840.5,1038.6,920.9,1038.3,1001.4,1038.3z
		"/>
	<path class="st3" d="M1001.4,1184.3c-80.9,0-161.9-0.4-242.8,0.4c-15.6,0.2-14.4-7.6-14.3-17.9c0.1-9.7-1.2-17.1,13.6-17.1
		c162.3,0.6,324.7,0.6,487,0c14.9-0.1,13.4,7.5,13.6,17.1c0.2,10.4,1.2,18-14.3,17.9C1163.3,1183.9,1082.3,1184.3,1001.4,1184.3z"/>
	<path class="st3" d="M1003,1261.9c80.5,0,160.9,0.3,241.4-0.3c12.2-0.1,15.4,4,14.1,15.1c-1.1,9.3,4,19.9-13.7,19.8
		c-162.3-0.6-324.7-0.6-487,0c-16.8,0.1-12.9-9.6-13.3-18.7c-0.5-9.4-0.9-16.3,13-16.2C839.2,1262.2,921.1,1261.9,1003,1261.9z"/>
	<path class="st3" d="M1001.7,1373.6c80.9,0,161.9,0.3,242.8-0.3c12.3-0.1,15.2,4.2,14.1,15.2c-1,9.3,3.9,19.8-13.8,19.7
		c-162.3-0.6-324.7-0.6-487,0c-16.7,0.1-12.8-9.6-13.3-18.8c-0.5-9.6-0.7-16.2,13.1-16.1C838.8,1374,920.2,1373.6,1001.7,1373.6z"/>
	<path class="st3" d="M889.8,960.8c-44.2,0-88.3-0.3-132.5,0.2c-10.4,0.1-13.6-2.9-13.1-13.4c1.1-24.6-2.7-21,20.5-21
		c85.5-0.2,171,0.3,256.5-0.4c14.7-0.1,13.8,7.1,13.8,16.9c-0.1,10,1.8,18.5-14.1,18.1C977.2,960,933.5,960.8,889.8,960.8z"/>
	<path class="st1" d="M648.6,1546.5h-48.4c-5.1,0-9.2-4.1-9.2-9.2V387.2c0-5.1,4.1-9.2,9.2-9.2h48.4c5.1,0,9.2,4.1,9.2,9.2v1150.1
		C657.8,1542.4,653.7,1546.5,648.6,1546.5z"/>
	<path class="st0" d="M657.8,926.5c-8.6-0.7-17.9,2.2-17-13.5c1.5-27.9,0.3-28,17-29.1c17.3,1.1,16.1,1.2,17.6,29.8
		C676.2,930.2,665.7,925,657.8,926.5z"/>
	<path class="st0" d="M657.8,1393.1c-14.5,2.4-16.9-4.6-16.8-17.8c0.5-132.8,0.5-265.7,0-398.5c0-13.4,2.6-20.1,16.9-18
		c14.9-2.2,17.4,4.8,17.4,18.6c-0.6,132.4-0.6,264.9,0,397.3C675.3,1388.5,672.7,1395.4,657.8,1393.1z"/>
</g>
<g>
	<path class="st3" d="M793,825.6c-0.7-1.2-2.1-1.1-3.1-1.7c-5.7-3.1-7.8-8.1-7.8-14.3c0-14.5,0-29,0-43.5c0-32.5,0-64.9,0.1-97.4
		c0-3.2-0.8-3.2-3.4-2.3c-5.1,1.9-10.3,3.5-15.5,5.1c-8.2,2.6-16.1-1.1-18.7-8.8c-2.6-7.7,1.4-15.5,9.5-18.3
		c8.4-2.9,16.9-5.7,25.4-8.4c1.8-0.6,2.6-1.3,2.6-3.4c-0.1-7.3-0.2-14.6,0-21.9c0-2.5-0.7-2.7-2.8-1.9c-5.3,1.9-10.7,3.6-16,5.3
		c-8.3,2.6-16.1-1.1-18.7-8.8c-2.6-7.8,1.3-15.5,9.5-18.3c8.4-2.9,16.9-5.8,25.4-8.4c2-0.7,2.6-1.5,2.6-3.7c-0.1-16.3-0.1-32.7,0-49
		c0-7.6,3.3-12.8,9.4-15.1c9.5-3.5,19.2,3.3,19.3,13.8c0.1,12.5,0,25.1,0,37.6c0,1.8,0,3.6,0,5.8c9.3-3.1,18.4-6.1,27.4-9.1
		c9.9-3.3,19.8-6.7,29.7-9.9c6.6-2.1,12.8-0.2,16.5,4.9c3.7,5.1,3.9,11.5,0.3,16.7c-2.1,3-5,4.7-8.4,5.9c-20.9,7-41.8,14-62.7,20.8
		c-2.3,0.7-3,1.7-2.9,4c0.2,7.9,0.1,15.8,0.1,23.7c1.5,0.3,2.5-0.4,3.7-0.8c17.8-5.9,35.6-11.9,53.4-17.7c9-2.9,17.1,1.7,19.2,10.5
		c1.6,7.1-2.6,14-10.3,16.7c-8.6,3-17.3,5.8-25.9,8.7c-12.5,4.2-25.1,8.4-37.6,12.5c-1.9,0.6-2.4,1.5-2.4,3.5c0.1,45,0.1,90,0,135
		c0,2.5,0.7,2.6,2.9,2.3c18.1-2.5,35-8.5,50.5-18.2c17.7-10.9,31.9-25.4,42.7-43.1c8-13.1,13.4-27.2,16.3-42.2
		c1.5-8,2.1-16.1,2.4-24.2c0.3-8.1,5.8-14,13.2-14.5c9-0.5,15.7,5.9,15.6,15.1c-0.6,38.7-13.3,73-38.6,102.3
		c-23.2,26.9-52.5,43.9-87.2,51.4c-6.4,1.4-12.9,2.4-19.5,2.7c-0.5,0-1-0.1-1.2,0.6C802.9,825.6,798,825.6,793,825.6z"/>
</g>
</svg>
