<?xml version="1.0" encoding="utf-8"?>
<!-- Generator: Adobe Illustrator 26.1.0, SVG Export Plug-In . SVG Version: 6.00 Build 0)  -->
<svg version="1.1" id="Layer_1" xmlns="http://www.w3.org/2000/svg" xmlns:xlink="http://www.w3.org/1999/xlink" x="0px" y="0px"
	 viewBox="0 0 2000 2000" style="enable-background:new 0 0 2000 2000;" xml:space="preserve">
<style type="text/css">
	.st0{fill:#112DA3;stroke:#000000;stroke-width:0.25;stroke-miterlimit:10;}
	.st1{fill:#FEFEFE;stroke:#000000;stroke-width:0.25;stroke-miterlimit:10;}
	.st2{fill:#D3E0F3;stroke:#000000;stroke-width:0.25;stroke-miterlimit:10;}
	.st3{fill:#55BFDA;stroke:#000000;stroke-width:0.25;stroke-miterlimit:10;}
</style>
<g>
	<path class="st0" d="M916.2,1667.7c-234.2-106.2-381.7-284.1-441.1-534.4c-12.6-53.1-17.4-107.3-17.5-161.8
		c-0.2-117.9,0.1-235.8-0.3-353.7c0-16.5,6.1-26.8,20.6-34.7C643.7,492.7,809.2,401.9,974.5,311c12.9-7.1,24.1-7,37-0.1
		c170,90.8,340.2,181.4,510.5,271.8c15,8,21.2,18.7,21.1,35.8c-0.5,114.7-0.1,229.4-0.3,344.2c-0.4,306.1-175.5,573.4-455.8,696.3
		c-25.7,11.3-51.5,22.2-77.2,33.5c-3,1.3-10.3,3.4-14.7,5.5 M620.2,565.6c-34.4,16-66.5,36.3-100.3,53.5
		c-8.5,4.4-11.1,9.6-11.1,18.9c0.3,106.1,0.3,212.1,0.2,318.2c0,44.9,3.1,89.4,10.5,133.8c19.3,115.9,65.2,220.1,136.6,313
		c79.7,103.8,182.2,177,302.4,227.5c24,10.1,42.7,9.8,66.7-0.1c108.6-44.8,206.1-105,284.8-193.3c30.8-34.5,59.3-70.6,81.4-111.5
		c2.4-3.8,5.1-7.4,7.3-11.3c60.9-108.4,91.7-224.8,92.1-349.2c0.3-109.2,0-218.4,0.3-327.7c0-9-2.7-13.5-10.7-17.7
		c-159-84.4-317.8-169.1-476.6-254c-7.7-4.1-13.5-3.9-21.1,0.4c-43.4,24.3-87.2,48-130.8,71.9C774.6,480.5,697.4,523.1,620.2,565.6z
		"/>
	<path class="st1" d="M620.2,565.6c77.2-42.5,154.4-85.1,231.7-127.6c43.6-24,87.4-47.6,130.8-71.9c7.6-4.3,13.4-4.5,21.1-0.4
		c158.7,84.9,317.6,169.6,476.6,254c8,4.2,10.7,8.8,10.7,17.7c-0.3,109.2,0,218.4-0.3,327.7c-0.4,124.3-31.2,240.7-92.1,349.2
		c-2.2,3.9-4.9,7.5-7.3,11.3c-7-2-10.9,2.8-15,7c-22.6,23-48.4,42.1-74.5,60.6c-50.8,36.1-107.5,61.2-163.9,87.1
		c-23.8,10.9-43.7,12.1-68.4,0.5c-48.7-23-97.6-45.5-142-76.3c-48-33.3-91.8-71.4-130.4-115.7c-35.2-40.4-65.8-83.9-91.4-130.8
		c-59.1-108.3-84.1-225.1-85.1-347.6C620,728.8,620.3,647.2,620.2,565.6z M1265.3,875.3c0.3-8.2-2.9-15-9.1-20.4
		c-10.6-9.2-23.8-8.2-38,3.3c-94.9,77.2-189.9,154.3-284.5,231.8c-9.1,7.4-13.6,7.7-21.3-1.6c-33.6-40.4-68-80.1-102.2-120.1
		c-2.9-3.4-5.8-7-8.9-10.3c-11.2-11.6-26.6-12.9-37.6-3.2c-11.1,9.8-12.1,24.9-1.4,37.6c44.8,52.9,89.8,105.6,135,158.2
		c11.8,13.7,25.3,14.9,39.5,3.5c36-28.9,71.8-58.2,107.6-87.3c69.2-56.3,138.5-112.6,207.8-168.9
		C1259.6,892.1,1265.2,885.3,1265.3,875.3z"/>
	<path class="st2" d="M620.2,565.6c0.1,81.6-0.2,163.2,0.4,244.8c1,122.5,26,239.3,85.1,347.6c25.6,46.9,56.2,90.4,91.4,130.8
		c38.6,44.3,82.5,82.4,130.4,115.7c44.3,30.8,93.2,53.3,142,76.3c24.7,11.7,44.5,10.4,68.4-0.5c56.4-25.8,113.1-50.9,163.9-87.1
		c26.1-18.6,52-37.6,74.5-60.6c4.1-4.2,8-9,15-7c-22,40.9-50.6,77-81.4,111.5c-78.7,88.3-176.3,148.5-284.8,193.3
		c-24,9.9-42.7,10.2-66.7,0.1C838.3,1580,735.7,1506.8,656.1,1403c-71.4-93-117.3-197.2-136.6-313c-7.4-44.3-10.5-88.9-10.5-133.8
		c0.1-106.1,0.1-212.1-0.2-318.2c0-9.3,2.6-14.5,11.1-18.9C553.7,601.9,585.8,581.7,620.2,565.6z"/>
	<path class="st3" d="M1265.3,875.3c-0.1,10-5.8,16.8-13.1,22.7c-69.3,56.3-138.5,112.6-207.8,168.9
		c-35.9,29.2-71.6,58.4-107.7,87.3c-14.2,11.4-27.6,10.2-39.5-3.5c-45.2-52.6-90.1-105.3-135-158.2c-10.7-12.7-9.8-27.8,1.4-37.6
		c11-9.7,26.4-8.5,37.6,3.2c3.1,3.3,6,6.8,8.9,10.3c34.1,40,68.6,79.7,102.2,120.1c7.8,9.3,12.2,9.1,21.3,1.6
		c94.6-77.6,189.5-154.7,284.5-231.8c14.2-11.5,27.4-12.5,38-3.3C1262.4,860.3,1265.6,867.1,1265.3,875.3z"/>
</g>
</svg>
