<?xml version="1.0" encoding="utf-8"?>
<!-- Generator: Adobe Illustrator 26.1.0, SVG Export Plug-In . SVG Version: 6.00 Build 0)  -->
<svg version="1.1" id="Layer_1" xmlns="http://www.w3.org/2000/svg" xmlns:xlink="http://www.w3.org/1999/xlink" x="0px" y="0px"
	 viewBox="0 0 2000 2000" style="enable-background:new 0 0 2000 2000;" xml:space="preserve">
<style type="text/css">
	.st0{fill:#112DA3;stroke:#000000;stroke-width:0.25;stroke-miterlimit:10;}
	.st1{fill:#D1DEF3;stroke:#000000;stroke-width:0.25;stroke-miterlimit:10;}
	.st2{fill:#FCFCFE;stroke:#000000;stroke-width:0.25;stroke-miterlimit:10;}
	.st3{fill:#55BFDA;stroke:#000000;stroke-width:0.25;stroke-miterlimit:10;}
	.st4{fill:#FDFEFE;stroke:#000000;stroke-width:0.25;stroke-miterlimit:10;}
	.st5{fill:#D5E0F1;stroke:#000000;stroke-width:0.25;stroke-miterlimit:10;}
	.st6{fill:#FDFDFE;stroke:#000000;stroke-width:0.25;stroke-miterlimit:10;}
</style>
<g>
	<path class="st0" d="M443.5,1155.2c0-191.4,0-382.8,0-574.2c0-21.6,3.8-25.4,25.1-25.4c197,0,393.9,0.1,590.9-0.2
		c10.6,0,18.4,2.8,25.9,10.6c54.4,57.3,109.1,114.4,164,171.3c6.4,6.7,9,13.7,9,22.9c-0.2,323.9-0.1,647.7-0.1,971.6
		c0,8.7,0.1,17.3-9.4,22c-9.2,4.5-15.4-1.4-21.8-6.4c-24.7-19.7-49.5-39.3-73.9-59.4c-6.5-5.4-10.5-5.2-17,0.2
		c-24.7,20.4-50.2,39.8-74.9,60.2c-10.5,8.7-19,8.4-29.4-0.2c-23.3-19.4-47.8-37.4-70.7-57.2c-10-8.7-16-7.4-25.3,0.6
		c-23.1,19.6-47.5,37.7-70.8,57c-10,8.2-18.2,8.5-28.2,0.2c-25-20.7-50.8-40.4-75.8-61.1c-6.1-5-10-4.9-16.2,0.2
		c-24.4,20.1-49.2,39.6-74,59.3c-14.4,11.5-17.5,11.4-32.2-0.3c-23.4-18.7-47.3-36.6-69.8-56.3c-9.8-8.6-15.5-6.8-24.2,0.6
		c-22.9,19.2-46.5,37.6-69.9,56.2c-6.3,5-12.5,11-21.7,6.7c-9.5-4.5-9.6-13-9.6-21.8C443.5,1539.7,443.5,1347.4,443.5,1155.2z
		 M535.5,1658.2c23.5-16.4,21.5-16.4,45.6,2.9c22.3,17.9,44.8,35.5,66.9,53.7c5.3,4.3,8.6,4.4,13.9,0c25.1-20.6,50.6-40.6,76-60.9
		c12.7-10.1,17.3-10.2,30.2,0c25.1,19.9,50.3,39.7,74.9,60.1c6.3,5.3,10.1,4.6,16-0.2c24.1-19.8,48.6-39,72.9-58.5
		c15-12,18.5-12,33.2-0.4c23.7,18.9,47.7,37.4,71,56.8c7.8,6.5,12.6,7.6,21.1,0.4c24.4-20.7,49.9-40.1,74.8-60.3
		c8.7-7.1,16.6-7.2,25.2-0.1c15.9,13,31.9,25.7,48,38.4c6.8,5.4,13.7,10.6,21.5,16.6c0.4-3.3,0.6-4.6,0.6-5.8
		c0-307.5,0-615.1,0.2-922.6c0-8.6-2.5-10.6-10.8-10.5c-47.4,0.4-94.8,0.2-142.2,0.2c-16.7,0-21.3-4.6-21.4-21.2
		c-0.1-48.7-0.3-97.4,0.2-146.1c0.1-11.2-2.1-14.9-14.3-14.9c-138.8,0.5-277.6,0.3-416.4,0.3c-29,0-58.1,0.3-87.1,0.4
		c-14.9-0.2-30,0.5-44.8-0.7c-13.1-1.1-16.9,2.7-16.9,16.4c0.4,363.1,0.3,726.1,0.3,1089.2c0,4.5,0,9,0,16.9
		C496.3,1690.4,515.9,1674.3,535.5,1658.2z M1084,609.4c0,42.2,0.2,80.6-0.2,119c-0.1,7.6,2.5,9.2,9.5,9.1
		c27.7-0.4,55.5-0.2,83.2-0.2c9.1,0,18.2,0,30.1,0C1165,694,1125.7,652.9,1084,609.4z"/>
	<path class="st1" d="M535.6,586.7c0,33.9,0,67.9-0.1,101.8c-15.3,1-14.2,1.1-15.6,26.7c-0.8,14.4,7.7,11.8,15.6,12.4
		c0,9.8,0,19.7,0,29.6c-13.1-1.9-15.5,4.2-15.5,16.5c0.5,121.9,0.5,243.8,0,365.7c0,12.2,2.1,18.6,15.5,16.4
		c0,167.5,0,334.9,0,502.4c-19.6,16.1-39.2,32.2-61.2,50.3c0-7.9,0-12.4,0-16.9c0-363.1,0.1-726.1-0.3-1089.2
		c0-13.7,3.8-17.5,16.9-16.4C505.6,587.3,520.7,586.6,535.6,586.7z"/>
	<path class="st2" d="M1084,609.4c41.7,43.5,81,84.5,122.7,128c-11.9,0-21,0-30.1,0c-27.7,0-55.5-0.2-83.2,0.2
		c-7,0.1-9.6-1.5-9.5-9.1C1084.2,690,1084,651.6,1084,609.4z"/>
	<path class="st3" d="M850.8,1191.8c73.8,0,147.7,0.3,221.5-0.3c12.1-0.1,15.2,3.6,14.6,15c-0.6,9.8,0.9,17.1-13.9,17.1
		c-148.1-0.6-296.2-0.7-444.3,0.1c-16.7,0.1-12.7-9.1-13.9-18.4c-1.5-12.3,4-13.7,14.5-13.7C703.1,1192,777,1191.8,850.8,1191.8z"/>
	<path class="st3" d="M850.8,1325.8c-74.3,0-148.5-0.4-222.8,0.4c-14.3,0.2-13.2-7-13.1-16.4c0.1-8.9-1.1-15.7,12.5-15.6
		c149,0.5,297.9,0.5,446.9,0c13.7-0.1,12.3,6.9,12.5,15.7c0.2,9.5,1.1,16.6-13.2,16.4C999.3,1325.4,925.1,1325.8,850.8,1325.8z"/>
	<path class="st3" d="M852.3,1397c73.8,0,147.7,0.3,221.5-0.3c11.2-0.1,14.1,3.7,12.9,13.8c-1,8.5,3.7,18.2-12.6,18.2
		c-149-0.6-297.9-0.6-446.9,0c-15.4,0.1-11.8-8.8-12.2-17.2c-0.5-8.7-0.8-15,11.9-14.8C702,1397.3,777.2,1397,852.3,1397z"/>
	<path class="st3" d="M851,1499.5c74.3,0,148.5,0.3,222.8-0.3c11.3-0.1,14,3.8,12.9,13.9c-0.9,8.6,3.6,18.2-12.7,18.1
		c-149-0.6-297.9-0.6-446.9,0c-15.3,0.1-11.7-8.8-12.2-17.2c-0.5-8.8-0.7-14.9,12-14.8C701.7,1499.8,776.3,1499.5,851,1499.5z"/>
	<path class="st3" d="M748.4,1120.7c-40.5,0-81-0.3-121.5,0.2c-9.5,0.1-12.5-2.7-12.1-12.3c1-22.6-2.5-19.2,18.8-19.3
		c78.5-0.1,156.9,0.3,235.4-0.4c13.5-0.1,12.7,6.5,12.6,15.5c-0.1,9.2,1.7,17-12.9,16.6C828.6,1120,788.5,1120.7,748.4,1120.7z"/>
	<path class="st1" d="M526.4,1658.2h-42.9c-5.1,0-9.2-4.1-9.2-9.2V595.2c0-5.1,4.1-9.2,9.2-9.2h42.9c5.1,0,9.2,4.1,9.2,9.2V1649
		C535.5,1654.1,531.4,1658.2,526.4,1658.2z"/>
	<path class="st0" d="M535.6,1089.2c-7.9-0.7-16.4,2-15.6-12.4c1.4-25.6,0.3-25.7,15.6-26.7c15.9,1,14.8,1.1,16.1,27.3
		C552.4,1092.6,542.7,1087.9,535.6,1089.2z"/>
	<path class="st0" d="M535.6,1517.3c-13.3,2.2-15.5-4.2-15.5-16.4c0.5-121.9,0.5-243.8,0-365.7c0-12.3,2.4-18.4,15.5-16.5
		c13.7-2,16,4.4,15.9,17.1c-0.5,121.5-0.5,243.1,0,364.6C551.6,1513.1,549.2,1519.5,535.6,1517.3z"/>
</g>
<g>
	<path class="st3" d="M1207.1,249.9c192.5-0.3,349.2,156.4,349.5,349.5c0.3,193.2-156.2,350-349.4,350.3
		c-192.2,0.3-349.8-156.3-350.4-347.5C856.1,407,1013.2,250,1207.1,249.9z M875,576.1c-2,15.5-1.3,30.9-0.3,46.4
		c1.8,26.9,6.7,53.2,14.9,78.8c18.3,57.4,50.3,106,94.8,146.5c4.5,4.1,8.6,9.1,14.6,11.5c25.1,22.3,54.2,38.1,85.2,50.3
		c47.1,18.6,95.8,26.2,146.5,22.4c35.5-2.6,69.7-10.3,102.4-23.9c67.3-27.9,120.1-73.2,158.2-135.2c13.5-22,24.7-45.2,31.8-70.1
		c2.7-5.5,4.2-11.4,5.4-17.4c14.3-54,15-108.1,2.2-162.4c-12.7-53.6-37.3-101.2-73.7-142.7c-9.9-11.3-20-22.6-32.4-31.3
		c-3.2-4.9-7.9-8-12.8-11c-8-7.3-16.9-13.3-26.5-18.4c-0.6-0.4-1.1-0.8-1.7-1.1c-0.9-0.5-1.8-1-2.7-1.5
		c-12.8-9.7-27.5-16.1-42.1-22.6c-39.2-17.5-80.5-25.9-123.2-27.5c-34-1.2-67.4,3.5-100.1,12.7c-17.4,4.9-34.5,10.6-50.4,19.3
		c-6,2.1-12.5,3.5-16.4,9.3c-2.7-0.2-4.9,1.3-7.1,2.5c-21.3,11.9-41,26.2-59,42.7c-35.7,32.7-63.3,71.2-82.3,115.8
		c-12.2,28.7-20.2,58.5-23.9,89.4C874.7,564.4,874.7,570.2,875,576.1z"/>
	<path class="st4" d="M1385.3,319.5c9.6,5,18.5,11,26.5,18.4c-4.2,6.4-8.8,12.5-13.9,18.2c-24.7,27.4-44.4,58.3-62.4,90.3
		c-6.1,10.9-4.1,22.5,4.9,31.2c6.7,6.6,14.9,9.9,24.2,10.9c22.9,2.4,39.5,13.8,46.7,36c7.2,22.2,0.3,41-17.1,56.2
		c-18.7,16.4-37.2,33-55.8,49.5c-5.7,5-9.9,11-12,18.4c-2.1,7.1-1,14.3-1.3,21.5c-0.6,11.7,4.1,20.7,13.7,27.2
		c7.8,5.4,13.6,12.5,17.4,21.2c3.8,8.5,3.9,17.6,4.9,26.6c1.7,14.7,11.1,23.4,25.9,23.5c11.2,0.1,22.3,0.2,33.4,0
		c22.8-0.4,40-10.6,49.2-31.4c10.5-23.6,27.6-35.3,53.3-34.5c-7.1,25-18.2,48.2-31.8,70.1c-38.1,62.1-90.9,107.3-158.2,135.2
		c-32.8,13.6-67,21.3-102.4,23.9c-50.6,3.8-99.4-3.9-146.5-22.4c-31-12.2-60.1-28-85.2-50.3c0.2-1.9-0.3-3.6-1.6-5.1
		c-20.4-24.8-36.9-52-49.4-81.6c-16.2-38.2-25.1-78.2-27-119.6c-0.9-19-0.1-37.9,2.9-56.7c9.1,14.3,22.7,24.4,34.5,36.2
		c6.6,6.5,14.3,11,23.2,13.4c15.9,4.4,25.8,14.8,30.1,30.7c3.6,13.2,7.5,26.3,10.9,39.5c2.7,10.3,7.1,19.5,13.7,27.8
		c10.3,13.1,19.9,26.9,30.6,39.7c9.3,11.2,14,23.6,15.9,37.8c2.3,17.2,5.4,34.4,8.4,51.5c2.6,15.1,17,20.8,29.5,11.9
		c6.4-4.6,9.9-10.8,10.9-18.6c1.4-11,4.4-21.8,12.2-29.8c13.8-14.2,21.4-31.1,25.7-50c1-4.5,2.7-8.9,4.1-13.3
		c3.3-11,9.6-19.9,18.8-26.9c11.1-8.4,22.3-16.8,33.1-25.5c10.2-8.2,11.7-20.2,3.2-30c-16-18.7-31.3-38-45.6-58
		c-8.5-12-20.3-20.9-34.8-22.4c-13-1.4-23-7.6-33.5-13.8c-5.4-3.2-10.7-6.5-16.1-9.6c-14.2-8.1-28.6-8.5-43.2-1.2
		c-6,3-11.8,6.4-17.8,9.5c-15.7,8.1-31,4.1-40.6-10.6c-5.8-8.9-11.5-18-17.2-27c-2.2-3.5-4-7.3-4.8-11.5
		c-4.8-23.9,16.2-44.2,42.1-40.8c8.5,1.1,17,2.4,25.5,3.4c13.3,1.5,24.9-2.6,32.1-13.9c11-17.4,26.3-22.2,45.5-18.5
		c9.3,1.8,18.5,1.1,25.9-4.9c12.4-10,22.4-22.2,26.9-37.9c3.3-11.5,1.9-23-4.7-32.8c-16.7-24.7-31.4-51.2-57.2-68.4
		c5.1-2.3,10.1-4.7,15.2-6.8c51.7-21.9,105.3-31.6,161.6-27c29.7,2.4,58.4,8.1,86.5,17.8c1.9,0.6,4,2.9,6.3,0.5
		c0.9,0.5,1.8,1,2.7,1.5C1384.2,318.7,1384.8,319.1,1385.3,319.5z"/>
	<path class="st4" d="M1424.6,348.9c12.5,8.7,22.6,20,32.4,31.3c36.3,41.4,61,89,73.7,142.7c12.8,54.3,12.2,108.4-2.2,162.4
		c-3.1,0.7-6.3,0.9-9.5,0.9c-24.3-0.1-43.5,9.9-57,30.2c-2.9,4.4-4.9,9.4-7.4,14.2c-7.1,13.9-18.5,21-34.1,21.3
		c-8.1,0.1-16.3,0-24.4,0c-18,0-18.1,0-19.4-17.8c-1.6-20.9-10.6-37.7-27.5-50.1c-2.4-1.8-4.9-3.5-6.2-6.4
		c-4.4-9.5-0.7-28.3,7.3-35.4c19.1-17,38.3-33.8,57.3-50.9c15.6-13.9,23.5-31.5,23.2-52.4c-0.4-35-26.7-62.3-64.1-67
		c-4.7-0.6-9.1-1.8-12.9-4.7c-4.9-3.7-6.5-8.1-3.1-13.9c13.7-23.7,27.9-47.1,44.9-68.6C1405.2,372.6,1416.4,361.9,1424.6,348.9z"/>
	<path class="st0" d="M1111.4,332.4c25.8,17.2,40.5,43.7,57.2,68.4c6.6,9.8,8,21.3,4.7,32.8c-4.5,15.7-14.6,27.9-26.9,37.9
		c-7.3,6-16.6,6.7-25.9,4.9c-19.2-3.7-34.5,1.1-45.5,18.5c-7.2,11.4-18.8,15.4-32.1,13.9c-8.5-1-17-2.2-25.5-3.4
		c-26-3.4-46.9,16.9-42.1,40.8c0.8,4.2,2.6,7.9,4.8,11.5c5.7,9,11.3,18.1,17.2,27c9.6,14.7,24.9,18.7,40.6,10.6
		c6-3.1,11.8-6.4,17.8-9.5c14.6-7.4,29-7,43.2,1.2c5.4,3.1,10.7,6.4,16.1,9.6c10.5,6.2,20.5,12.3,33.5,13.8
		c14.5,1.6,26.2,10.5,34.8,22.4c14.3,20.1,29.5,39.3,45.6,58c8.4,9.8,7,21.8-3.2,30c-10.9,8.7-22,17.1-33.1,25.5
		c-9.2,6.9-15.5,15.8-18.8,26.9c-1.3,4.4-3,8.8-4.1,13.3c-4.3,18.9-12,35.8-25.7,50c-7.8,8-10.9,18.8-12.2,29.8
		c-1,7.8-4.5,14-10.9,18.6c-12.5,9-26.8,3.2-29.5-11.9c-3-17.1-6.1-34.3-8.4-51.5c-1.9-14.2-6.6-26.7-15.9-37.8
		c-10.7-12.8-20.2-26.6-30.6-39.7c-6.6-8.4-11-17.6-13.7-27.8c-3.4-13.2-7.3-26.3-10.9-39.5c-4.3-15.9-14.2-26.3-30.1-30.7
		c-8.9-2.5-16.7-6.9-23.2-13.4c-11.8-11.8-25.3-21.8-34.5-36.2c-10-16.6-27.4-23.8-49-20.1c-0.2-5.8-0.3-11.7,1.5-17.4
		c19.4-2.8,36.2,3,51.2,15.1c12.8,16.8,26.2,33,42.5,46.7c4.9,4.1,9.9,7.4,16.1,9.2c21.9,6.3,35.7,20.7,41.8,42.6
		c3.9,13.8,7.7,27.7,11.4,41.6c1.8,6.8,4.9,12.9,9.2,18.5c12.2,15.8,24.2,31.8,36.4,47.6c7.1,9.2,11.2,19.6,13,31.1
		c2.9,18.3,6,36.6,9.2,54.9c0.3,2-0.9,5.6,2.3,5.6c2.9,0,4.4-3.1,5.1-5.8c0.6-2.2,0.9-4.6,1.2-6.8c1.9-11.7,5.8-23,13.8-31.4
		c13.1-13.8,20.4-30.1,24.6-48.2c0.9-3.8,2.4-7.5,3.5-11.3c4.2-14.3,12.5-25.7,24.3-34.7c10.6-8,20.9-16.2,31.5-24.1
		c3.8-2.8,4.4-5.5,1.1-9.1c-16.5-18.3-31.2-38-45.7-57.9c-6.2-8.5-14.8-14.8-25.4-15.5c-11.9-0.8-21.7-5.7-31.3-11.9
		c-6.8-4.4-13.9-8.3-20.8-12.6c-9.8-6-19.6-6.2-29.7-0.7c-5.7,3.1-11.4,6.3-17.2,9.2c-22.5,11.4-47.1,4.9-61.1-16.2
		c-6-9.1-11.8-18.3-17.5-27.6c-19.2-30.9-2.9-69.2,32.7-77.3c15-3.4,29.6,0.7,44.2,2.4c8.6,1,15-1.2,19.8-8.4
		c12.5-19.1,30.3-28.3,52.8-24.3c15.3,2.7,25.7-1.4,33.1-14.6c0.7-1.2,1.7-2.2,2.5-3.3c8.9-12.1,9.2-23.5,0.7-36
		c-7.3-10.7-14.7-21.4-22.2-32c-9.7-13.7-22-24.4-37-32c-14.6-11-29.2-22-43.8-33c3.9-5.8,10.4-7.2,16.4-9.3
		C1080.2,310.6,1094.7,323.1,1111.4,332.4z"/>
	<path class="st5" d="M927.7,573.8c-15-12-31.8-17.8-51.2-15.1c3.7-31,11.7-60.8,23.9-89.4c19-44.6,46.7-83.1,82.3-115.8
		c18-16.5,37.6-30.8,59-42.7c2.2-1.2,4.4-2.7,7.1-2.5c14.6,11,29.2,22,43.8,33c-0.5,1.8-2.2,2.3-3.5,3.1c-33.7,20-63.3,45-88.5,75
		c-24.1,28.8-43.1,60.7-56.6,95.8C936.7,534.2,930.1,553.4,927.7,573.8z"/>
	<path class="st0" d="M1424.6,348.9c-8.2,13.1-19.4,23.7-28.9,35.7c-17.1,21.5-31.2,45-44.9,68.6c-3.3,5.8-1.8,10.2,3.1,13.9
		c3.8,2.9,8.2,4.1,12.9,4.7c37.4,4.7,63.6,32,64.1,67c0.3,20.9-7.6,38.5-23.2,52.4c-19,17-38.2,33.9-57.3,50.9
		c-7.9,7.1-11.7,25.8-7.3,35.4c1.3,2.9,3.8,4.6,6.2,6.4c16.9,12.5,26,29.2,27.5,50.1c1.3,17.8,1.4,17.8,19.4,17.8
		c8.1,0,16.3,0.1,24.4,0c15.6-0.3,26.9-7.4,34.1-21.3c2.4-4.7,4.4-9.8,7.4-14.2c13.5-20.3,32.7-30.3,57-30.2c3.3,0,6.4-0.2,9.5-0.9
		c-1.2,6-2.8,11.9-5.4,17.4c-25.7-0.8-42.8,10.9-53.3,34.5c-9.2,20.8-26.4,31-49.2,31.4c-11.1,0.2-22.3,0.1-33.4,0
		c-14.8-0.1-24.3-8.8-25.9-23.5c-1-9-1.1-18.1-4.9-26.6c-3.9-8.7-9.6-15.8-17.4-21.2c-9.6-6.6-14.2-15.6-13.7-27.2
		c0.3-7.2-0.7-14.4,1.3-21.5c2.1-7.4,6.3-13.3,12-18.4c18.6-16.5,37.1-33.1,55.8-49.5c17.4-15.3,24.3-34,17.1-56.2
		c-7.2-22.1-23.8-33.5-46.7-36c-9.3-1-17.5-4.3-24.2-10.9c-8.9-8.7-11-20.3-4.9-31.2c17.9-32.1,37.6-62.9,62.4-90.3
		c5.2-5.7,9.8-11.8,13.9-18.2C1416.7,340.8,1421.4,344,1424.6,348.9z"/>
	<path class="st5" d="M875,576.1c21.6-3.7,39.1,3.5,49,20.1c-3,18.8-3.8,37.8-2.9,56.7c1.9,41.4,10.8,81.3,27,119.6
		c12.5,29.6,29,56.8,49.4,81.6c1.3,1.6,1.8,3.2,1.6,5.1c-6-2.4-10-7.4-14.6-11.5c-44.5-40.4-76.5-89.1-94.8-146.5
		c-8.2-25.6-13.1-51.9-14.9-78.8C873.7,607,872.9,591.5,875,576.1z"/>
	<path class="st5" d="M1111.4,332.4c-16.8-9.3-31.2-21.7-46.3-33.4c15.9-8.7,33.1-14.4,50.4-19.3c32.7-9.2,66.1-14,100.1-12.7
		c42.7,1.5,83.9,10,123.2,27.5c14.6,6.5,29.3,12.8,42.1,22.6c-2.3,2.4-4.4,0.1-6.3-0.5c-28.1-9.7-56.8-15.4-86.5-17.8
		c-56.2-4.6-109.9,5.1-161.6,27C1121.5,327.7,1116.5,330.1,1111.4,332.4z"/>
	<path class="st5" d="M1385.3,319.5c-0.6-0.4-1.1-0.8-1.7-1.1C1384.2,318.7,1384.8,319.1,1385.3,319.5z"/>
	<path class="st6" d="M927.7,573.8c2.5-20.3,9-39.6,16.3-58.6c13.5-35.1,32.5-67,56.6-95.8c25.2-30,54.8-55,88.5-75
		c1.4-0.8,3.1-1.3,3.5-3.1c15,7.6,27.3,18.3,37,32c7.5,10.6,14.9,21.3,22.2,32c8.5,12.5,8.2,23.9-0.7,36c-0.8,1.1-1.9,2.1-2.5,3.3
		c-7.4,13.2-17.8,17.3-33.1,14.6c-22.5-4-40.3,5.2-52.8,24.3c-4.7,7.2-11.2,9.4-19.8,8.4c-14.7-1.7-29.2-5.8-44.2-2.4
		c-35.6,8-51.9,46.4-32.7,77.3c5.8,9.2,11.5,18.5,17.5,27.6c13.9,21.1,38.6,27.6,61.1,16.2c5.8-2.9,11.5-6.1,17.2-9.2
		c10-5.5,19.9-5.4,29.7,0.7c6.9,4.3,14,8.2,20.8,12.6c9.6,6.2,19.4,11.1,31.3,11.9c10.6,0.7,19.2,7,25.4,15.5
		c14.5,19.9,29.2,39.6,45.7,57.9c3.3,3.7,2.7,6.2-1.1,9.1c-10.6,7.9-21,16.2-31.5,24.1c-11.8,9-20.1,20.4-24.3,34.7
		c-1.1,3.8-2.6,7.5-3.5,11.3c-4.2,18.1-11.5,34.4-24.6,48.2c-8.1,8.5-11.9,19.8-13.8,31.4c-0.4,2.3-0.7,4.6-1.2,6.8
		c-0.7,2.8-2.2,5.9-5.1,5.8c-3.2,0-1.9-3.7-2.3-5.6c-3.2-18.3-6.3-36.6-9.2-54.9c-1.8-11.5-5.8-21.8-13-31.1
		c-12.2-15.8-24.2-31.8-36.4-47.6c-4.3-5.6-7.4-11.7-9.2-18.5c-3.7-13.9-7.5-27.7-11.4-41.6c-6.1-21.8-19.9-36.3-41.8-42.6
		c-6.2-1.8-11.2-5.1-16.1-9.2C953.9,606.8,940.5,590.5,927.7,573.8z"/>
</g>
<g>
	<path class="st3" d="M651.2,1016c-0.7-1.2-2.1-1.1-3.1-1.7c-5.7-3.1-7.8-8.1-7.8-14.3c0-14.5,0-29,0-43.5c0-32.5,0-64.9,0.1-97.4
		c0-3.2-0.8-3.2-3.4-2.3c-5.1,1.9-10.3,3.5-15.5,5.1c-8.2,2.6-16.1-1.1-18.7-8.8c-2.6-7.7,1.4-15.5,9.5-18.3
		c8.4-2.9,16.9-5.7,25.4-8.4c1.8-0.6,2.6-1.3,2.6-3.4c-0.1-7.3-0.2-14.6,0-21.9c0-2.5-0.7-2.7-2.8-1.9c-5.3,1.9-10.7,3.6-16,5.3
		c-8.3,2.6-16.1-1.1-18.7-8.8c-2.6-7.8,1.3-15.5,9.5-18.3c8.4-2.9,16.9-5.8,25.4-8.4c2-0.7,2.6-1.5,2.6-3.7c-0.1-16.3-0.1-32.7,0-49
		c0-7.6,3.3-12.8,9.4-15.1c9.5-3.5,19.2,3.3,19.3,13.8c0.1,12.5,0,25.1,0,37.6c0,1.8,0,3.6,0,5.8c9.3-3.1,18.4-6.1,27.4-9.1
		c9.9-3.3,19.8-6.7,29.7-9.9c6.6-2.1,12.8-0.2,16.5,4.9c3.7,5.1,3.9,11.5,0.3,16.7c-2.1,3-5,4.7-8.4,5.9c-20.9,7-41.8,14-62.7,20.8
		c-2.3,0.7-3,1.7-2.9,4c0.2,7.9,0.1,15.8,0.1,23.7c1.5,0.3,2.5-0.4,3.7-0.8c17.8-5.9,35.6-11.9,53.4-17.7c9-2.9,17.1,1.7,19.2,10.5
		c1.6,7.1-2.6,14-10.3,16.7c-8.6,3-17.3,5.8-25.9,8.7c-12.5,4.2-25.1,8.4-37.6,12.5c-1.9,0.6-2.4,1.5-2.4,3.5c0.1,45,0.1,90,0,135
		c0,2.5,0.7,2.6,2.9,2.3c18.1-2.5,35-8.5,50.5-18.2c17.7-10.9,31.9-25.4,42.7-43.1c8-13.1,13.4-27.2,16.3-42.2
		c1.5-8,2.1-16.1,2.4-24.2c0.3-8.1,5.8-14,13.2-14.5c9-0.5,15.7,5.9,15.6,15.1c-0.6,38.7-13.3,73-38.6,102.3
		c-23.2,26.9-52.5,43.9-87.2,51.4c-6.4,1.4-12.9,2.4-19.5,2.7c-0.5,0-1-0.1-1.2,0.6C661,1016,656.1,1016,651.2,1016z"/>
</g>
</svg>
