<?xml version="1.0" encoding="utf-8"?>
<!-- Generator: Adobe Illustrator 26.1.0, SVG Export Plug-In . SVG Version: 6.00 Build 0)  -->
<svg version="1.1" id="Layer_1" xmlns="http://www.w3.org/2000/svg" xmlns:xlink="http://www.w3.org/1999/xlink" x="0px" y="0px"
	 viewBox="0 0 2000 2000" style="enable-background:new 0 0 2000 2000;" xml:space="preserve">
<style type="text/css">
	.st0{fill:#112DA3;stroke:#000000;stroke-width:0.25;stroke-miterlimit:10;}
	.st1{fill:#D1DEF3;stroke:#000000;stroke-width:0.25;stroke-miterlimit:10;}
	.st2{fill:#FCFCFE;stroke:#000000;stroke-width:0.25;stroke-miterlimit:10;}
	.st3{fill:#55BFDA;stroke:#000000;stroke-width:0.25;stroke-miterlimit:10;}
	.st4{fill:#FBFBFD;stroke:#000000;stroke-width:0.25;stroke-miterlimit:10;}
	.st5{fill:#D4DFF1;stroke:#000000;stroke-width:0.25;stroke-miterlimit:10;}
	.st6{fill:#FEFEFE;stroke:#000000;stroke-width:0.25;stroke-miterlimit:10;}
	.st7{fill:#FDFEFE;stroke:#000000;stroke-width:0.25;stroke-miterlimit:10;}
</style>
<g>
	<path class="st0" d="M430.6,1155.2c0-191.4,0-382.8,0-574.2c0-21.6,3.8-25.4,25.1-25.4c197,0,393.9,0.1,590.9-0.2
		c10.6,0,18.4,2.8,25.9,10.6c54.4,57.3,109.1,114.4,164,171.3c6.4,6.7,9,13.7,9,22.9c-0.2,323.9-0.1,647.7-0.1,971.6
		c0,8.7,0.1,17.3-9.4,22c-9.2,4.5-15.4-1.4-21.8-6.4c-24.7-19.7-49.5-39.3-73.9-59.4c-6.5-5.4-10.5-5.2-17,0.2
		c-24.7,20.4-50.2,39.8-74.9,60.2c-10.5,8.7-19,8.4-29.4-0.2c-23.3-19.4-47.8-37.4-70.7-57.2c-10-8.7-16-7.4-25.3,0.6
		c-23.1,19.6-47.5,37.7-70.8,57c-10,8.2-18.2,8.5-28.2,0.2c-25-20.7-50.8-40.4-75.8-61.1c-6.1-5-10-4.9-16.2,0.2
		c-24.4,20.1-49.2,39.6-74,59.3c-14.4,11.5-17.5,11.4-32.2-0.3c-23.4-18.7-47.3-36.6-69.8-56.3c-9.8-8.6-15.5-6.8-24.2,0.6
		c-22.9,19.2-46.5,37.6-69.9,56.2c-6.3,5-12.5,11-21.7,6.7c-9.5-4.5-9.6-13-9.6-21.8C430.6,1539.7,430.6,1347.4,430.6,1155.2z
		 M522.6,1658.2c23.5-16.4,21.5-16.4,45.6,2.9c22.3,17.9,44.8,35.5,66.9,53.7c5.3,4.3,8.6,4.4,13.9,0c25.1-20.6,50.6-40.6,76-60.9
		c12.7-10.1,17.3-10.2,30.2,0c25.1,19.9,50.3,39.7,74.9,60.1c6.3,5.3,10.1,4.6,16-0.2c24.1-19.8,48.6-39,72.9-58.5
		c15-12,18.5-12,33.2-0.4c23.7,18.9,47.7,37.4,71,56.8c7.8,6.5,12.6,7.6,21.1,0.4c24.4-20.7,49.9-40.1,74.8-60.3
		c8.7-7.1,16.6-7.2,25.2-0.1c15.9,13,31.9,25.7,48,38.4c6.8,5.4,13.7,10.6,21.5,16.6c0.4-3.3,0.6-4.6,0.6-5.8
		c0-307.5,0-615.1,0.2-922.6c0-8.6-2.5-10.6-10.8-10.5c-47.4,0.4-94.8,0.2-142.2,0.2c-16.7,0-21.3-4.6-21.4-21.2
		c-0.1-48.7-0.3-97.4,0.2-146.1c0.1-11.2-2.1-14.9-14.3-14.9c-138.8,0.5-277.6,0.3-416.4,0.3c-29,0-58.1,0.3-87.1,0.4
		c-14.9-0.2-30,0.5-44.8-0.7c-13.1-1.1-16.9,2.7-16.9,16.4c0.4,363.1,0.3,726.1,0.3,1089.2c0,4.5,0,9,0,16.9
		C483.4,1690.4,503,1674.3,522.6,1658.2z M1071.1,609.4c0,42.2,0.2,80.6-0.2,119c-0.1,7.6,2.5,9.2,9.5,9.1
		c27.7-0.4,55.5-0.2,83.2-0.2c9.1,0,18.2,0,30.1,0C1152.1,694,1112.8,652.9,1071.1,609.4z"/>
	<path class="st1" d="M522.7,586.7c0,33.9,0,67.9-0.1,101.8c-15.3,1-14.2,1.1-15.6,26.7c-0.8,14.4,7.7,11.8,15.6,12.4
		c0,9.8,0,19.7,0,29.6c-13.1-1.9-15.5,4.2-15.5,16.5c0.5,121.9,0.5,243.8,0,365.7c0,12.2,2.1,18.6,15.5,16.4
		c0,167.5,0,334.9,0,502.4c-19.6,16.1-39.2,32.2-61.2,50.3c0-7.9,0-12.4,0-16.9c0-363.1,0.1-726.1-0.3-1089.2
		c0-13.7,3.8-17.5,16.9-16.4C492.7,587.3,507.7,586.6,522.7,586.7z"/>
	<path class="st2" d="M1071.1,609.4c41.7,43.5,81,84.5,122.7,128c-11.9,0-21,0-30.1,0c-27.7,0-55.5-0.2-83.2,0.2
		c-7,0.1-9.6-1.5-9.5-9.1C1071.3,690,1071.1,651.6,1071.1,609.4z"/>
	<path class="st3" d="M837.9,1191.8c73.8,0,147.7,0.3,221.5-0.3c12.1-0.1,15.2,3.6,14.6,15c-0.6,9.8,0.9,17.1-13.9,17.1
		c-148.1-0.6-296.2-0.7-444.3,0.1c-16.7,0.1-12.7-9.1-13.9-18.4c-1.5-12.3,4-13.7,14.5-13.7C690.2,1192,764.1,1191.8,837.9,1191.8z"
		/>
	<path class="st3" d="M837.9,1325.8c-74.3,0-148.5-0.4-222.8,0.4c-14.3,0.2-13.2-7-13.1-16.4c0.1-8.9-1.1-15.7,12.5-15.6
		c149,0.5,297.9,0.5,446.9,0c13.7-0.1,12.3,6.9,12.5,15.7c0.2,9.5,1.1,16.6-13.2,16.4C986.4,1325.4,912.2,1325.8,837.9,1325.8z"/>
	<path class="st3" d="M839.3,1397c73.8,0,147.7,0.3,221.5-0.3c11.2-0.1,14.1,3.7,12.9,13.8c-1,8.5,3.7,18.2-12.6,18.2
		c-149-0.6-297.9-0.6-446.9,0c-15.4,0.1-11.8-8.8-12.2-17.2c-0.5-8.7-0.8-15,11.9-14.8C689.1,1397.3,764.2,1397,839.3,1397z"/>
	<path class="st3" d="M838.1,1499.5c74.3,0,148.5,0.3,222.8-0.3c11.3-0.1,14,3.8,12.9,13.9c-0.9,8.6,3.6,18.2-12.7,18.1
		c-149-0.6-297.9-0.6-446.9,0c-15.3,0.1-11.7-8.8-12.2-17.2c-0.5-8.8-0.7-14.9,12-14.8C688.7,1499.8,763.4,1499.5,838.1,1499.5z"/>
	<path class="st3" d="M735.5,1120.7c-40.5,0-81-0.3-121.5,0.2c-9.5,0.1-12.5-2.7-12.1-12.3c1-22.6-2.5-19.2,18.8-19.3
		c78.5-0.1,156.9,0.3,235.4-0.4c13.5-0.1,12.7,6.5,12.6,15.5c-0.1,9.2,1.7,17-12.9,16.6C815.7,1120,775.6,1120.7,735.5,1120.7z"/>
	<path class="st1" d="M513.5,1658.2h-42.9c-5.1,0-9.2-4.1-9.2-9.2V595.2c0-5.1,4.1-9.2,9.2-9.2h42.9c5.1,0,9.2,4.1,9.2,9.2V1649
		C522.6,1654.1,518.5,1658.2,513.5,1658.2z"/>
	<path class="st0" d="M522.7,1089.2c-7.9-0.7-16.4,2-15.6-12.4c1.4-25.6,0.3-25.7,15.6-26.7c15.9,1,14.8,1.1,16.1,27.3
		C539.5,1092.6,529.8,1087.9,522.7,1089.2z"/>
	<path class="st0" d="M522.7,1517.3c-13.3,2.2-15.5-4.2-15.5-16.4c0.5-121.9,0.5-243.8,0-365.7c0-12.3,2.4-18.4,15.5-16.5
		c13.7-2,16,4.4,15.9,17.1c-0.5,121.5-0.5,243.1,0,364.6C538.7,1513.1,536.3,1519.5,522.7,1517.3z"/>
</g>
<g>
	<path class="st3" d="M836.1,595.5c0.6-221.3,179.9-399.9,400.5-399c221,0.9,399.9,180.3,399.5,400.5
		c-0.4,221.4-179.2,399.8-400.1,399.5C1015.1,996.1,835.4,816,836.1,595.5z M856.7,595.9c-0.4,209.3,169.5,379.6,379,379.9
		c209,0.3,378.9-169,379.7-378.4c0.8-209.2-169-379.7-378.6-380.3C1027.6,216.5,857.1,386.4,856.7,595.9z"/>
	<path class="st4" d="M856.7,595.9c0.4-209.5,170.9-379.5,380.1-378.8c209.7,0.6,379.4,171.2,378.6,380.3
		c-0.8,209.4-170.7,378.7-379.7,378.4C1026.2,975.5,856.3,805.2,856.7,595.9z M900.6,555.4c-8.4,0.1-11.5,4.6-12.3,12.8
		c-3.2,35.7-0.4,71,7.6,105.9C930.6,826,1063.2,937.4,1218.8,945c63.6,3.1,123.6-10.7,180.2-40c141.7-73.5,216.1-241.7,174.7-395.9
		c-47.3-176.2-215.7-287.2-395.3-255.9C1041.8,277,951.2,358.8,904.1,488.9c-2.5,7-0.9,12,5.2,15.9c-0.5,2.7-0.9,5.5-1.4,8.2
		C904.9,527,900.8,540.9,900.6,555.4z"/>
	<path class="st0" d="M909.3,504.8c-6.1-3.9-7.7-8.9-5.2-15.9c47.1-130.1,137.7-211.9,274.2-235.7
		c179.7-31.3,348.1,79.7,395.3,255.9c41.4,154.2-33,322.4-174.7,395.9c-56.6,29.4-116.6,43.1-180.2,40
		c-155.5-7.5-288.2-119-322.8-270.8c-8-34.9-10.7-70.2-7.6-105.9c0.7-8.2,3.8-12.7,12.3-12.8c8.2,2.8,8.9,9.2,8,16.5
		c-2.4,20.3-1.6,40.6,0.9,60.8c10.7,87.6,49.7,160.2,117.4,216.8c44.1,36.8,94.6,60.6,151.6,70c43.9,8.5,87.4,6.7,131-2.8
		c142.1-31.1,250.8-161.9,254.9-307c2.3-80.9-19.9-154.4-71.5-216.8c-81.7-98.9-186.9-139.2-314.3-119.4
		c-30.1,4.5-58.6,14-85.6,27.5c-82.3,41.2-138.8,105.3-168.7,192.5C921.7,500.8,918.3,506.3,909.3,504.8z"/>
	<path class="st5" d="M909.3,504.8c9,1.5,12.4-3.9,15-11.3c29.9-87.2,86.3-151.3,168.7-192.5c27.1-13.5,55.6-23,85.6-27.5
		c-0.9,4-4.8,3.5-7.4,4.5c-62.5,23.3-114.3,61.5-154.6,114.4c-42,55.2-63.8,118.2-68.3,187.2c-1.7,26.2,0.6,52.3,5.4,78
		c11.6,61.9,38.1,116.9,80.1,163.8c35.2,39.3,77.2,69.5,126.6,89c6.1,2.4,14,2.3,18.2,9c-56.9-9.5-107.5-33.2-151.6-70
		c-67.7-56.6-106.8-129.2-117.5-216.8c-2.5-20.2-3.3-40.5-0.9-60.8c0.9-7.3,0.1-13.7-8-16.5c0.1-14.6,4.2-28.5,7.2-42.5
		C908.4,510.2,908.8,507.5,909.3,504.8z"/>
	<path class="st6" d="M1178.6,919.5c-4.2-6.6-12.1-6.5-18.2-9c-49.4-19.5-91.4-49.7-126.6-89c-42-46.9-68.5-101.9-80.1-163.9
		c-4.8-25.7-7.1-51.9-5.4-78c4.5-69,26.3-132,68.3-187.2c40.3-53,92.1-91.1,154.6-114.4c2.7-1,6.5-0.5,7.4-4.5
		c127.4-19.8,232.7,20.6,314.3,119.4c51.6,62.4,73.8,135.9,71.5,216.8c-4.1,145.1-112.8,275.9-254.9,307
		C1266,926.2,1222.4,928,1178.6,919.5z M1209,638.1c0,29.4-0.1,57,0,84.7c0,12.3,7,16.6,17.5,10.9c76.4-41.9,152.7-83.8,229.1-125.7
		c4.8-2.6,9.6-5,9.5-11.7c-0.1-6.7-5.1-8.9-9.8-11.5c-76.1-41.8-152.2-83.6-228.3-125.3c-11-6-17.9-1.8-17.9,11
		c-0.1,25.1,0,50.2-0.1,75.3c0,2.6,1.3,5.6-1.5,8c-1.3-0.7-2.5-1.3-3.7-2c-55.9-30.6-111.8-61.2-167.7-91.8
		c-12.8-7-20.1-2.6-20.1,11.7c0,83.3,0,166.5,0,249.7c0,13.8,7.3,18.2,19.6,11.5c32.9-17.9,65.8-36,98.7-54
		C1158.6,665.6,1183,652.3,1209,638.1z"/>
	<path class="st3" d="M1209,638.1c-25.9,14.2-50.3,27.5-74.8,40.9c-32.9,18-65.7,36.1-98.7,54c-12.3,6.7-19.6,2.3-19.7-11.5
		c0-83.2,0-166.5,0-249.7c0-14.4,7.3-18.7,20.1-11.7c55.9,30.5,111.8,61.2,167.7,91.8c1.2,0.7,2.4,1.3,3.7,2c2.8-2.4,1.5-5.4,1.5-8
		c0.1-25.1,0-50.2,0.1-75.4c0-12.8,6.9-17.1,17.9-11c76.1,41.8,152.2,83.6,228.4,125.3c4.7,2.6,9.7,4.8,9.8,11.5
		c0.1,6.7-4.7,9.1-9.5,11.7c-76.4,41.9-152.7,83.8-229.1,125.7c-10.5,5.7-17.5,1.4-17.5-10.9C1208.9,695.2,1209,667.5,1209,638.1z
		 M1229.9,484.2c0,75.4,0,149.3,0,224.4c68.2-37.4,135.4-74.3,204.5-112.2C1365.4,558.6,1298.1,521.7,1229.9,484.2z M1036.8,484.3
		c0,75.3,0,149.2,0,224c2.5-1.2,4.3-1.9,6-2.9c46.7-25.5,93.5-51,140.2-76.6c8.4-4.6,19.3-7.5,24.3-14.6c5.2-7.5,0.9-19.1,1.7-28.9
		c0.5-5.7-1.8-8.5-6.7-11.1c-35.2-19-70.3-38.3-105.4-57.4C1077.3,506.2,1057.5,495.5,1036.8,484.3z"/>
	<path class="st7" d="M1229.9,484.2c68.2,37.5,135.5,74.3,204.5,112.2c-69,37.9-136.3,74.8-204.5,112.2
		C1229.9,633.6,1229.9,559.6,1229.9,484.2z"/>
	<path class="st6" d="M1036.8,484.3c20.7,11.2,40.4,21.9,60.2,32.6c35.1,19.2,70.2,38.5,105.4,57.4c4.9,2.6,7.2,5.4,6.7,11.1
		c-0.9,9.8,3.5,21.4-1.7,28.9c-5,7.1-15.9,10-24.3,14.6c-46.7,25.6-93.4,51.1-140.2,76.6c-1.7,0.9-3.4,1.7-6,2.9
		C1036.8,633.6,1036.8,559.6,1036.8,484.3z"/>
</g>
<g>
	<path class="st3" d="M626.7,1013.6c-0.7-1.2-2.1-1.1-3.1-1.7c-5.7-3.1-7.8-8.1-7.8-14.3c0-14.5,0-29,0-43.5c0-32.5,0-64.9,0.1-97.4
		c0-3.2-0.8-3.2-3.4-2.3c-5.1,1.9-10.3,3.5-15.5,5.1c-8.2,2.6-16.1-1.1-18.7-8.8c-2.6-7.7,1.4-15.5,9.5-18.3
		c8.4-2.9,16.9-5.7,25.4-8.4c1.8-0.6,2.6-1.3,2.6-3.4c-0.1-7.3-0.2-14.6,0-21.9c0-2.5-0.7-2.7-2.8-1.9c-5.3,1.9-10.7,3.6-16,5.3
		c-8.3,2.6-16.1-1.1-18.7-8.8c-2.6-7.8,1.3-15.5,9.5-18.3c8.4-2.9,16.9-5.8,25.4-8.4c2-0.7,2.6-1.5,2.6-3.7c-0.1-16.3-0.1-32.7,0-49
		c0-7.6,3.3-12.8,9.4-15.1c9.5-3.5,19.2,3.3,19.3,13.8c0.1,12.5,0,25.1,0,37.6c0,1.8,0,3.6,0,5.8c9.3-3.1,18.4-6.1,27.4-9.1
		c9.9-3.3,19.8-6.7,29.7-9.9c6.6-2.1,12.8-0.2,16.5,4.9c3.7,5.1,3.9,11.5,0.3,16.7c-2.1,3-5,4.7-8.4,5.9c-20.9,7-41.8,14-62.7,20.8
		c-2.3,0.7-3,1.7-2.9,4c0.2,7.9,0.1,15.8,0.1,23.7c1.5,0.3,2.5-0.4,3.7-0.8c17.8-5.9,35.6-11.9,53.4-17.7c9-2.9,17.1,1.7,19.2,10.5
		c1.6,7.1-2.6,14-10.3,16.7c-8.6,3-17.3,5.8-25.9,8.7c-12.5,4.2-25.1,8.4-37.6,12.5c-1.9,0.6-2.4,1.5-2.4,3.5c0.1,45,0.1,90,0,135
		c0,2.5,0.7,2.6,2.9,2.3c18.1-2.5,35-8.5,50.5-18.2c17.7-10.9,31.9-25.4,42.7-43.1c8-13.1,13.4-27.2,16.3-42.2
		c1.5-8,2.1-16.1,2.4-24.2c0.3-8.1,5.8-14,13.2-14.5c9-0.5,15.7,5.9,15.6,15.1c-0.6,38.7-13.3,73-38.6,102.3
		c-23.2,26.9-52.5,43.9-87.2,51.4c-6.4,1.4-12.9,2.4-19.5,2.7c-0.5,0-1-0.1-1.2,0.6C636.6,1013.6,631.7,1013.6,626.7,1013.6z"/>
</g>
</svg>
