<?xml version="1.0" encoding="utf-8"?>
<!-- Generator: Adobe Illustrator 26.1.0, SVG Export Plug-In . SVG Version: 6.00 Build 0)  -->
<svg version="1.1" id="katman_1" xmlns="http://www.w3.org/2000/svg" xmlns:xlink="http://www.w3.org/1999/xlink" x="0px" y="0px"
	 viewBox="0 0 1080 1080" style="enable-background:new 0 0 1080 1080;" xml:space="preserve">
<style type="text/css">
	.st0{fill:#112DA3;stroke:#000000;stroke-width:0.25;stroke-miterlimit:10;}
	.st1{fill:#55BFDA;stroke:#000000;stroke-width:0.25;stroke-miterlimit:10;}
	.st2{fill:#D1DEF3;}
	.st3{fill:#FBFEFD;}
	.st4{fill:#F6F8FC;}
</style>
<g>
	<path class="st0" d="M525.35,505.43c-35.3-53.21-27.63-129.84,18.68-178.18c26.18-27.33,52.59-54.56,80.43-80.17
		c43.48-40.01,94.85-51.27,150.4-31.47c55.83,19.9,88.59,61.15,96.89,120.09c6.41,45.5-6.86,85.89-38.23,119.29
		c-26.44,28.14-53.77,55.53-81.89,81.99c-48.4,45.55-124.23,52.6-177.05,17.67c4.02-4.94,8.15-9.77,13.66-13.17
		c55.73,28.58,113.28,19.63,157.73-24.62c23.53-23.43,47.21-46.7,70.35-70.51c32.89-33.84,45.25-74.34,34.98-120.44
		c-8.55-38.38-30.59-67.37-66.12-85.4c-1.72-1.05-3.37-2.26-5.18-3.11c-49.25-23.2-106.66-12.89-146.74,26.61
		c-24.22,23.87-48.2,47.98-72.16,72.12c-42.3,42.61-50.91,102.5-22.53,155.61C535.13,497.24,530.31,501.4,525.35,505.43z"/>
	<path class="st1" d="M588.24,541.48c-5.51,3.4-9.64,8.23-13.66,13.17c-7.72,6.59-14.84,13.77-21.48,21.44
		c-4.89,4.08-9.77,8.16-13.14,13.69c-9.02,6.72-16.38,15.13-23.93,23.36c-5.23,4.19-9.95,8.9-14.13,14.14
		c-16.3,16.07-32.63,32.1-48.88,48.23c-9.56,9.49-20.95,13.1-33.92,9.76c-25.9-6.68-34.1-38.07-15.12-57.72
		c16.08-16.65,32.47-32.99,48.73-49.47c5.23-4.19,9.96-8.88,14.13-14.13c7.77-6.56,14.75-13.9,21.61-21.37
		c1.3-0.39,1.44-1.52,1.64-2.61c5.75-3.14,9.66-8.24,13.81-13.07c7.67-6.63,14.86-13.75,21.43-21.48
		c4.96-4.03,9.78-8.19,13.21-13.69c5.29-3.24,9.26-7.85,13.1-12.6c4.18-2.99,7.71-6.63,10.76-10.75c5.26-4.15,9.93-8.9,14.13-14.12
		c2.09-1.87,4.27-3.66,6.26-5.64c14.59-14.53,28.91-29.34,43.78-43.58c19.32-18.51,50.51-9.95,57.13,15.62
		c3.45,13.31-0.59,24.77-10.27,34.48c-15.97,16.02-31.8,32.19-47.69,48.3c-5.25,4.18-9.95,8.9-14.15,14.13
		C603.37,525.1,594.98,532.49,588.24,541.48z M428.54,667.7c5.33,0.21,9.16-3.13,12.88-6.85c72.44-72.46,144.91-144.9,217.34-217.37
		c1.99-1.99,3.97-4.11,5.37-6.52c3.62-6.23,2.17-14.31-3.07-19.05c-5.29-4.78-13.38-5.47-19.27-1.37c-2.3,1.6-4.27,3.7-6.27,5.7
		c-71.74,71.71-143.46,143.42-215.18,215.15c-1.82,1.82-3.75,3.59-5.22,5.67c-3.76,5.31-4.04,11.11-0.97,16.75
		C417.1,665.21,421.89,667.9,428.54,667.7z"/>
	<path class="st0" d="M539.95,589.78c3.38-5.53,8.26-9.61,13.15-13.68c35.26,53.38,27.6,129.78-18.72,178.23
		c-25.81,26.99-51.95,53.75-79.3,79.16c-43.06,40.01-94.02,51.77-149.55,32.8c-55.21-18.86-88.49-59.12-98.14-116.68
		c-7.83-46.67,5.76-88.09,37.52-123.33c4.14-4.59,8.82-8.68,12.94-13.28c5.08-5.69,10.47-7.1,16.84-2.29
		c2.99,5.89,1.78,10.8-3.2,15.07c-2.53,2.17-4.75,4.7-7.12,7.05c-31.84,31.63-45.61,69.65-38.91,114.16
		c4.88,32.43,20.01,59.48,46.26,79.8c2.76,2.27,5.37,4.75,8.29,6.78c50.75,35.24,119.04,29.08,164.18-15.1
		c24.1-23.59,47.79-47.6,71.59-71.49C559.58,702.99,568.47,644.92,539.95,589.78z"/>
	<path class="st2" d="M271.73,826.78c-26.25-20.32-41.38-47.37-46.26-79.8c-6.7-44.51,7.07-82.53,38.91-114.16
		c2.37-2.35,4.59-4.89,7.12-7.05c4.98-4.27,6.19-9.18,3.2-15.07c7.22-9.59,16.67-17.04,24.75-25.8c2.23-2.42,4.35-4.93,6.52-7.4
		c5.78,4.08,10.89,3.39,15.66-1.87c3.45-3.8,7.23-7.31,10.87-10.95c44.27-44.2,101.88-53.23,157.61-24.72
		c-0.2,1.09-0.34,2.21-1.64,2.61c-0.58-0.49-1.09-1.3-1.74-1.42c-31.9-5.82-61.8,0.24-90.15,15.31c-1.71,0.91-2.73,2.27-2.67,4.29
		c-18.2,6.98-32.67,19.01-46.06,32.89c-17.87,18.54-35.77,37.13-54.7,54.56c-23.53,21.67-37.53,47.33-38.39,79.63
		c-0.5,0.85-1.31,1.64-1.46,2.54c-4.11,24.74-1.08,48.66,7.66,72.1C264.05,810.84,269.58,818.05,271.73,826.78z"/>
	<path class="st0" d="M490.1,539.97c-55.73-28.51-113.34-19.48-157.61,24.72c-3.64,3.63-7.42,7.14-10.87,10.95
		c-4.77,5.25-9.88,5.94-15.66,1.87c-2.41-4.38-3.24-8.81,0.43-12.87c24.1-26.67,51.58-48.2,87.7-55.89
		c38.91-8.28,75.7-2.93,109.82,18.17C499.76,531.73,495.85,536.83,490.1,539.97z"/>
	<path class="st2" d="M785.17,240.52c-1.97,2.88-4.42,1.17-6.89,0.93c-28.75-2.76-56.09,1.95-81.52,16.02
		c-1.83,1.01-4.44,1.87-4.42,4.83c-18.03,6.75-32.26,18.68-45.47,32.35c-17.89,18.52-35.8,37.09-54.69,54.56
		c-23.19,21.44-37.58,46.66-38.93,78.63c-2.41,4.58-3.13,9.55-3.17,14.61c-0.12,12.25-0.48,24.53,1.59,36.69
		c-3.84,4.75-7.81,9.37-13.1,12.6c-28.37-53.11-19.76-112.99,22.54-155.6c23.96-24.13,47.94-48.24,72.16-72.12
		c40.08-39.51,97.49-49.82,146.74-26.61C781.8,238.26,783.45,239.47,785.17,240.52z"/>
	<path class="st0" d="M625.75,503.44c29.81,9.35,57.02,4.06,79.62-17.23c26.62-25.08,52.43-51.09,77.65-77.58
		c29.85-31.35,28.69-79.95-1.52-110.16c-30.21-30.21-78.88-31.32-110.16-1.47c-26.46,25.26-52.45,51.07-77.57,77.67
		c-21.35,22.61-26.58,49.79-17.23,79.59c-4.19,5.22-8.86,9.97-14.13,14.12c-6.77-12.68-7.94-26.62-9.17-40.55
		c1.35-31.97,15.74-57.19,38.93-78.63c18.9-17.47,36.8-36.04,54.69-54.56c13.21-13.67,27.43-25.61,45.47-32.35
		c51.51-17.24,97.34,7.79,117.65,42.92c21.87,37.84,16.5,85.7-14.03,116.99c-24.82,25.43-49.96,50.55-75.36,75.4
		c-29.8,29.15-74.17,37.03-108.99,19.97C615.8,512.34,620.51,507.62,625.75,503.44z"/>
	<path class="st0" d="M516.03,613.14c16.1,32.85,10.39,76.22-15.93,104.33c-26.57,28.36-53.8,56.26-82.51,82.42
		c-28.85,26.29-63.56,32.12-100.01,17.96c-36.14-14.04-56.47-41.53-61.66-80.05c-0.45-3.31-0.78-6.64-1.17-9.96
		c0.86-32.3,14.86-57.96,38.39-79.63c18.93-17.43,36.83-36.02,54.7-54.56c13.38-13.88,27.85-25.91,46.06-32.89
		c24.7-7.71,49.08-8.11,72.95,3.19c-4.17,5.25-8.9,9.95-14.13,14.13c-29.76-9.37-56.94-4.14-79.53,17.15
		c-26.59,25.06-52.33,51.06-77.61,77.46c-30.08,31.42-28.94,80.49,1.6,110.6c30.48,30.05,78.89,30.97,110.07,1.13
		c26.22-25.09,52.01-50.67,76.97-77.01c21.55-22.75,27.1-50.04,17.68-80.13C506.08,622.04,510.79,617.33,516.03,613.14z"/>
	<path class="st3" d="M428.54,667.7c-6.65,0.2-11.44-2.49-14.38-7.89c-3.08-5.64-2.79-11.43,0.97-16.75
		c1.47-2.08,3.4-3.85,5.22-5.67c71.72-71.73,143.44-143.45,215.18-215.15c2-2,3.97-4.1,6.27-5.7c5.89-4.11,13.98-3.41,19.27,1.37
		c5.24,4.74,6.69,12.81,3.07,19.05c-1.4,2.4-3.39,4.53-5.37,6.52c-72.43,72.47-144.9,144.91-217.34,217.37
		C437.7,664.57,433.87,667.92,428.54,667.7z"/>
	<path class="st4" d="M553.25,427.84c1.23,13.93,2.4,27.87,9.17,40.55c-3.05,4.12-6.58,7.76-10.76,10.75
		c-2.07-12.16-1.7-24.43-1.59-36.69C550.12,437.39,550.84,432.41,553.25,427.84z"/>
	<path class="st0" d="M308.76,706.3c-4.53-0.11-7.35-1.79-8.93-5.03c-2.03-4.17-1.11-8,2.15-11.26c8.53-8.55,17.08-17.1,25.62-25.64
		c10.18-10.19,20.29-20.43,30.55-30.53c5.43-5.35,10.9-5.92,14.77-1.45c4.37,5.04,3.06,9.9-1.35,14.3
		c-18.55,18.54-37.09,37.08-55.65,55.61C313.71,704.52,311.32,706.46,308.76,706.3z"/>
	<path class="st0" d="M400.23,596.45c4.91,0.6,8.2,3.73,8.35,9.42c0.15,5.76-10.01,15.58-15.49,14.93c-5.12-0.61-8.48-3.5-8.64-9.06
		C384.27,605.88,393.64,596.38,400.23,596.45z"/>
</g>
</svg>
