<?xml version="1.0" encoding="utf-8"?>
<!-- Generator: Adobe Illustrator 26.1.0, SVG Export Plug-In . SVG Version: 6.00 Build 0)  -->
<svg version="1.1" id="Layer_1" xmlns="http://www.w3.org/2000/svg" xmlns:xlink="http://www.w3.org/1999/xlink" x="0px" y="0px"
	 viewBox="0 0 2000 2000" style="enable-background:new 0 0 2000 2000;" xml:space="preserve">
<style type="text/css">
	.st0{fill:#112DA3;stroke:#000000;stroke-width:0.25;stroke-miterlimit:10;}
	.st1{fill:#55BFDA;stroke:#000000;stroke-width:0.25;stroke-miterlimit:10;}
	.st2{fill:#D3DEF1;stroke:#000000;stroke-width:0.25;stroke-miterlimit:10;}
	.st3{fill:#D3DEF0;stroke:#000000;stroke-width:0.25;stroke-miterlimit:10;}
	.st4{fill:#FAFBFD;stroke:#000000;stroke-width:0.25;stroke-miterlimit:10;}
	.st5{fill:#F6F8FC;stroke:#000000;stroke-width:0.25;stroke-miterlimit:10;}
	.st6{fill:#1543C2;stroke:#000000;stroke-width:0.25;stroke-miterlimit:10;}
</style>
<g>
	<path class="st0" d="M974,928.7c-69.8-106.9-54-257.4,38.2-353c50.5-52.3,101.4-104.4,154.4-154.1
		c85.7-80.3,187.1-104.1,297.7-65.6c111.7,38.9,177.2,120.9,193.5,238.7c12.4,89.3-13.7,168.6-75.2,234.2
		c-52.2,55.6-106.2,109.6-161.7,162c-95.4,90-244.2,104-349.6,35.2c8.1-9.8,15.7-20.1,27.6-25.7c109.6,55.9,223,38.2,310.2-48.6
		c46.5-46.2,93.2-92.3,138.9-139.2c65-66.8,89.5-146.7,69.3-237.8c-16.8-75.8-60.3-133.1-130.5-168.7c-3.4-2.1-6.6-4.5-10.2-6.1
		c-97.1-45.8-210.3-25.5-289.4,52.3c-48.5,47.8-96.6,95.9-144.4,144.4c-81.6,82.8-98.3,202.2-43,304.6
		C994.1,912.9,983.9,920.6,974,928.7z"/>
	<path class="st1" d="M1098.9,1000.3c-11.9,5.6-19.5,15.9-27.6,25.7c-14.9,13.3-30.4,26.2-41.5,43.1c-11.4,6.3-20.4,15.2-26.5,26.8
		c-18.5,12.5-33.5,28.5-46.6,46.3c-12.3,6.1-20.2,17.1-28.8,27.1c-32.2,31.7-64.4,63.4-96.5,95.1c-19.3,19.1-42.4,26-68.4,18.7
		c-50.2-14.1-65.4-75.2-28.4-113.4c31.8-32.8,64-65.1,96.1-97.7c10.2-8.8,21.3-16.6,27.3-29.3c18.1-12.4,33.3-27.8,45.9-45.8
		c11.9-5.8,19.7-16.2,27.9-26c15.2-13,29.4-27,42.3-42.4c9.9-8,20-15.8,25.9-27.6c11.1-5.6,18.4-15.2,26.1-24.5
		c8-6,16.1-11.8,19.8-21.7c12.7-5.9,20.6-17.1,29.3-27.3c4.2-3.7,8.5-7.2,12.4-11.1c28.4-28.3,56.8-56.7,85.2-85.1
		c18.9-18.9,41.8-24.8,67.2-17.8c50.2,14,65.5,75,28.6,113.5c-31.6,32.9-64,65.1-96.1,97.7c-10.1,8.7-21,16.5-27.1,28.8
		C1127.4,966.8,1111.5,981.9,1098.9,1000.3z M782.7,1249c10.9,1.2,18.9-6.6,27-14.6c142.2-142.3,284.5-284.6,426.8-426.8
		c4.7-4.7,9.3-9.3,12.2-15.5c9.6-20.3-4-42.7-26.4-44c-12.6-0.7-20.7,6.3-28.9,14.4c-142.6,142.7-285.2,285.3-427.8,427.9
		c-3.2,3.2-6.7,6.4-9.3,10.1c-6.9,10-7.5,21-2.3,31.8C759.4,1243.2,768.6,1248.9,782.7,1249z"/>
	<path class="st0" d="M1003.3,1095.9c6.1-11.6,15.1-20.4,26.5-26.8c67.9,112.2,53.2,255.6-37.8,350.7
		c-50.9,53.3-102.5,106.1-156.5,156.3c-85,79-185.5,102.3-295.2,64.8c-109-37.2-174.7-116.7-193.8-230.3
		c-15.5-92.1,11.4-173.9,74-243.4c8.2-9.1,17.4-17.1,25.5-26.2c10-11.2,20.7-14,33.2-4.5c5.9,11.6,3.5,21.3-6.3,29.7
		c-5,4.3-9.4,9.3-14,13.9c-62.8,62.4-90,137.4-76.8,225.3c9.6,64,39.5,117.4,91.3,157.5c1.4,1.4,2.7,3,4.2,4.3
		c96.2,79.3,243.2,70.4,336.4-20.9c47.6-46.6,94.4-94,141.4-141.2C1041.5,1318.8,1059.1,1204.3,1003.3,1095.9z"/>
	<path class="st2" d="M473.6,1563c-51.8-40.1-81.7-93.5-91.3-157.5c-13.2-87.8,14-162.9,76.8-225.3c4.7-4.7,9-9.6,14-13.9
		c9.8-8.4,12.2-18.1,6.3-29.7c14.3-18.9,32.9-33.6,48.8-50.9c4.4-4.8,8.6-9.7,12.9-14.6c12.2,8.7,22.2,5.8,32-4.7
		c34.8-37.4,72.7-70.7,122.5-87c69.6-22.8,137.3-20.2,202.4,15.5c-2.1,3.9-5.6,3.8-9.3,3.2c-57.7-8.9-111.8,2.5-163.2,28.7
		c-4.8,2.4-10.9,4-10.8,11.3c-35.9,13.8-64.5,37.5-90.9,64.9c-35.3,36.6-70.6,73.3-108,107.7c-46.5,42.8-74.1,93.4-75.8,157.2
		c-1,1.7-2.6,3.2-2.9,5c-8.1,48.3-2.8,95.3,14.9,140.8C458.6,1530.3,466.4,1546.5,473.6,1563z"/>
	<path class="st0" d="M898,994.8c-65.1-35.8-132.8-38.3-202.4-15.5c-49.8,16.3-87.7,49.6-122.5,87c-9.8,10.5-19.8,13.5-32,4.7
		c-4.8-8.6-6.4-17.4,0.8-25.4c47.5-52.6,101.8-95.1,173-110.3c76.8-16.4,149.4-5.8,216.7,35.7c-8.2,9.8-15.9,20.2-27.9,26
		C901.9,996.3,900,995.5,898,994.8z"/>
	<path class="st3" d="M1486.9,405.9c-3.9,5.7-8.7,2.3-13.6,1.8c-56.7-5.4-110.7,3.9-160.9,31.6c-3.6,2-8.8,3.7-8.7,9.5
		c-35.6,13.3-63.7,36.9-89.7,63.9c-35.7,36.9-71.4,73.9-109,108.8c-46.3,42.8-74,93.5-75.8,157.2c-5.3,7.8-6.2,16.6-6.3,25.7
		c-0.3,24.2-0.5,48.3,3.1,72.3c-7.7,9.2-15,18.9-26.1,24.5c-55.3-102.4-38.7-221.8,43-304.6c47.8-48.5,95.9-96.6,144.4-144.4
		c79.1-77.9,192.3-98.1,289.4-52.3C1480.3,401.4,1483.5,403.8,1486.9,405.9z"/>
	<path class="st0" d="M1172.4,924.8c58.2,18.2,111.7,8.4,155.9-33.1c53.4-50.1,105.1-102.1,155.4-155.2c58.1-61.4,55.2-157-4-216.2
		c-59.6-59.6-155.6-61.8-217.4-3c-52.2,49.8-103.5,100.8-153.1,153.2c-42.1,44.6-52.5,98.2-34.1,157c-8.8,10.2-16.6,21.4-29.3,27.3
		c-10.3-24.4-14.4-50.1-16.6-76.2c1.8-63.7,29.5-114.3,75.8-157.2c37.7-34.8,73.3-71.8,109-108.8c26.1-27,54.1-50.5,89.7-63.9
		c102.7-34.4,193.6,16.6,233,86.1c41.9,74,31.6,167.4-27.5,228.5c-49.5,51.1-99.3,102.1-151.1,150.8
		c-61.7,58.1-133.6,70.7-212.8,39.5C1151.4,941.3,1162.4,933.5,1172.4,924.8z"/>
	<path class="st0" d="M956.7,1142.2c31.9,76.7,16.4,156.8-42.4,216.3c-46.8,47.4-93.7,94.6-141.3,141.2
		c-58.4,57.1-127.7,74.8-204.6,47.1c-75-27-116.5-83.3-126.5-162.6c-0.7-5.5-1.2-11.1-1.9-16.7c1.7-63.8,29.3-114.4,75.8-157.2
		c37.4-34.4,72.7-71.1,108-107.7c26.4-27.4,55-51.2,90.9-64.9c48.3-15.8,96.1-14.6,143.2,4.8c-5.9,12.7-17.1,20.6-27.3,29.3
		c-58.2-18.3-111.6-8.4-155.9,33.1c-53.4,50.1-105,102.1-155.4,155.2c-58,61.1-55.2,157,4,216.2c59.2,59.2,155.3,62,216.2,4.1
		c52.7-50.1,104.3-101.4,154.2-154.3c42-44.6,52.6-98.2,34.1-157.1C936.6,1159.3,944.4,1148.4,956.7,1142.2z"/>
	<path class="st4" d="M857.9,1042.8c-47.1-19.4-94.9-20.6-143.2-4.8c-0.1-7.3,6-8.8,10.8-11.3C777,1000.5,831.1,989,888.8,998
		c3.7,0.6,7.2,0.7,9.3-3.2c2,0.8,3.9,1.5,5.9,2.3C891.2,1014.9,876,1030.3,857.9,1042.8z"/>
	<path class="st5" d="M1029.2,778.6c2.2,26.1,6.3,51.9,16.6,76.2c-3.7,9.9-11.8,15.7-19.8,21.7c-3.6-24-3.5-48.1-3.1-72.3
		C1023,795.2,1023.9,786.4,1029.2,778.6z"/>
	<path class="st0" d="M678.4,1193.6c0.4,4.6-3.3,9.4-7.7,13.8c-36.6,36.6-73.2,73.2-109.8,109.8c-8.7,8.7-18.1,11.6-28.2,3
		c-8.8-7.5-7.8-18.7,2.6-29.2c36.1-36.4,72.4-72.5,108.6-108.8c6.4-6.5,13.3-11.1,23-7.1C674.3,1178.1,678,1183.6,678.4,1193.6z"/>
	<path class="st6" d="M696,1139.3c0.3-13.3,19.3-31.8,30.6-30.8c10.6,0.9,16.5,7.5,17.2,17.8c0.7,11.3-18.7,31-30,30.1
		C702.8,1155.6,696.3,1149.3,696,1139.3z"/>
</g>
</svg>
