<?xml version="1.0" encoding="utf-8"?>
<!-- Generator: Adobe Illustrator 26.1.0, SVG Export Plug-In . SVG Version: 6.00 Build 0)  -->
<svg version="1.1" id="katman_1" xmlns="http://www.w3.org/2000/svg" xmlns:xlink="http://www.w3.org/1999/xlink" x="0px" y="0px"
	 viewBox="0 0 1080 1080" style="enable-background:new 0 0 1080 1080;" xml:space="preserve">
<style type="text/css">
	.st0{fill:#112DA3;stroke:#000000;stroke-width:0.25;stroke-miterlimit:10;}
	.st1{fill:#D2DFF3;}
	.st2{fill:#55BFDA;stroke:#000000;stroke-width:0.25;stroke-miterlimit:10;}
	.st3{fill:#CFDCF2;}
	.st4{fill:#F8F9FD;}
</style>
<g>
	<path class="st0" d="M685.97,836.31c-0.12,4.13-0.25,8.27-0.35,12.4c-0.37,15.05-9.19,23.91-24.33,24.3
		c-5.69,0.15-11.41,0.34-17.08-0.06c-5.02-0.35-6.44,1.27-6.6,6.41c-0.72,22.07-12.81,37.03-32.81,41.18
		c-3.51,0.73-7.19,0.81-10.79,0.82c-102.52,0.04-205.03,0.05-307.55,0.02c-26.69-0.01-43.81-16.99-43.82-43.56
		c-0.04-146.78,0-293.57-0.08-440.35c0-6.91,1.25-12.41,9.17-13.76c8.53,1,9.63,6.75,9.63,13.98
		c-0.1,145.34-0.07,290.69-0.07,436.03c0,2.84-0.13,5.71,0.17,8.53c1.27,11.74,9.8,19.94,21.58,20.37
		c7.22,0.26,14.46-0.14,21.69-0.24c0.77,0.09,1.54,0.25,2.31,0.26c96.53,0.04,193.07,0.12,289.6,0.02
		c13.02-0.01,21.54-8.85,22.27-21.98c0.16-2.84,0.09-5.69,0.09-8.54c0-170.04,0-340.07,0-510.11c0-10.09,0.16-20.19-0.05-30.28
		c-0.32-14.93-8.88-23.41-23.89-23.65c-11.9-0.19-23.82,0.23-35.71-0.17c-5.31-0.18-6.37,1.69-6.36,6.61
		c0.07,45.55-0.02,91.1-0.3,136.65c-0.03,5.19,1.04,7.55,6.75,7.08c5.91-0.49,11.9-0.13,17.85-0.1c9.22,0.04,13.36,2.91,13.28,9.19
		c-0.08,6.18-4.57,9.36-13.4,9.47c-1.55,0.02-3.11,0-4.66,0c-81.01,0-162.01-0.01-243.02,0.01c-10.35,0-20.69,0.18-31.04,0.27
		c-4.83-1.72-8.88-4.44-8.59-10.13c0.26-5.16,3.7-8.05,8.68-9.1c4.39,0.09,8.83-0.17,13.16,0.36c5.88,0.71,7.33-1.44,7.3-7.25
		c-0.25-44.23-0.13-88.46-0.13-132.69c0-10.73,0-10.73-11.04-10.11c-0.51,0.03-1.01,0.21-1.52,0.32
		c-7.73-0.13-15.48-0.74-23.17-0.28c-13.32,0.8-21.51,9.81-21.82,23.38c-0.16,6.97-0.31,13.95,0.04,20.9
		c0.36,7.13-2.62,11.28-9.52,12.73c-6.84-1.73-9.61-6.13-9.3-13.13c0.33-7.23-0.04-14.49,0.1-21.74
		c0.47-22.84,17.44-40.17,40.26-40.92c9.31-0.31,18.66-0.47,27.94,0.07c6.31,0.37,8.32-1.22,8.2-7.91
		c-0.43-25.1-0.2-50.21-0.16-75.32c0.05-31.02,18.22-49.29,49.14-49.22c69.11,0.16,138.21,0.37,207.32,0.63
		c30.37,0.12,48.79,18.71,48.68,49.02c-0.06,16.82-0.3,33.65-0.38,50.47c-0.02,4.58-0.35,9.06-5.09,11.27
		c-4.87,2.27-9.16,0.53-12.63-3.11c-3.47-3.63-6.44-4.5-11.21-1.39c-5.19,3.39-11.73,3.4-17.04,0.11c-4.44-2.75-7.84-2.7-11.75,0.28
		c-0.98,0.75-2.42,0.85-3.6,1.38c-2.9,1.29-8.09-1.89-8.77,2.01c-1.14,6.53-0.65,13.43-0.1,20.11c0.21,2.52,3.48,1.45,5.37,1.47
		c11.91,0.09,23.81-0.01,35.72,0.06c25.21,0.14,42.16,16.03,42.96,41.13c0.21,6.48,2.4,7.85,8.13,7.47
		c5.92-0.39,11.92-0.35,17.84,0.11c13.71,1.07,21.63,9.56,22.1,23.2c0.15,4.39,0.24,8.78,0.35,13.17c-0.69,6.27-0.7,12.54,0,18.81
		c-0.11,2.06-0.31,4.12-0.31,6.18c-0.01,137.26-0.01,274.51,0,411.77c0,2.06,0.19,4.12,0.28,6.18
		C685.27,823.7,685.23,830.01,685.97,836.31z M374.69,457.8c2.58,0.12,5.16,0.33,7.74,0.33c47.63,0.02,95.27-0.15,142.9,0.2
		c7.26,0.05,8.94-2.06,8.93-9.02c-0.09-76.88,0.17-153.77,0.28-230.65c0.02-14.17-1.15-28.49,8.43-42.58c-12.96,0-24.25,0-35.54,0
		c-41.15,0.02-82.3,0.04-123.45,0.06c-5.16-0.14-10.32-0.4-15.48-0.41c-21.12-0.03-30.95,9.71-30.96,30.69
		c-0.02,61.79-0.02,123.58-0.02,185.36c0,19.91,0.12,39.81-0.1,59.72c-0.05,4.77,0.83,7.05,6.29,6.78
		C354.02,457.78,364.36,457.93,374.69,457.8z M637.65,605.26c0,77.15,0,154.29,0,231.44c0,17.7,0,17.7,17.68,17.69
		c11.63-0.01,11.63-0.01,11.63-11.4c0-155.33,0-310.66,0-465.99c0-20.49-0.01-20.19-20.42-20.61c-6.99-0.15-9.09,1.6-9.07,8.89
		C637.75,445.27,637.65,525.27,637.65,605.26z M553.26,220.48c-0.02,0-0.04,0-0.06,0c0,6.21-0.06,12.43,0.02,18.64
		c0.1,7.74,2.33,9.14,9.11,5.72c5.91-2.98,12.41-4.09,17.82-0.43c8.99,6.07,15.62-5.07,23.82-2.24c0.35-1.18,0.99-2.36,0.99-3.54
		c0.11-12.68,0.67-25.39,0-38.03c-0.77-14.37-12.41-24.47-26.33-24.07c-13.94,0.41-24.78,11.13-25.34,25.33
		C553.06,208.05,553.26,214.27,553.26,220.48z"/>
	<path class="st1" d="M251.83,365.23c6.9-1.46,9.88-5.61,9.52-12.73c-0.36-6.95-0.21-13.94-0.04-20.9
		c0.32-13.56,8.5-22.58,21.82-23.38c7.69-0.46,15.45,0.15,23.17,0.28c-4.34,7.07-7.92,14.35-7.9,22.98
		c0.09,42.13,0.09,84.27,0.12,126.4c-4.98,1.04-8.43,3.94-8.68,9.1c-0.28,5.69,3.76,8.41,8.59,10.13c0.05,9.08,0.1,18.17,0.14,27.25
		c-6.81,4.25-9.16,10.56-9.05,18.35c0.19,14.14,0.23,28.29-0.01,42.43c-0.14,8.02,1.99,14.67,8.93,19.25
		c-0.01,14.09-0.15,28.18,0.06,42.26c0.07,4.49-1.43,9.2,1.19,13.48c-3.41,8.85-3.23,17.69,0.12,26.51
		c-3,8.51-1.29,17.31-1.23,25.93c0.07,10.47-1.72,21.06,1.07,31.44c-3.09,8.28-3.34,16.6-0.32,24.96
		c-1.93,14.06-0.67,28.19-0.81,42.29c-0.06,5.52-1.4,11.24,1.08,16.64c-3.78,9.38-2.83,18.61,0.88,27.75
		c-3.03,1.95-2.11,5.07-2.02,7.73c0.67,19.8-3.3,40.11,6.23,58.98c-7.23,0.1-14.47,0.51-21.69,0.24
		c-11.78-0.43-20.31-8.63-21.58-20.37c-0.3-2.82-0.17-5.68-0.17-8.53c-0.01-145.34-0.03-290.69,0.07-436.03
		c0-7.22-1.1-12.97-9.63-13.98C251.76,404.22,251.8,384.72,251.83,365.23z"/>
	<path class="st2" d="M685.94,393.28c-0.7-6.27-0.69-12.54,0-18.81c33.65,0.03,67.3,0.02,100.96,0.09
		c31.25,0.06,52.01,20.81,52.03,52.13c0.05,77.66,0.02,155.32,0.01,232.97c0,2.32,0.18,4.73-0.36,6.95
		c-1.18,4.82-4.48,7.79-9.49,7.46c-4.86-0.32-8.16-3.19-8.66-8.34c-0.25-2.57-0.13-5.17-0.13-7.76c0-76.36,0-152.73-0.01-229.09
		c0-23.98-11.72-35.67-35.72-35.67C751.69,393.22,718.81,393.25,685.94,393.28z"/>
	<path class="st2" d="M789.56,723.33c0,11.38,0.13,22.76-0.03,34.14c-0.29,20.67-15.44,36.35-35.24,36.69
		c-20.51,0.35-36.88-14.5-37.46-35.4c-0.66-23.52-0.63-47.08-0.02-70.6c0.54-20.83,16.99-35.92,37.34-35.58
		c19.83,0.33,35.08,16.01,35.38,36.61C789.69,700.57,789.56,711.95,789.56,723.33z M770.9,723.31c0-10.87,0.09-21.74-0.02-32.6
		c-0.12-11.79-7.01-19.38-17.46-19.48c-10.09-0.09-17.79,7.16-17.98,18.37c-0.39,22.51-0.35,45.03-0.02,67.53
		c0.16,11.03,7.95,18.4,18.05,18.29c10.18-0.11,17.24-7.56,17.4-18.73C771.02,745.56,770.9,734.43,770.9,723.31z"/>
	<path class="st2" d="M685.97,836.31c-0.74-6.3-0.7-12.61-0.05-18.91c34.42,0.04,68.83,0.21,103.25,0.05
		c18.39-0.09,30.87-12.93,31.08-31.55c0.16-13.71-0.03-27.43,0.06-41.14c0.05-7.58,3.54-11.77,9.55-11.36
		c6.86,0.47,9.08,5.06,9.08,11.21c0.01,14.75,0.33,29.51-0.12,44.25c-0.8,26.24-21.65,46.89-48.06,47.2
		C755.84,836.47,720.9,836.26,685.97,836.31z"/>
	<path class="st2" d="M744.57,478.51c0,16.28,0.04,32.55-0.02,48.83c-0.03,8.4-3.18,12.44-9.51,12.05
		c-7.44-0.46-9.13-5.62-9.13-11.91c-0.01-32.81-0.04-65.62,0.02-98.43c0.01-7.84,3.93-12.86,9.73-12.24
		c7.06,0.76,9.06,5.52,8.98,12.1C744.44,445.44,744.57,461.97,744.57,478.51z"/>
	<path class="st2" d="M762.92,553.89c0-6.18-0.06-12.37,0.02-18.55c0.08-6.18,3.41-9.89,9.47-9.84c5.72,0.05,8.97,3.84,9.06,9.52
		c0.19,12.62,0.2,25.24,0,37.86c-0.09,5.69-3.42,9.45-9.11,9.49c-6.08,0.04-9.31-3.82-9.41-9.94
		C762.84,566.26,762.92,560.07,762.92,553.89z"/>
	<path class="st2" d="M762.92,487.02c0-4.14-0.09-8.28,0.02-12.42c0.16-5.76,3.17-9.54,8.92-9.71c6.2-0.18,9.48,3.74,9.62,9.8
		c0.2,8.53,0.28,17.08-0.05,25.61c-0.21,5.62-3.38,9.36-9.3,9.3c-5.84-0.07-8.93-3.62-9.18-9.39
		C762.77,495.82,762.92,491.42,762.92,487.02z"/>
	<path class="st2" d="M781.56,432.7c0,0.51,0,1.03,0,1.54c-0.03,9.42-3.08,14-9.33,14.02c-6.3,0.02-9.31-4.47-9.33-13.95
		c-0.01-2.31,0.02-4.62,0-6.93c-0.06-6.07,2.88-9.84,8.89-10.55c5.38-0.63,9.39,3.92,9.76,10.48
		C781.65,429.1,781.56,430.91,781.56,432.7z"/>
	<path class="st2" d="M744.53,569.06c0.21,4.85,0.29,9.8-5.17,12.45c-4.71,2.28-8.57,0.77-11.54-3.06
		c-3.19-4.11-2.73-16.05,0.58-19.79c3.34-3.77,7.36-4.56,11.76-2.03C745.02,559.44,744.67,564.26,744.53,569.06z"/>
	<path class="st3" d="M374.63,437.35c0.02,6.82,0.05,13.64,0.07,20.46c-10.33,0.12-20.67-0.03-30.99,0.49
		c-5.46,0.27-6.35-2.01-6.29-6.78c0.22-19.9,0.1-39.81,0.1-59.72c0.01-61.79,0-123.58,0.02-185.36
		c0.01-20.98,9.84-30.72,30.96-30.69c5.16,0.01,10.32,0.27,15.48,0.41c-9.17,12.8-10.43,27.35-9.35,42.41
		c-1.54,0.13-3.07,0.34-4.61,0.39c-5.76,0.17-9.39,2.86-9.68,8.8c-0.3,6.01,3.35,8.86,8.87,9.75c1.77,0.28,3.59,0.31,5.38,0.45
		c0.02,10.18,0.03,20.36,0.05,30.55c-1.54,0.11-3.08,0.27-4.62,0.32c-5.75,0.2-9.41,2.93-9.64,8.84c-0.25,6.39,3.68,9.2,9.61,9.76
		c1.54,0.14,3.08,0.23,4.62,0.34c0,10.2,0.01,20.41,0.01,30.61c-1.8,0.1-3.6,0.13-5.39,0.32c-5.32,0.56-8.67,3.35-8.86,8.86
		c-0.21,5.93,3.23,8.93,8.86,9.66c1.78,0.23,3.59,0.23,5.39,0.34c0,10.2-0.01,20.41-0.01,30.61c-1.54,0.11-3.08,0.2-4.62,0.33
		c-5.97,0.52-9.86,3.37-9.61,9.75c0.22,5.91,3.91,8.63,9.64,8.85c1.54,0.06,3.08,0.22,4.62,0.33c-0.02,10.18-0.03,20.37-0.05,30.55
		c-1.54,0.12-3.08,0.22-4.61,0.38c-5.92,0.6-9.87,3.38-9.63,9.79c0.23,5.94,3.93,8.62,9.67,8.82
		C371.55,437,373.09,437.21,374.63,437.35z"/>
	<path class="st0" d="M298.59,504.36c3.98-1.41,8.13-1.39,12.27-1.39c86.17,0,172.33-0.01,258.5,0.01
		c16.36,0,21.25,4.92,21.26,21.25c0.01,14.23,0.06,28.46-0.02,42.7c-0.06,12.67-5.94,18.81-18.35,18.82
		c-88.24,0.06-176.48,0.04-264.71-0.03c-3.03,0-6.06-0.87-9.08-1.33c-6.95-4.58-9.07-11.23-8.93-19.25
		c0.25-14.14,0.21-28.29,0.01-42.43C289.43,514.92,291.78,508.61,298.59,504.36z M570.26,566.95c1.09,0.22,1.65-0.15,1.47-1.33
		c0.07-12.15-0.18-24.31,0.36-36.44c0.27-6.08-1.5-7.7-7.62-7.67c-51.71,0.25-103.42,0.12-155.14,0.16
		c-20.94,0.02-41.87,0.19-62.81,0.29c-11.06-0.1-22.12-0.06-33.18-0.35c-4.22-0.11-5.22,1.74-5.16,5.54
		c0.16,11.58,0.19,23.17-0.02,34.75c-0.07,4.01,1.23,5.41,5.29,5.3c11.06-0.29,22.12-0.22,33.19-0.29
		C421.19,566.92,495.73,566.93,570.26,566.95z"/>
	<path class="st0" d="M299.67,724.02c6.93-13.78,17.9-21.22,33.52-20.07c13.21,0.97,22.61,8.09,27.84,20.26
		c6.72,15.65,0.24,33.71-14.73,41.83c-14.97,8.12-33.47,3.74-43.18-10.33c-1.46-2.11-2.53-4.48-3.78-6.73
		C296.34,740.62,296.59,732.31,299.67,724.02z M330.06,751.58c7.94,0.2,14.94-6.68,14.95-14.69c0.01-7.8-6.35-14.26-14.22-14.45
		c-8.18-0.19-15.03,6.42-15.02,14.5C315.79,744.57,322.44,751.39,330.06,751.58z"/>
	<path class="st0" d="M299.63,807.91c10.29-23.26,39.58-26.76,55.21-9.76c12.33,13.4,11.67,34.06-1.64,46.65
		c-12.98,12.27-33.55,12.06-46.08-0.64c-2.5-2.54-4.42-5.65-6.61-8.5C296.8,826.51,295.85,817.28,299.63,807.91z M345.01,820.73
		c0.07-7.82-6.22-14.28-14.11-14.48c-8.27-0.21-15.06,6.22-15.12,14.33c-0.05,7.65,6.49,14.42,14.18,14.67
		C337.97,835.51,344.93,828.79,345.01,820.73z"/>
	<path class="st0" d="M299.71,640.14c7-13.73,18.05-21.17,33.61-19.96c13.5,1.05,23.03,8.52,28.08,21.09
		c6.23,15.48-0.44,33.08-15.2,41.06c-14.74,7.97-32.87,3.84-42.7-9.79c-1.35-1.87-2.46-3.92-3.68-5.89
		C296.48,657.83,296.3,648.99,299.71,640.14z M345.01,652.83c-0.17-7.82-6.67-14.16-14.53-14.18c-8.11-0.02-14.93,6.88-14.7,14.88
		c0.21,7.62,7.06,14.34,14.61,14.33C338.37,667.85,345.18,660.85,345.01,652.83z"/>
	<path class="st0" d="M407.11,653.08c0.05-18.33,14.69-32.98,33.04-33.09c18.14-0.1,33.31,14.83,33.41,32.88
		c0.1,18.34-15.38,33.81-33.62,33.62C421.75,686.29,407.06,671.35,407.11,653.08z M454.89,653.32c0.12-7.67-6.34-14.37-14.13-14.66
		c-8.18-0.31-14.93,6.16-15.01,14.37c-0.08,7.9,6.13,14.5,13.91,14.81C447.53,668.14,454.76,661.25,454.89,653.32z"/>
	<path class="st0" d="M407.11,736.8c0.06-18.33,14.68-32.93,33.07-33.01c18.21-0.08,33.29,14.77,33.37,32.86
		c0.09,18.34-15.45,33.84-33.65,33.54C421.59,769.9,407.05,755.09,407.11,736.8z M454.87,736.68c-0.1-7.76-6.61-14.16-14.48-14.24
		c-8.22-0.08-14.75,6.48-14.63,14.72c0.11,7.85,6.55,14.35,14.3,14.42C447.98,751.65,454.97,744.62,454.87,736.68z"/>
	<path class="st0" d="M583.07,821.05c-0.24,18.39-14.99,32.98-33.25,32.87c-18.56-0.11-33.21-15.3-32.83-34.03
		c0.37-18.41,14.98-32.44,33.62-32.29C568.87,787.74,583.31,802.62,583.07,821.05z M549.94,806.24c-8.04,0.03-14.19,6.09-14.34,14.1
		c-0.15,8.32,6.28,14.94,14.47,14.88c8.22-0.06,14.52-6.66,14.32-15.02C564.2,812.21,558,806.21,549.94,806.24z"/>
	<path class="st0" d="M440.43,787.59c18.21-0.01,33.26,15,33.13,33.05c-0.13,18.15-15,33.1-33.12,33.28
		c-18.38,0.19-33.47-15.04-33.33-33.64C407.25,802.01,421.92,787.61,440.43,787.59z M440.1,806.25
		c-7.97,0.05-14.22,6.21-14.35,14.16c-0.13,8.21,6.51,14.97,14.59,14.84c7.75-0.12,14.33-6.61,14.53-14.34
		C455.08,812.86,448.37,806.2,440.1,806.25z"/>
	<path class="st0" d="M583.07,737.18c-0.2,18.41-14.95,33.11-33.12,33.01c-18.6-0.11-33.31-15.24-32.97-33.93
		c0.33-18.39,14.95-32.56,33.51-32.47C568.69,703.89,583.27,718.83,583.07,737.18z M549.86,751.57c8.14,0.07,14.63-6.57,14.53-14.89
		c-0.09-7.95-6.31-14.17-14.24-14.23c-7.98-0.07-14.31,6-14.54,13.95C535.37,744.67,541.78,751.5,549.86,751.57z"/>
	<path class="st0" d="M583.06,653.79c-0.34,18.31-15.32,32.95-33.48,32.72c-18.44-0.24-33.09-15.67-32.61-34.35
		c0.48-18.28,15.39-32.44,33.87-32.17C568.95,620.27,583.41,635.44,583.06,653.79z M549.64,667.84c7.73,0.22,14.38-6.06,14.73-13.9
		c0.38-8.33-5.81-15.08-13.99-15.28c-7.88-0.19-14.4,5.9-14.76,13.78C535.25,660.67,541.56,667.61,549.64,667.84z"/>
	<path class="st0" d="M374.58,237.95c-1.8-0.14-3.61-0.17-5.38-0.45c-5.52-0.88-9.17-3.74-8.87-9.75c0.29-5.94,3.92-8.63,9.68-8.8
		c1.54-0.05,3.08-0.25,4.61-0.39c24.03,0.12,48.06,0.24,72.09,0.35c2.33,0.01,4.65-0.03,6.98,0.03c5.76,0.16,9.43,2.92,9.64,8.84
		c0.23,6.41-3.77,9.34-9.69,9.72c-4.63,0.3-9.3,0.06-13.95,0.08C417.99,237.71,396.29,237.83,374.58,237.95z"/>
	<path class="st0" d="M374.63,437.35c-1.54-0.14-3.07-0.34-4.61-0.4c-5.74-0.21-9.44-2.88-9.67-8.82c-0.25-6.41,3.71-9.2,9.63-9.79
		c1.54-0.15,3.08-0.25,4.61-0.38c24.03,0.12,48.06,0.23,72.09,0.35c2.07,0.01,4.14-0.06,6.2,0.02c6.27,0.25,10.65,2.91,10.44,9.75
		c-0.2,6.39-4.39,8.89-10.4,8.89c-13.96,0-27.92-0.03-41.88,0.03C398.9,437.06,386.76,437.23,374.63,437.35z"/>
	<path class="st0" d="M374.61,337.54c-1.8-0.11-3.61-0.11-5.39-0.34c-5.64-0.72-9.07-3.72-8.86-9.66c0.19-5.52,3.54-8.3,8.86-8.86
		c1.79-0.19,3.59-0.22,5.39-0.32c24.54,0.09,49.08,0.18,73.62,0.27c2.07,0.01,4.15-0.13,6.2,0.06c5.33,0.51,8.69,3.34,8.87,8.86
		c0.19,5.91-3.17,9.37-8.87,9.59c-9.55,0.36-19.12,0.1-28.68,0.14C408.71,337.35,391.66,337.45,374.61,337.54z"/>
	<path class="st0" d="M374.6,287.76c-1.54-0.11-3.08-0.2-4.62-0.34c-5.94-0.56-9.86-3.37-9.61-9.76c0.23-5.91,3.9-8.63,9.64-8.84
		c1.54-0.05,3.08-0.21,4.62-0.32c24.02,0.1,48.05,0.2,72.07,0.3c2.33,0.01,4.65-0.04,6.98,0.03c5.76,0.16,9.41,2.96,9.62,8.86
		c0.23,6.38-3.69,9.44-9.66,9.7c-6.45,0.28-12.92,0.05-19.38,0.08C414.38,287.54,394.49,287.65,374.6,287.76z"/>
	<path class="st0" d="M374.63,387.41c-1.54-0.11-3.08-0.27-4.62-0.33c-5.73-0.23-9.42-2.94-9.64-8.85
		c-0.24-6.38,3.64-9.23,9.61-9.75c1.54-0.13,3.08-0.22,4.62-0.33c24.02,0.1,48.05,0.2,72.07,0.3c2.07,0.01,4.14-0.04,6.2,0.02
		c6.33,0.18,10.62,2.91,10.41,9.73c-0.2,6.37-4.35,8.9-10.37,8.9c-23,0-46-0.01-68.99,0.02
		C380.82,387.13,377.73,387.31,374.63,387.41z"/>
	<path class="st0" d="M500,337.27c-1.81-0.01-3.62,0.08-5.43-0.02c-6.07-0.36-9.87-3.43-9.66-9.69c0.19-5.84,3.93-8.72,9.66-8.9
		c3.61-0.12,7.23-0.03,10.85-0.03c6.04-0.01,10.22,2.66,10.42,8.93c0.22,6.71-4.02,9.62-10.42,9.73
		C503.62,337.3,501.81,337.28,500,337.27z"/>
	<path class="st0" d="M499.95,387.06c-2.07,0-4.15,0.14-6.2-0.03c-5.41-0.44-8.69-3.43-8.87-8.86c-0.2-5.89,3.32-9.07,8.96-9.61
		c3.84-0.37,7.75-0.18,11.62-0.09c6.35,0.15,10.63,3.06,10.38,9.78c-0.23,6.28-4.43,8.9-10.47,8.86c-1.81-0.01-3.62,0-5.43,0
		C499.95,387.09,499.95,387.07,499.95,387.06z"/>
	<path class="st0" d="M500.78,218.93c1.81,0.01,3.62-0.02,5.42,0.02c5.78,0.13,9.45,3,9.67,8.83c0.24,6.33-3.78,9.29-9.69,9.74
		c-3.59,0.27-7.23,0.18-10.84,0.04c-6.24-0.25-10.67-3.02-10.43-9.79c0.22-6.3,4.41-8.89,10.45-8.84
		C497.17,218.93,498.97,218.92,500.78,218.93z"/>
	<path class="st0" d="M500.84,268.8c1.81,0.01,3.62-0.04,5.42,0.02c5.79,0.18,9.38,3.1,9.61,8.92c0.23,5.89-3.38,9.04-8.99,9.59
		c-3.84,0.38-7.75,0.22-11.62,0.09c-6.31-0.2-10.63-3.08-10.35-9.83c0.26-6.28,4.45-8.89,10.5-8.81
		C497.23,268.81,499.04,268.79,500.84,268.8z"/>
	<path class="st0" d="M499.98,436.95c-1.81,0-3.62,0.04-5.42-0.01c-5.77-0.16-9.45-3.03-9.66-8.86c-0.22-6.31,3.75-9.31,9.7-9.71
		c3.6-0.24,7.23-0.15,10.84-0.03c6.29,0.21,10.65,3.05,10.42,9.78c-0.22,6.3-4.44,8.88-10.46,8.85c-1.81-0.01-3.62,0-5.42,0
		C499.98,436.97,499.98,436.96,499.98,436.95z"/>
	<path class="st3" d="M346.54,521.96c0.04,14.98,0.08,29.97,0.12,44.95c-11.06,0.07-22.13,0.01-33.19,0.29
		c-4.06,0.11-5.36-1.29-5.29-5.3c0.21-11.58,0.17-23.17,0.02-34.75c-0.05-3.8,0.94-5.65,5.16-5.54
		C324.42,521.9,335.48,521.86,346.54,521.96z"/>
	<path class="st3" d="M570.26,566.95c0.49-0.44,0.98-0.88,1.47-1.33C571.91,566.8,571.35,567.17,570.26,566.95z"/>
	<path class="st4" d="M330.06,751.58c-7.62-0.2-14.27-7.01-14.28-14.64c-0.02-8.08,6.83-14.69,15.02-14.5
		c7.87,0.18,14.23,6.64,14.22,14.45C345.01,744.91,338,751.79,330.06,751.58z"/>
	<path class="st4" d="M345.01,820.73c-0.07,8.06-7.04,14.78-15.05,14.52c-7.69-0.25-14.23-7.02-14.18-14.67
		c0.06-8.11,6.85-14.54,15.12-14.33C338.79,806.46,345.08,812.91,345.01,820.73z"/>
	<path class="st4" d="M345.01,652.83c0.17,8.03-6.64,15.02-14.63,15.03c-7.55,0.01-14.4-6.71-14.61-14.33
		c-0.22-8,6.59-14.89,14.7-14.88C338.34,638.67,344.84,645.01,345.01,652.83z"/>
	<path class="st4" d="M454.89,653.32c-0.12,7.93-7.36,14.82-15.23,14.51c-7.78-0.3-13.99-6.91-13.91-14.81
		c0.08-8.21,6.83-14.68,15.01-14.37C448.55,638.95,455,645.66,454.89,653.32z"/>
	<path class="st4" d="M454.87,736.68c0.11,7.94-6.88,14.97-14.82,14.9c-7.75-0.07-14.19-6.57-14.3-14.42
		c-0.11-8.24,6.41-14.8,14.63-14.72C448.26,722.52,454.76,728.92,454.87,736.68z"/>
	<path class="st4" d="M549.94,806.24c8.06-0.03,14.26,5.96,14.45,13.97c0.2,8.36-6.1,14.97-14.32,15.02
		c-8.19,0.06-14.62-6.56-14.47-14.88C535.75,812.33,541.9,806.28,549.94,806.24z"/>
	<path class="st4" d="M440.1,806.25c8.27-0.05,14.98,6.61,14.77,14.66c-0.2,7.73-6.78,14.22-14.53,14.34
		c-8.08,0.12-14.73-6.63-14.59-14.84C425.88,812.46,432.13,806.3,440.1,806.25z"/>
	<path class="st4" d="M549.86,751.57c-8.08-0.07-14.49-6.89-14.25-15.17c0.23-7.95,6.56-14.02,14.54-13.95
		c7.94,0.07,14.16,6.28,14.24,14.23C564.49,744.99,558,751.64,549.86,751.57z"/>
	<path class="st4" d="M549.64,667.84c-8.07-0.23-14.39-7.17-14.02-15.41c0.36-7.89,6.88-13.98,14.76-13.78
		c8.19,0.2,14.37,6.96,13.99,15.28C564.02,661.78,557.37,668.06,549.64,667.84z"/>
</g>
</svg>
