<?xml version="1.0" encoding="utf-8"?>
<!-- Generator: Adobe Illustrator 26.1.0, SVG Export Plug-In . SVG Version: 6.00 Build 0)  -->
<svg version="1.1" id="Layer_1" xmlns="http://www.w3.org/2000/svg" xmlns:xlink="http://www.w3.org/1999/xlink" x="0px" y="0px"
	 viewBox="0 0 2000 2000" style="enable-background:new 0 0 2000 2000;" xml:space="preserve">
<style type="text/css">
	.st0{fill:#112DA3;stroke:#000000;stroke-width:0.25;stroke-miterlimit:10;}
	.st1{fill:#D5E0F1;stroke:#000000;stroke-width:0.25;stroke-miterlimit:10;}
	.st2{fill:#D2DDF1;stroke:#000000;stroke-width:0.25;stroke-miterlimit:10;}
	.st3{fill:#55BFDA;stroke:#000000;stroke-width:0.25;stroke-miterlimit:10;}
	.st4{fill:#FBFDFD;stroke:#000000;stroke-width:0.25;stroke-miterlimit:10;}
	.st5{fill:#FAFDFC;stroke:#000000;stroke-width:0.25;stroke-miterlimit:10;}
	.st6{fill:#FEFEFE;stroke:#000000;stroke-width:0.25;stroke-miterlimit:10;}
	.st7{fill:#FDFEFE;stroke:#000000;stroke-width:0.25;stroke-miterlimit:10;}
	.st8{fill:#D4DFF1;stroke:#000000;stroke-width:0.25;stroke-miterlimit:10;}
	.st9{fill:#D3DEF1;stroke:#000000;stroke-width:0.25;stroke-miterlimit:10;}
	.st10{fill:#1140C1;stroke:#000000;stroke-width:0.25;stroke-miterlimit:10;}
	.st11{fill:#1241C2;stroke:#000000;stroke-width:0.25;stroke-miterlimit:10;}
</style>
<path class="st0" d="M1032.5,1661.5c-167.1,0-334.1,0.1-501.2-0.1c-70.4-0.1-125.5-39.5-144.8-102.9c-4.8-15.8-6.5-31.9-6.5-48.2
	c0-282.5-0.1-565,0-847.5c0-78,48.5-137,122.5-149.9c8.4-1.5,17.1-1.6,25.7-1.6c335.9-0.1,671.9-0.2,1007.8,0
	c74.3,0,132.2,47.4,145.8,118.7c2.2,11.5,2.4,23.4,2.4,35.1c0.1,280.7-0.7,561.4,0.6,842.1c0.4,82.4-56.1,141.3-120.1,152.2
	c-11.7,2-23.4,2-35.2,2C1363.9,1661.5,1198.2,1661.5,1032.5,1661.5z M504.4,812.5c1.8,0.2,3.6,0.4,5.4,0.4
	c373.5,0,746.9,0,1120.3,0.3c10.3,0,11.6-3.8,11.6-12.6c-0.4-45.7,0-91.4-0.3-137.2c-0.1-10.8-0.6-21.7-3.6-32.2
	c-14-49.7-51.3-76.8-106.3-76.8c-332.7-0.1-665.4,0-998.1,0c-9.9,0-19.9-0.7-29.5,2.8c-43.2,8.8-75.1,42.7-78.9,86.7
	c-4.7,53.7-0.9,107.6-2,161.3c-0.2,7.4,3.9,7.8,9.4,7.7C456.5,812.7,480.5,812.6,504.4,812.5z M504.3,856.7
	c-23.1-0.2-46.2,0.1-69.2-0.7c-9.7-0.3-12,2.9-12,12.3c0.2,214.1,0.1,428.2,0.3,642.3c0,24.4,5.5,47.5,20.9,67.3
	c23,29.5,53.6,40.6,90.3,40.6c331.4-0.3,662.7-0.2,994.1-0.2c6.3,0,12.7-0.2,19-0.7c44.6-3,81.1-34.8,90.4-78.6
	c3.4-10.9,3.4-22.2,3.4-33.4c0.1-211-0.1-421.9,0.4-632.9c0-13.8-3.4-16.9-17.1-16.9c-369,0.4-737.9,0.3-1106.9,0.3
	C513.3,856.1,508.8,856.5,504.3,856.7z"/>
<path class="st1" d="M504.3,856.7c0,180.2,0.5,360.4-0.3,540.6c-0.3,64.4,52.8,127.8,117,138.7c11.2,1.9,22.3,2.7,33.6,2.7
	c321.9-0.1,643.8-0.1,965.7,0c5.9,0,11.8,0.2,17.6,0.4c-9.3,43.8-45.8,75.6-90.4,78.6c-6.3,0.4-12.7,0.7-19,0.7
	c-331.4,0-662.7-0.1-994.1,0.2c-36.7,0-67.3-11.1-90.3-40.6c-15.4-19.8-20.9-42.9-20.9-67.3c-0.1-214.1,0-428.2-0.3-642.3
	c0-9.3,2.4-12.6,12-12.3C458.1,856.7,481.2,856.5,504.3,856.7z"/>
<path class="st2" d="M504.1,557.2c0,17.9,0,35.8,0.2,53.7c0,4.3-1.3,9.1,3,12.4c-48.4,26.2-48.4,94.9,0.1,121.3
	c-5.9,6.1-2.8,13.7-3,20.5c-0.4,15.7,0,31.5,0.1,47.2c-24,0.2-47.9,0.2-71.9,0.5c-5.5,0.1-9.6-0.3-9.4-7.7
	c1.1-53.8-2.7-107.7,2-161.3C429,599.9,460.9,566,504.1,557.2z"/>
<path class="st3" d="M859,1051c-4.7,22.1-9.8,46.1-14.8,70c-17.1,81.3-34.2,162.7-51.4,244c-0.7,3.1-1.3,6.3-2.2,9.3
	c-2.9,10-11,15.5-19.8,13.6c-9.7-2.1-15.2-10.3-13-21c6.5-32,13.2-64,19.9-96c15.6-74.4,31.3-148.7,47-223.1
	c2.6-12.4,10.7-19.2,20.2-17.6C853.7,1031.8,859.4,1039.5,859,1051z"/>
<path class="st3" d="M1047.3,1207.9c0.7,8-4.7,12.4-9.9,16.8c-30.8,26.4-61.7,52.6-92.6,78.9c-3.8,3.2-7.5,6.6-11.4,9.7
	c-9.5,7.4-19.1,7.1-25.5-0.7c-6.5-7.8-5.2-17.8,3.6-25.4c14.8-12.8,29.8-25.4,44.7-38c13.8-11.8,27.3-23.9,41.6-35.2
	c6.4-5.1,4.7-7.9-0.3-12.1c-25.1-21-50-42.2-75-63.4c-4.1-3.4-8.2-6.9-11.9-10.7c-7.4-7.6-7.9-16.6-1.6-23.9
	c5.8-6.8,15.9-7.6,24-0.9c17.6,14.4,34.9,29.3,52.2,44c17.6,15,35.1,30.1,52.8,45.1C1043,1196.3,1047.1,1200.9,1047.3,1207.9z"/>
<path class="st3" d="M704.5,1318.4c-5.2-0.7-9.5-2.9-13.4-6.2c-34.2-29.1-68.4-58-102.4-87.3c-14.3-12.4-13.7-22.2,0.5-34.2
	c31.8-26.8,63.5-53.9,95.2-80.9c3-2.5,5.9-5.1,9.2-7.3c8.8-6.1,18.1-5.2,23.9,2.1c5.8,7.3,5.1,16.7-2.8,23.8
	c-12.1,11-24.8,21.4-37.3,32c-16.5,14.1-32.9,28.3-49.7,42.1c-5.9,4.8-5,7.2,0.5,11.8c28.6,24,56.8,48.5,85.3,72.7
	c6.5,5.5,8.6,12.2,6.4,20c-1.7,6-6.4,9.2-12.3,10.6C706.5,1317.9,705.5,1318.1,704.5,1318.4z"/>
<path class="st3" d="M889.9,685.5c-0.1-38.1,29.8-68.1,67.9-68.1c37.7,0,68.2,30.6,68.1,68.3c-0.2,36.7-31,67.4-67.6,67.6
	C920.2,753.5,889.9,723.5,889.9,685.5z M933.2,685.8c0.2,14,11.2,24.5,25.2,24.2c13-0.3,23.9-11.4,24-24.4
	c0.1-13.5-11.3-24.8-24.9-24.7C943.3,660.9,933.1,671.5,933.2,685.8z"/>
<path class="st3" d="M507.4,744.7c-48.5-26.4-48.5-95.2-0.1-121.3c46.1-20.7,85.9,5.5,96.7,40.5c7.9,25.5,1.9,48.6-16.6,67.6
	c-19,19.6-42.4,24.5-68.5,17.2C515,747.5,511.2,746,507.4,744.7z M514.7,684.6c0.2,14,11.5,24.9,25.2,24.4
	c12.5-0.5,24-12.4,24.1-24.9c0-12.7-12.8-25.6-25.2-25.3C525.2,659.2,514.5,670.6,514.7,684.6z"/>
<path class="st3" d="M749,617.2c37.3,0.2,67.5,30.2,67.5,67.2c0,36.8-32.1,69.1-68.3,68.7c-37.8-0.5-67.7-30.9-67.6-68.8
	C680.8,645.8,710.2,617,749,617.2z M723.9,684.3c-0.2,13.1,10.3,24.8,22.8,25.4c13.5,0.7,26.4-11.6,26.5-25.1
	c0.1-13.1-10.6-23.7-24-24C734.2,660.2,724.2,669.7,723.9,684.3z"/>
<path class="st4" d="M933.2,685.8c-0.2-14.3,10-24.8,24.2-24.9c13.7-0.1,25,11.1,24.9,24.7c-0.1,13-10.9,24.1-24,24.4
	C944.4,710.3,933.4,699.7,933.2,685.8z"/>
<path class="st5" d="M514.7,684.6c-0.2-13.9,10.5-25.4,24-25.8c12.4-0.3,25.3,12.5,25.2,25.3c0,12.5-11.6,24.4-24.1,24.9
	C526.2,709.5,514.9,698.5,514.7,684.6z"/>
<path class="st4" d="M723.9,684.3c0.2-14.6,10.2-24,25.2-23.7c13.4,0.3,24.1,11,24,24c-0.1,13.5-13,25.8-26.5,25.1
	C734.2,709.1,723.7,697.4,723.9,684.3z"/>
<g>
	<path class="st0" d="M1271.1,1221.9c9.3-12.7,15-26.8,16.6-42.5c0.3-2.8-0.4-4.5-2.6-6.3c-23.3-19.6-34.6-44.7-34.4-75.1
		c0.1-16,0-32,0-48c0.2-51.9,41.7-93,93.8-93.7c39.8-0.5,69.9,15.3,89.6,50c7.5,13.1,10.9,27.5,10.9,42.6c0.1,17.5,0.2,35,0,52.5
		c-0.4,28.4-11.5,52-33.1,70.5c-3.2,2.7-4.2,5.2-3.6,9.2c2.2,16,7.8,30.4,18.4,42.8c0.7,1,1.5,2,2.2,3.1
		c13.1,14.8,29.4,23.7,48.7,27.7c49.3,10.1,81.6,49.5,81.7,99.7c0,17.1-0.1,34.3,0.1,51.4c0.1,5.6-2.1,8.6-7.4,10.5
		c-40.1,14.4-80.7,27.1-123,33.4c-45.8,6.8-91.6,7.9-137.7,3.2c-51.2-5.3-100.2-19.2-148.4-36.9c-4.6-1.7-6.6-4.4-6.5-9.3
		c0.1-17.7,0-35.4,0.1-53.1c0.1-49,32.8-89.1,80.8-98.7c19.5-3.9,36.1-12.6,49.3-27.7C1268.1,1225.4,1269.6,1223.6,1271.1,1221.9z
		 M1341.1,1180.1c50.2,4.2,89-31.2,89.1-81.4c0-16.4,0-32.7,0-49.1c0-5.6-0.5-11-1.7-16.4c-9-40.8-44.3-66.2-87.4-62.7
		c-0.9-0.1-1.9-0.2-2.8-0.2c-40.3,2.4-73.2,36.6-73.7,77c-0.2,18.5-0.1,36.9,0,55.4c0,8.6,1.7,17,4.6,25.2
		C1279.7,1158.4,1311.4,1181.3,1341.1,1180.1z M1177.3,1413.1c29.2,10.5,59.2,17.8,89.9,22.7c44.2,7.1,88.6,8.1,133.1,3.8
		c48.7-4.7,95.6-17.4,141.4-34.1c3-1.1,4-2.4,4-5.7c-0.2-15.6,0-31.2-0.1-46.8c-0.4-42.2-28.4-76.2-69.9-84.6
		c-23.6-4.8-43.4-15.8-58.9-34.3c-12.1-14.4-19.3-31.2-22.3-50.1c-7.6,3.2-15,6.2-22.8,8c-15.1,3.3-30.2,2.4-45.4,0.9
		c-8.3-2.6-16.7-4.8-24.4-8.9c-0.4,0.7-0.6,1-0.7,1.3c-9.3,46.2-37,73.8-83.2,83.4c-35.2,7.3-62.4,36.7-66.7,72.2
		c-2.4,20.1-0.5,40.3-1.1,60.4c-0.1,2.2,0.9,2.9,2.8,3.5C1161.1,1407.5,1169.2,1410.3,1177.3,1413.1z"/>
	<path class="st3" d="M1245,927.9c8.2,0,16.4,0,24.6,0c5.5,0,8.7,2.7,8.6,6.9c-0.1,4.2-3.2,6.7-8.8,6.7c-15.4,0-30.8,0-46.2,0
		c-7,0-8.8,1.8-8.9,8.7c0,13.7,0,27.4,0,41.1c0,6.1-2.3,9.4-6.7,9.5c-4.6,0.1-7-3.2-7-9.7c0-14.1-0.1-28.2,0-42.3
		c0.1-12.9,8.2-21,21.1-21.1C1229.4,927.9,1237.2,927.9,1245,927.9z"/>
	<path class="st3" d="M1428.9,1227c-0.7-1-1.5-2-2.2-3.1c-0.2-8.8,1.3-10.4,10.1-10.4c13.5,0,27,0,40.5,0c6.8,0,8.8-2,8.8-8.8
		c0-14.8,0-29.7,0-44.5c0-6.1,2.4-9.3,6.7-9.4c4.4-0.1,7,3.2,7,9.2c0,15.6,0.1,31.2,0,46.8c-0.1,11.4-8.4,20.3-19.6,20.4
		C1463.2,1227.4,1446.1,1227.1,1428.9,1227z"/>
	<path class="st3" d="M1458.5,927.9c7.2,0,14.5-0.1,21.7,0c11,0.2,19.5,8.6,19.6,19.7c0.2,14.1,0.1,28.2,0,42.3c0,5.3-3,8.9-7.1,8.4
		c-4.8-0.5-6.6-3.7-6.6-8.4c0.1-13.1,0.1-26.3,0-39.4c0-7-1.9-8.8-8.8-8.8c-13.5,0-27,0-40.5,0c-6.3,0-9.1-2.2-9.1-6.8
		s2.8-6.8,9.1-6.9C1444.1,927.9,1451.3,927.9,1458.5,927.9z"/>
	<path class="st3" d="M1271.1,1221.9c-1.5,1.8-3,3.5-4.5,5.3c-15.4,0.1-30.8,0.2-46.3,0.1c-10.8-0.1-19.7-8.8-19.8-19.6
		c-0.2-13.9,0-27.8-0.1-41.7c0-4.7,2-8.1,6.9-8.1c4.8,0,6.9,3.4,6.9,8.1c0,12.9,0,25.9,0,38.8c0,6.8,2,8.8,8.9,8.8
		c11.8,0,23.6,0.4,35.4-0.1C1265.2,1213.2,1269.5,1215.2,1271.1,1221.9z"/>
	<path class="st6" d="M1326.2,1192.9c15.2,1.5,30.3,2.4,45.4-0.9c7.8-1.7,15.2-4.7,22.8-8c2.9,18.9,10.2,35.6,22.3,50.1
		c15.5,18.5,35.4,29.5,58.9,34.3c41.5,8.4,69.6,42.3,69.9,84.6c0.1,15.6-0.1,31.2,0.1,46.8c0,3.2-1,4.6-4,5.7
		c-45.8,16.7-92.7,29.4-141.4,34.1c-44.5,4.3-88.9,3.3-133.1-3.8c-30.6-4.9-60.7-12.2-89.9-22.7c0.1-15.7,0.2-31.4,0.3-47.1
		c0-1.2-0.3-2.2-1.5-2.8c1.2-2,1.6-4.2,1.7-6.5c0.9-17.9,8.1-32.8,22.1-44.2c2.7-2.2,4.8-4.5,3.8-8.2c-1-3.8-3.9-5.3-7.7-5.3
		c0.4-1,0.7-2.2,1.4-3c14-18.6,32.7-30.1,55.3-34.3c25.3-4.7,45.1-17.7,60-38C1319.4,1214.7,1324.9,1204.6,1326.2,1192.9z
		 M1219.8,1302c6.7-0.2,11.4-3.3,11.4-7.8c0-3.9-3.3-7-7.5-6.9c-6.8,0.2-11.4,3.4-11.4,7.9C1212.3,1299.1,1215.6,1302.1,1219.8,1302
		z"/>
	<path class="st7" d="M1341.1,970.5c43-3.5,78.4,21.9,87.4,62.7c1.2,5.4,1.7,10.9,1.7,16.4c-0.1,16.4,0,32.7,0,49.1
		c0,50.2-38.8,85.7-89.1,81.4c-0.4-2.3-2.6-2.5-4.2-3.4c-26.7-15.4-42.6-38.7-44.6-69.2c-1.5-23-2-46.3,0.7-69.4
		c2.7-22.9,13.8-41.3,31.6-55.9C1329.9,977.9,1336.7,975.8,1341.1,970.5z M1350.2,1133.2c3.9-0.8,6.7-2.8,6.8-7.1
		c0.1-2.8,0.2-5.7,0-8.6c-0.3-3.3,0.8-5.1,4.3-6.1c8.2-2.3,15.4-7.1,18.8-14.7c4-9,8.5-14.6,19.4-12.5c3.6,0.7,6.3-2.7,6.3-6.6
		c0-3.9-2.5-6.3-6.4-6.7c-3-0.3-6.1-0.3-9.1-0.1c-3.5,0.3-5-1-6-4.4c-2.5-8.8-7.7-16.5-16-19.7c-9.2-3.6-13-8.4-11.4-18.2
		c0.6-4-2.6-6.8-6.9-6.7c-3.9,0.1-6.2,2.7-6.6,6.6c-0.2,3-0.3,6.1,0,9.1c0.3,3.2-0.9,4.7-4,5.6c-8.8,2.5-16.6,7.7-19.8,16
		c-3.6,9.3-8.5,13.4-18.5,11.8c-3.7-0.6-6.5,2.6-6.5,6.5c-0.1,4.2,2.6,6.6,6.8,7c2.5,0.2,5,0.3,7.4,0c4.2-0.5,6.4,0.8,7.8,5.2
		c2.7,8.2,7.8,15.7,15.8,18.6c9.2,3.3,12.7,8.2,11.2,17.8C1342.8,1130.1,1346.2,1132.3,1350.2,1133.2z"/>
	<path class="st8" d="M1341.1,970.5c-4.4,5.3-11.2,7.4-16.4,11.7c-17.8,14.6-28.8,33-31.6,55.9c-2.8,23.1-2.2,46.4-0.7,69.4
		c2,30.5,17.8,53.8,44.6,69.2c1.6,0.9,3.8,1.1,4.2,3.4c-29.7,1.2-61.4-21.8-72-52.2c-2.8-8.1-4.5-16.5-4.6-25.2
		c-0.1-18.5-0.2-36.9,0-55.4c0.5-40.4,33.5-74.6,73.7-77C1339.2,970.3,1340.2,970.5,1341.1,970.5z"/>
	<path class="st9" d="M1176.1,1363.2c1.2,0.6,1.5,1.6,1.5,2.8c-0.1,15.7-0.2,31.4-0.3,47.1c-8.1-2.8-16.2-5.6-24.3-8.2
		c-1.9-0.6-2.9-1.3-2.8-3.5c0.6-20.1-1.4-40.3,1.1-60.4c4.3-35.6,31.5-64.9,66.7-72.2c46.1-9.6,73.9-37.2,83.2-83.4
		c0.1-0.3,0.3-0.6,0.7-1.3c7.7,4.1,16.1,6.3,24.4,8.9c-1.3,11.7-6.8,21.8-13.5,31c-14.9,20.3-34.7,33.3-60,38
		c-22.6,4.2-41.3,15.7-55.3,34.3c-0.7,0.9-0.9,2-1.4,3c-1.8,1.1-3.7,1.9-5.3,3.2c-16.5,13.7-25.3,31.4-26.6,52.7
		C1163.5,1363.9,1168,1366.8,1176.1,1363.2z"/>
	<path class="st10" d="M1176.1,1363.2c-8.1,3.6-12.6,0.7-12-8.2c1.3-21.3,10.1-39,26.6-52.7c1.6-1.3,3.5-2.2,5.3-3.2
		c3.8-0.1,6.7,1.4,7.7,5.3c1,3.7-1.1,6-3.8,8.2c-14.1,11.4-21.2,26.2-22.1,44.2C1177.7,1359.1,1177.3,1361.2,1176.1,1363.2z"/>
	<path class="st11" d="M1219.8,1302c-4.2,0.1-7.5-2.9-7.4-6.8c0.1-4.5,4.7-7.7,11.4-7.9c4.1-0.1,7.5,3,7.5,6.9
		C1231.2,1298.7,1226.5,1301.9,1219.8,1302z"/>
	<path class="st3" d="M1350.2,1133.2c-3.9-0.9-7.3-3-6.7-7.2c1.5-9.5-1.9-14.4-11.2-17.8c-8-2.9-13.2-10.4-15.8-18.6
		c-1.4-4.4-3.6-5.6-7.8-5.2c-2.4,0.3-4.9,0.2-7.4,0c-4.2-0.3-6.8-2.8-6.8-7c0.1-3.9,2.8-7.1,6.5-6.5c10,1.6,14.9-2.5,18.5-11.8
		c3.2-8.3,11-13.4,19.8-16c3.1-0.9,4.3-2.3,4-5.6c-0.3-3-0.2-6.1,0-9.1c0.3-3.9,2.6-6.5,6.6-6.6c4.2-0.1,7.5,2.7,6.9,6.7
		c-1.5,9.8,2.2,14.6,11.4,18.2c8.3,3.2,13.6,10.9,16,19.7c0.9,3.4,2.5,4.7,6,4.4c3-0.3,6.1-0.2,9.1,0.1c3.9,0.4,6.4,2.8,6.4,6.7
		c0,3.9-2.7,7.3-6.3,6.6c-10.9-2.1-15.4,3.6-19.4,12.5c-3.4,7.6-10.7,12.3-18.8,14.7c-3.5,1-4.5,2.7-4.3,6.1c0.2,2.8,0.1,5.7,0,8.6
		C1356.8,1130.4,1354.1,1132.3,1350.2,1133.2z M1357.3,1098.2c5.5-1.7,9.1-4.7,11.6-8.9c1.8-2.9,2.9-5.1-2.3-5
		c-3.6,0.1-5.9-2.3-6.3-6.1c-0.3-3.8,1.6-6.2,5.1-7.2c5.9-1.7,6.2-2.4,2.1-7.3c-1.6-1.9-3.4-3.6-5.4-5c-2.7-1.9-5-3-5.2,2.2
		c-0.1,3.7-3.1,5.8-6.6,5.9c-3.3,0.1-6.4-1.8-6.6-5.2c-0.5-7.4-3.8-4-6.6-2c-1.8,1.3-3.4,3.1-4.8,4.9c-3.7,4.9-3.4,5.5,2.5,6.3
		c3.9,0.5,6.2,2.7,6.3,6.7c0.1,3.8-2,6-5.6,6.8c-6.2,1.3-6.6,2.7-2.2,7.7c2.5,2.9,5.4,5.3,9.7,5.9c0.3-4.9,1.1-9.9,7.1-9.9
		C1356.2,1088.1,1357.1,1092.9,1357.3,1098.2z"/>
	<path class="st4" d="M1357.3,1098.2c-0.3-5.3-1.1-10.1-7.2-10.1c-6.1,0-6.8,5-7.1,9.9c-4.2-0.7-7.1-3.1-9.7-5.9
		c-4.4-5-4-6.3,2.2-7.7c3.6-0.8,5.7-3,5.6-6.8c-0.1-4.1-2.4-6.2-6.3-6.7c-6-0.8-6.2-1.4-2.5-6.3c1.3-1.8,2.9-3.6,4.8-4.9
		c2.8-2,6.1-5.4,6.6,2c0.2,3.4,3.3,5.3,6.6,5.2c3.5-0.1,6.5-2.2,6.6-5.9c0.2-5.2,2.5-4.2,5.2-2.2c2,1.4,3.9,3.1,5.4,5
		c4.1,4.9,3.8,5.6-2.1,7.3c-3.5,1-5.4,3.5-5.1,7.2c0.3,3.8,2.6,6.2,6.3,6.1c5.3-0.1,4.1,2.1,2.3,5
		C1366.4,1093.5,1362.8,1096.5,1357.3,1098.2z"/>
</g>
</svg>
