<?xml version="1.0" encoding="utf-8"?>
<!-- Generator: Adobe Illustrator 26.1.0, SVG Export Plug-In . SVG Version: 6.00 Build 0)  -->
<svg version="1.1" id="katman_1" xmlns="http://www.w3.org/2000/svg" xmlns:xlink="http://www.w3.org/1999/xlink" x="0px" y="0px"
	 viewBox="0 0 1080 1080" style="enable-background:new 0 0 1080 1080;" xml:space="preserve">
<style type="text/css">
	.st0{fill:#112DA3;stroke:#000000;stroke-width:0.25;stroke-miterlimit:10;}
	.st1{fill:#55BFDA;stroke:#000000;stroke-width:0.25;stroke-miterlimit:10;}
	.st2{fill:#D3E0F3;}
	.st3{fill:#D2DFF3;}
	.st4{fill:#FEFEFE;}
	.st5{fill:#F9FAFD;}
	.st6{fill:#FDFEFE;}
</style>
<g>
	<path class="st0" d="M627.43,714.26c0,39.7,0.03,79.41-0.02,119.11c-0.05,44.5-29.66,74.04-74.19,74.05
		c-88.95,0.01-177.91,0.02-266.86,0c-45.03-0.01-75.13-30.1-75.14-75.08c-0.01-194.39-0.01-388.79,0-583.18
		c0-44.98,30.1-75.03,75.16-75.04c89.21-0.02,178.42-0.02,267.64,0c43.47,0.01,73.3,29.78,73.38,73.27
		c0.07,39.96,0.02,79.92,0.02,119.88c-6.2,0-12.39,0-18.59,0c0-26.02-0.3-52.04,0.2-78.05c0.15-7.7-1.4-10.15-9.74-10.12
		c-107.94,0.33-215.89,0.21-323.83,0.23c-2.83,0-5.66,0.16-8.48,0.24c-9.53-0.08-19.1,0.3-28.58-0.41c-7.14-0.53-8.78,1.8-8.77,8.79
		c0.21,156.17,0.16,312.33,0.16,468.5c0,1.29,0.13,2.59-0.02,3.86c-0.45,3.67,1.02,4.94,4.75,4.84c10.81-0.28,21.64-0.24,32.46-0.32
		c112.31,0.08,224.62,0.14,336.93,0.34c4.27,0.01,5.07-1.48,5.02-5.33c-0.19-15.19-0.08-30.39-0.09-45.59
		C615.03,714.26,621.23,714.26,627.43,714.26z M266.98,260.46c3.09,0.1,6.17,0.27,9.26,0.27c105.64,0.01,211.29,0.01,316.93,0.01
		c15.92,0,15.92,0,15.67-16.15c-0.46-29.65-22.47-51.84-51.97-51.88c-85.8-0.11-171.61-0.04-257.41-0.02
		c-2.05,0-4.11,0.22-6.16,0.33c-10.57-0.93-20.99-0.6-30.98,3.58c-23.47,9.83-37.42,36.19-32.61,61.13c0.69,3.6,2.83,2.99,4.98,2.98
		C245.45,260.68,256.22,260.56,266.98,260.46z M293.29,888.51c1.28,0.11,2.56,0.32,3.84,0.32c87.09,0.02,174.19,0.15,261.28-0.06
		c27.66-0.07,49.74-22.42,50.33-50.31c0.33-15.71-0.3-31.45,0.28-47.14c0.25-6.72-1.94-7.81-8.12-7.8
		c-109,0.2-217.99,0.14-326.99,0.15c-2.31,0-4.63,0.17-6.94,0.27c-10.56-0.09-21.14,0.01-31.69-0.37c-4.45-0.16-5.66,1.29-5.6,5.65
		c0.25,16.5-0.03,33,0.19,49.5c0.14,10.6,3.69,20.23,10.09,28.68C253.44,885.18,271.85,890.72,293.29,888.51z"/>
	<path class="st1" d="M608.84,367.27c6.2,0,12.39,0,18.59,0c64.41,0.07,128.83,0.09,193.24,0.25c22.65,0.06,40.09,14.49,44.31,36.48
		c0.67,3.5,0.68,7.17,0.68,10.76c0.04,83.99,0.05,167.99,0.02,251.98c-0.01,28.9-18.39,47.24-47.32,47.28
		c-63.64,0.09-127.28,0.15-190.93,0.23c-6.2,0-12.39,0-18.59,0c-41.5-0.07-82.99-0.15-124.49-0.22c-14.51-0.02-14.5,0-14.75,14.14
		c-0.03,1.54,0.13,3.15-0.26,4.61c-1.25,4.74-4.19,7.65-9.37,7.5c-4.8-0.14-7.6-3-8.64-7.42c-0.52-2.21-0.29-4.61-0.29-6.93
		c-0.01-122.94-0.01-245.89-0.01-368.83c0-2.06-0.22-4.17,0.14-6.17c0.88-4.81,3.63-8,8.8-8.14c5.54-0.15,8.7,3.04,9.44,8.25
		c0.5,3.54,0.42,7.22,0.12,10.8c-0.36,4.29,1.02,5.76,5.53,5.74C519.66,367.36,564.25,367.35,608.84,367.27z M658.13,497.45
		c-60.33,0-120.66,0.09-180.99-0.13c-5.98-0.02-7.71,1.41-7.69,7.58c0.24,61.1,0.26,122.2-0.02,183.29
		c-0.03,6.46,2.15,7.41,7.86,7.4c113.7-0.15,227.4-0.1,341.09-0.12c18.53,0,28.7-10.12,28.71-28.62
		c0.04-53.88-0.11-107.76,0.18-161.64c0.04-6.63-1.91-7.92-8.17-7.9C778.79,497.55,718.46,497.45,658.13,497.45z M658.06,430.93
		c58.26,0,116.53,0,174.79,0c14.29,0,14.29,0,14.27-14.63c-0.03-20.64-9.6-30.23-30.21-30.23c-112.66-0.01-225.32,0-337.98,0
		c-1.55,0-3.11,0.15-4.64-0.03c-3.82-0.44-4.81,1.33-4.75,4.91c0.18,10.82,0.42,21.67-0.08,32.47c-0.28,6.08,1.52,7.68,7.62,7.65
		C537.4,430.83,597.73,430.93,658.06,430.93z M658.3,449.49c-55.93,0-111.86-0.02-167.79,0.02c-6.65,0.01-15.52-2.18-19.38,1.2
		c-4.52,3.95-0.7,13.1-1.61,19.9c-0.92,6.86,1.53,8.45,8.34,8.44c115.99-0.23,231.97-0.14,347.96-0.23c6.87,0,15.87,3,20.04-1.33
		c4.12-4.29,0.56-13.27,1.35-20.11c0.75-6.48-1.53-8.07-7.97-8.04C778.93,449.6,718.62,449.49,658.3,449.49z"/>
	<path class="st2" d="M266.97,279.57c-0.04,9.76-0.08,19.51-0.12,29.27c-4.66-3.83-9.5-5.15-14.33-0.47
		c-3.53,3.42-3.9,12.56-0.63,16.45c4.64,5.53,9.73,4.39,14.82,0.54c0,5.91,0.01,11.81,0.01,17.72c-3.69-2.64-7.44-4.65-12.04-1.94
		c-4.46,2.63-4.81,6.81-4.8,11.36c0.05,42.43,0,84.85,0.05,127.28c0.01,12.06,6.34,15.62,16.77,9.57
		c0.08,33.18,0.2,66.36,0.23,99.54c0.05,58.65,0.05,117.3,0.06,175.95c-10.82,0.08-21.64,0.04-32.46,0.32
		c-3.73,0.1-5.2-1.17-4.75-4.84c0.16-1.27,0.02-2.57,0.02-3.86c0-156.17,0.05-312.33-0.16-468.5c-0.01-6.99,1.63-9.33,8.77-8.79
		C247.88,279.87,257.44,279.48,266.97,279.57z"/>
	<path class="st3" d="M266.98,783.93c-0.14,20.47-0.47,40.95,1.53,61.35c1.52,15.5,9.01,28.03,20.53,38.23
		c1.7,1.5,4.12,2.22,4.26,4.99c-21.44,2.22-39.85-3.32-53.32-21.12c-6.39-8.45-9.95-18.07-10.09-28.68c-0.22-16.5,0.06-33-0.19-49.5
		c-0.07-4.36,1.15-5.81,5.6-5.65C245.84,783.95,256.41,783.84,266.98,783.93z"/>
	<path class="st3" d="M293.29,193.03c-5.01,6.91-12.4,11.67-16.54,19.52c-4.7,8.93-8.37,17.86-8.42,28.15
		c-0.03,6.59-0.88,13.17-1.36,19.76c-10.77,0.09-21.53,0.22-32.3,0.26c-2.15,0.01-4.29,0.62-4.98-2.98
		c-4.81-24.95,9.15-51.31,32.61-61.13C272.31,192.43,282.72,192.1,293.29,193.03z"/>
	<path class="st4" d="M658.13,497.45c60.33,0,120.66,0.1,180.99-0.15c6.25-0.03,8.2,1.27,8.17,7.9
		c-0.29,53.88-0.14,107.76-0.18,161.64c-0.01,18.51-10.18,28.62-28.71,28.62c-113.7,0.02-227.4-0.03-341.09,0.12
		c-5.7,0.01-7.89-0.94-7.86-7.4c0.28-61.1,0.26-122.2,0.02-183.29c-0.02-6.17,1.71-7.6,7.69-7.58
		C537.47,497.54,597.8,497.45,658.13,497.45z M726.44,667.63c14.17,0,28.35,0.11,42.52-0.02c24.77-0.23,44.2-19.81,44.11-44.28
		c-0.09-24.13-19.41-43.69-43.74-43.84c-28.6-0.18-57.21-0.16-85.81-0.01c-24.93,0.14-43.99,19.5-43.93,44.25
		c0.06,24.33,19.09,43.59,43.56,43.87C697.57,667.76,712,667.63,726.44,667.63z M536.16,615.03c13.13,0,26.26-0.06,39.39,0.03
		c6.3,0.04,10.6-2.47,11.29-9c0.6-5.64-4.14-9.55-11.41-9.57c-26.52-0.08-53.03,0-79.55-0.05c-6.23-0.01-10.65,2.15-11.1,8.98
		c-0.4,6.07,3.67,9.53,11.22,9.58C509.38,615.1,522.77,615.03,536.16,615.03z M596.41,650.58c4.89,0,9.81,0.26,14.68-0.07
		c5.72-0.39,9.03-3.68,8.86-9.55c-0.16-5.5-3.49-8.65-8.83-8.8c-9.78-0.28-19.58-0.23-29.36-0.03c-5.75,0.12-9.37,3.51-9.38,9.18
		c-0.01,5.67,3.6,8.97,9.35,9.23C586.62,650.76,591.52,650.58,596.41,650.58z M543.91,632.08c-4.12,0-8.26-0.22-12.36,0.06
		c-5.37,0.37-8.79,3.6-8.94,8.85c-0.16,5.67,3.31,9.28,9.03,9.51c8.23,0.33,16.49,0.27,24.72,0.01c5.42-0.17,8.74-3.59,8.88-8.84
		c0.16-5.66-3.18-9.15-8.97-9.54C552.17,631.85,548.03,632.07,543.91,632.08z M499.68,650.62c1.54,0,3.08,0.02,4.62,0
		c5.95-0.09,10.08-2.66,10.23-8.96c0.16-6.71-3.99-9.54-10.35-9.61c-3.08-0.03-6.15,0-9.23,0c-6.04,0-10.13,2.83-10.28,8.96
		c-0.16,6.56,3.99,9.59,10.4,9.62C496.61,650.62,498.15,650.62,499.68,650.62z M607.11,614.99c5.52,0.43,10.5-0.35,12.57-6.36
		c1.4-4.06,0.41-8.08-3.24-10.19c-5.87-3.39-12.38-3.11-18.38-0.23c-3.46,1.66-5.01,5.31-4.07,9.17
		C595.69,614.28,601,615.52,607.11,614.99z"/>
	<path class="st4" d="M658.06,430.93c-60.33,0-120.65-0.09-180.98,0.14c-6.1,0.02-7.9-1.57-7.62-7.65
		c0.5-10.8,0.26-21.65,0.08-32.47c-0.06-3.57,0.93-5.35,4.75-4.91c1.53,0.18,3.09,0.03,4.64,0.03c112.66,0,225.32,0,337.98,0
		c20.61,0,30.18,9.59,30.21,30.23c0.02,14.63,0.02,14.63-14.27,14.63C774.58,430.93,716.32,430.93,658.06,430.93z"/>
	<path class="st4" d="M658.3,449.49c60.31,0,120.63,0.11,180.94-0.16c6.44-0.03,8.72,1.56,7.97,8.04
		c-0.79,6.84,2.77,15.82-1.35,20.11c-4.16,4.34-13.17,1.33-20.04,1.33c-115.99,0.08-231.97-0.01-347.96,0.23
		c-6.82,0.01-9.26-1.59-8.34-8.44c0.91-6.8-2.91-15.94,1.61-19.9c3.86-3.38,12.73-1.19,19.38-1.2
		C546.44,449.47,602.37,449.49,658.3,449.49z"/>
	<path class="st0" d="M266.68,489.34c-10.43,6.05-16.76,2.5-16.77-9.57c-0.05-42.43,0-84.85-0.05-127.28
		c-0.01-4.55,0.35-8.73,4.8-11.36c4.6-2.71,8.35-0.7,12.04,1.94c1.65,3.33,1.8,6.87,1.79,10.51c-0.05,41.75-0.05,83.5,0,125.24
		C268.51,482.48,268.3,486.01,266.68,489.34z"/>
	<path class="st0" d="M266.7,325.36c-5.09,3.85-10.18,4.99-14.82-0.54c-3.26-3.89-2.9-13.03,0.63-16.45
		c4.84-4.68,9.67-3.36,14.33,0.47C269.26,314.36,269.16,319.87,266.7,325.36z"/>
	<path class="st0" d="M385.95,830.96c0.02-19.06,15.43-34.41,34.3-34.15c18.72,0.26,33.75,15.35,33.81,33.97
		c0.06,18.83-15.52,34.33-34.41,34.22C401.1,864.88,385.93,849.56,385.95,830.96z M435.49,830.97c0.06-8.36-6.65-15.26-15.03-15.48
		c-8.8-0.23-15.84,6.54-15.91,15.3c-0.07,8.67,7.07,15.75,15.71,15.57C428.55,846.2,435.43,839.24,435.49,830.97z"/>
	<path class="st0" d="M419.78,217.42c11.75,0,16.08,2.58,15.94,9.51c-0.14,6.72-4.19,9.09-15.59,9.09
		c-11.66,0-16.08-2.64-15.94-9.51C404.32,219.89,408.57,217.42,419.78,217.42z"/>
	<path class="st1" d="M726.44,667.63c-14.43,0-28.86,0.13-43.29-0.03c-24.47-0.28-43.49-19.54-43.56-43.87
		c-0.07-24.75,19-44.11,43.93-44.25c28.6-0.16,57.21-0.17,85.81,0.01c24.33,0.15,43.66,19.71,43.74,43.84
		c0.09,24.48-19.34,44.05-44.11,44.28C754.78,667.74,740.61,667.63,726.44,667.63z M726.31,598.02c-14.16,0-28.32-0.11-42.48,0.03
		c-14.65,0.15-25.56,10.99-25.66,25.2c-0.11,14.66,10.8,25.7,25.87,25.77c28.06,0.13,56.13,0.12,84.19,0
		c15-0.06,26.32-11.28,26.26-25.61c-0.06-14.34-11.39-25.28-26.47-25.38C754.12,597.94,740.21,598.01,726.31,598.02z"/>
	<path class="st1" d="M536.16,615.03c-13.39,0-26.77,0.07-40.16-0.03c-7.55-0.05-11.62-3.52-11.22-9.58
		c0.45-6.83,4.87-8.99,11.1-8.98c26.52,0.05,53.03-0.03,79.55,0.05c7.28,0.02,12.01,3.93,11.41,9.57c-0.69,6.53-4.99,9.04-11.29,9
		C562.42,614.96,549.29,615.03,536.16,615.03z"/>
	<path class="st1" d="M596.41,650.58c-4.89,0-9.8,0.18-14.68-0.04c-5.75-0.26-9.36-3.56-9.35-9.23c0.01-5.67,3.63-9.06,9.38-9.18
		c9.78-0.2,19.58-0.25,29.36,0.03c5.33,0.15,8.67,3.3,8.83,8.8c0.17,5.88-3.14,9.17-8.86,9.55
		C606.22,650.84,601.31,650.58,596.41,650.58z"/>
	<path class="st1" d="M543.91,632.07c4.12,0,8.26-0.23,12.36,0.05c5.79,0.39,9.13,3.88,8.97,9.54c-0.15,5.26-3.46,8.67-8.88,8.84
		c-8.23,0.26-16.49,0.32-24.72-0.01c-5.72-0.23-9.19-3.84-9.03-9.51c0.15-5.26,3.57-8.49,8.94-8.85
		C535.66,631.85,539.79,632.08,543.91,632.07z"/>
	<path class="st1" d="M499.68,650.62c-1.54,0-3.08,0.01-4.62,0c-6.41-0.03-10.56-3.06-10.4-9.62c0.15-6.13,4.24-8.97,10.28-8.96
		c3.08,0,6.16-0.03,9.23,0c6.35,0.07,10.51,2.9,10.35,9.61c-0.15,6.3-4.28,8.88-10.23,8.96
		C502.76,650.64,501.22,650.62,499.68,650.62z"/>
	<path class="st1" d="M607.11,614.99c-6.1,0.53-11.42-0.71-13.11-7.61c-0.95-3.86,0.61-7.5,4.07-9.17
		c5.99-2.88,12.5-3.16,18.38,0.23c3.65,2.11,4.64,6.12,3.24,10.19C617.61,614.64,612.63,615.41,607.11,614.99z"/>
	<path class="st5" d="M435.49,830.97c-0.05,8.27-6.93,15.23-15.23,15.39c-8.65,0.17-15.78-6.9-15.71-15.57
		c0.07-8.76,7.11-15.53,15.91-15.3C428.84,815.71,435.54,822.61,435.49,830.97z"/>
	<path class="st6" d="M726.31,598.01c13.9,0,27.81-0.07,41.71,0.02c15.08,0.1,26.41,11.04,26.47,25.38
		c0.06,14.33-11.26,25.54-26.26,25.61c-28.06,0.12-56.13,0.12-84.19,0c-15.07-0.07-25.98-11.11-25.87-25.77
		c0.11-14.21,11.02-25.05,25.66-25.2C697.99,597.9,712.15,598.02,726.31,598.01z"/>
</g>
</svg>
