<?xml version="1.0" encoding="utf-8"?>
<!-- Generator: Adobe Illustrator 26.1.0, SVG Export Plug-In . SVG Version: 6.00 Build 0)  -->
<svg version="1.1" id="Layer_1" xmlns="http://www.w3.org/2000/svg" xmlns:xlink="http://www.w3.org/1999/xlink" x="0px" y="0px"
	 viewBox="0 0 2000 2000" style="enable-background:new 0 0 2000 2000;" xml:space="preserve">
<style type="text/css">
	.st0{fill:#112DA3;stroke:#000000;stroke-width:0.25;stroke-miterlimit:10;}
	.st1{fill:#FDFDFE;stroke:#000000;stroke-width:0.25;stroke-miterlimit:10;}
	.st2{fill:#D3DEF0;stroke:#000000;stroke-width:0.25;stroke-miterlimit:10;}
	.st3{fill:#55BFDA;stroke:#000000;stroke-width:0.25;stroke-miterlimit:10;}
	.st4{fill:#D5E0F1;stroke:#000000;stroke-width:0.25;stroke-miterlimit:10;}
	.st5{fill:#D3DFF1;stroke:#000000;stroke-width:0.25;stroke-miterlimit:10;}
</style>
<g>
	<path class="st0" d="M1792.8,857.7c-8,17.8-7.8,37.6-13.2,56.1c-32.2,109.5-99.8,188.6-202.7,237.4c-37.2,17.7-76.7,28.4-118,31
		c-10.5,0.7-13.8,4.3-13.7,15.2c0.5,89,0.2,177.9,0.3,266.9c0,33.4-7.4,64.4-28,91.6c-24.5,32.3-57.4,49.1-97.1,53.7
		c-6.4,0.7-13,0.5-19.6,0.5c-265.1,0-530.1-0.1-795.2,0.1c-52.4,0-93.9-19.6-122.8-63.9c-14.6-22.5-21.1-47.5-21.1-74.1
		c-0.1-181.7-0.3-363.3,0.2-545c0.2-67.6,58.4-127.6,126.1-131.2c19.5-1,39.1-0.8,58.7-0.8c164.4-0.1,328.9-0.2,493.3,0.4
		c14.4,0,18.7-4.4,20-17.9c8.5-86.7,44-161.3,106.2-221.8c88.4-86.1,195.4-122,317.1-101.3c145.8,24.7,241.9,111.4,291.8,249.8
		c7.9,21.9,12,44.9,14.9,68c0.3,2.5-0.7,5.8,2.8,7.1C1792.8,805.5,1792.8,831.6,1792.8,857.7z M403.2,966.1
		c-0.2,1.8-0.7,3.7-0.7,5.5c0,167.1,0,334.1,0,501.2c0,13.2,2.2,25.9,7.2,38.2c2.5,6,4.8,8.6,10.4,2.6
		c15.9-16.9,32.1-33.6,48.2-50.4c46.4-47.1,92.8-94.2,139.1-141.3c15.7-15.9,31.3-31.9,46.9-47.9c8.6-8.7,18.2-11.4,28.7-3.8
		c10.9,7.9,10.9,21-0.2,32.7c-20.6,21.5-41.7,42.6-62.5,63.9c-41.5,42.7-83,85.5-124.4,128.2c-16.4,16.5-32.6,33.1-49.3,49.3
		c-5.5,5.3-3.9,8,1.7,11.4c17.2,10.6,36.2,14.3,56,14.3c55,0.1,109.9,0,164.9,0c210.1,0,420.1,0,630.2,0c20.8,0,40.8-3.2,58.9-14.2
		c5.1-3.1,8-5.8,2-11.3c-10.6-9.7-20.6-20.1-30.9-30.2c-23.3-24.1-46.4-48.2-69.8-72.2c-45.3-46.2-90.8-92.2-136.1-138.4
		c-10.9-11.2-11.5-23.5-2.4-32c9.1-8.5,19.6-7.4,30.9,3.2c2.7,2.6,5.2,5.3,7.9,7.9c71.5,72.7,142.9,145.4,214.4,218.1
		c3.6,3.7,7.4,7.1,10.8,10.9c6.9,7.8,10.3,4.3,13.1-3.5c4.8-13.3,6.3-27,6.3-41.1c-0.2-85.2-0.1-170.4-0.1-255.6
		c0-27.5,0-27.5-26.9-30.3c-2.8-0.3-5.5-0.8-8.3-1.3c-54.1-8.3-103.7-28.3-149.6-57.9c-11.8-9-23.5-18-35.3-27
		c-8.3-8.1-17-15.9-25-24.3c-59.3-62.7-93.1-137-100.7-223c-0.9-10.2-3.8-12.8-14-12.8c-180.2,0.3-360.3,0.2-540.5,0.3
		c-14.4,0-28.8,1.2-42,7.9c-32.3,12.5-50.4,36.7-57.7,69.8C402,930.9,402.7,948.5,403.2,966.1z M1425.2,489.1
		c-179.5-0.4-327.5,145.9-327.4,326.9c0,184.7,148.2,326.8,326.2,327.7c180.2,0.9,328.2-146.4,328.1-327.2
		C1751.8,636.1,1605.5,489.5,1425.2,489.1z"/>
	<path class="st1" d="M1425.2,489.1c180.3,0.4,326.7,147,326.9,327.4c0.2,180.8-147.9,328-328.1,327.2
		c-178-0.9-326.2-143-326.2-327.7C1097.7,635,1245.7,488.7,1425.2,489.1z M1230.9,897.6c1.9,39.8,21.3,74.8,60.3,97.1
		c39.1,22.3,79.2,21.5,118.1-0.9c27.1-15.5,45.6-41,67.8-62.1c10.9-10.4,12.1-23.8,3.9-32c-8.8-8.8-20.6-7.7-31.8,3.3
		c-15.6,15.3-30.3,31.8-46.9,45.9c-34.8,29.6-81.1,27.2-110.4-4.4c-28.6-30.8-26.2-78.5,5.6-110.5c13.8-13.9,27.9-27.5,41.4-41.6
		c10.7-11.1,11.4-22,3-31c-8.8-9.4-20.2-8.9-31.9,2.3c-15.4,14.8-30.7,29.9-45.4,45.5C1242.4,832.6,1231.1,860.5,1230.9,897.6z
		 M1508.9,622.7c-31,0-53.9,5.7-73.9,19.7c-25,17.5-44.6,40.8-65.7,62.5c-8.1,8.3-8.3,18.9,0.2,27.5c8.6,8.7,18.5,7.3,27.9,1
		c3.1-2,5.5-5,8.1-7.6c13.5-13.5,26.7-27.3,40.6-40.4c30.8-29.1,77.1-29.4,107.3-1.1c29.9,28,33.5,73.9,6.6,105.9
		c-15.5,18.5-33.7,34.7-50.3,52.3c-9.8,10.3-10,21.1-1.4,29.7c7.8,7.8,20.6,7.5,29.9-1.6c17-16.6,34.6-32.8,50.1-50.7
		c32.5-37.5,40.2-80.4,20.1-125.9C1588.5,648.6,1551.8,625.5,1508.9,622.7z M1516.2,747.2c-0.1-9.7-3.4-16.1-10.9-19.4
		c-9.6-4.2-18.2-1.9-25.5,5.4c-46.1,46-92.1,92-138,138.1c-10.2,10.2-10.6,22.8-2.1,30.9c9,8.6,19.8,8,30.5-2.7
		c46.1-45.9,92.1-92,138.1-138C1512.6,757,1516.7,752.5,1516.2,747.2z"/>
	<path class="st2" d="M495.9,1495c16.2,11.8,34.1,19.4,54.1,19.4c259.8,0.2,519.7,0.1,779.5,0c10.3,10.1,20.3,20.4,30.9,30.2
		c6,5.5,3,8.2-2,11.3c-18.1,11.1-38.1,14.2-58.9,14.2c-210.1-0.1-420.1,0-630.2,0c-55,0-109.9,0-164.9,0c-19.9,0-38.8-3.8-56-14.3
		c-5.6-3.4-7.2-6.1-1.7-11.4C463.2,1528.1,479.5,1511.4,495.9,1495z"/>
	<path class="st3" d="M456.5,955.7c27.4,23.7,54.6,47.6,82.3,71.1c82.6,70.1,165.4,140.1,248.2,210c21.3,18,42.3,36.5,64.3,53.6
		c33.8,26.3,72.9,25.9,106.3-1.2c33.2-26.9,65.5-55,98.2-82.7c39.4-33.4,78.8-66.8,118-100.3c3.8-3.3,7.1-7.3,10.6-10.9
		c11.8,9,23.5,18,35.3,27c-29.7,21.7-56.5,46.8-84.7,70.4c-49.9,41.8-98.9,84.7-149.2,126.2c-55.2,45.6-118.2,40.6-176.7-9.5
		c-115.9-99.2-232.9-197.2-349.4-295.6c-18.9-15.9-37.7-31.8-56.6-47.7c-0.5-17.6-1.2-35.2,1.3-52.8
		C421.9,927.5,439.2,941.6,456.5,955.7z"/>
	<path class="st4" d="M403.2,966.1c18.9,15.9,37.7,31.8,56.6,47.7c-4.7,4-3,9.5-3,14.4c-0.1,128.4-0.1,256.9,0,385.3
		c0,17.3,3.4,34.1,11.5,49.6c-16.1,16.8-32.3,33.4-48.2,50.4c-5.6,6-8,3.5-10.4-2.6c-5-12.3-7.2-25-7.2-38.2
		c0-167.1,0-334.1,0-501.2C402.6,969.8,403,967.9,403.2,966.1z"/>
	<path class="st5" d="M456.5,955.7c-17.3-14.1-34.7-28.2-52-42.4c7.3-33.1,25.4-57.4,57.7-69.8C453.5,880.5,457.9,918.3,456.5,955.7
		z"/>
	<path class="st3" d="M1230.9,897.6c0.2-37.2,11.6-65,33.6-88.3c14.7-15.6,30-30.6,45.4-45.5c11.7-11.2,23.1-11.7,31.9-2.3
		c8.4,9,7.7,19.8-3,31c-13.5,14.1-27.7,27.7-41.4,41.6c-31.8,32.1-34.1,79.7-5.6,110.5c29.3,31.6,75.6,34,110.4,4.4
		c16.6-14.1,31.3-30.6,46.9-45.9c11.1-10.9,22.9-12.1,31.8-3.3c8.2,8.2,7.1,21.6-3.9,32c-22.2,21.1-40.7,46.5-67.8,62.1
		c-39,22.3-79.1,23.2-118.1,0.9C1252.1,972.5,1232.8,937.5,1230.9,897.6z"/>
	<path class="st3" d="M1508.9,622.7c42.8,2.8,79.6,25.9,99.6,71.2c20.2,45.5,12.4,88.5-20.1,125.9c-15.5,17.9-33.1,34.1-50.1,50.7
		c-9.3,9.1-22.1,9.5-29.9,1.6c-8.6-8.6-8.4-19.3,1.4-29.7c16.6-17.6,34.8-33.8,50.3-52.3c26.9-32,23.4-77.9-6.6-105.9
		c-30.2-28.3-76.5-28-107.3,1.1c-13.9,13.1-27.1,26.9-40.6,40.4c-2.6,2.6-5.1,5.6-8.1,7.6c-9.4,6.3-19.4,7.7-27.9-1
		s-8.3-19.2-0.2-27.5c21.1-21.7,40.7-45,65.7-62.5C1455.1,628.4,1477.9,622.8,1508.9,622.7z"/>
	<path class="st3" d="M1516.2,747.2c0.5,5.3-3.6,9.9-7.9,14.2c-46,46-92,92.1-138.1,138c-10.8,10.7-21.6,11.4-30.5,2.7
		c-8.4-8.1-8-20.7,2.1-30.9c45.9-46.2,92-92.1,138-138.1c7.3-7.3,15.9-9.6,25.5-5.4C1512.8,731.1,1516.2,737.5,1516.2,747.2z"/>
</g>
</svg>
