<?xml version="1.0" encoding="utf-8"?>
<!-- Generator: Adobe Illustrator 26.1.0, SVG Export Plug-In . SVG Version: 6.00 Build 0)  -->
<svg version="1.1" id="Layer_1" xmlns="http://www.w3.org/2000/svg" xmlns:xlink="http://www.w3.org/1999/xlink" x="0px" y="0px"
	 viewBox="0 0 2000 2000" style="enable-background:new 0 0 2000 2000;" xml:space="preserve">
<style type="text/css">
	.st0{fill:#112DA3;stroke:#000000;stroke-width:0.25;stroke-miterlimit:10;}
	.st1{fill:#D1DEF3;stroke:#000000;stroke-width:0.25;stroke-miterlimit:10;}
	.st2{fill:#FCFCFE;stroke:#000000;stroke-width:0.25;stroke-miterlimit:10;}
	.st3{fill:#55BFDA;stroke:#000000;stroke-width:0.25;stroke-miterlimit:10;}
	.st4{fill:#FEFEFE;}
	.st5{fill:#55BFDA;}
</style>
<g>
	<g>
		<path class="st0" d="M430.6,1155.2c0-191.4,0-382.8,0-574.2c0-21.6,3.8-25.4,25.1-25.4c197,0,393.9,0.1,590.9-0.2
			c10.6,0,18.4,2.8,25.9,10.6c54.4,57.3,109.1,114.4,164,171.3c6.4,6.7,9,13.7,9,22.9c-0.2,323.9-0.1,647.7-0.1,971.6
			c0,8.7,0.1,17.3-9.4,22c-9.2,4.5-15.4-1.4-21.8-6.4c-24.7-19.7-49.5-39.3-73.9-59.4c-6.5-5.4-10.5-5.2-17,0.2
			c-24.7,20.4-50.2,39.8-74.9,60.2c-10.5,8.7-19,8.4-29.4-0.2c-23.3-19.4-47.8-37.4-70.7-57.2c-10-8.7-16-7.4-25.3,0.6
			c-23.1,19.6-47.5,37.7-70.8,57c-10,8.2-18.2,8.5-28.2,0.2c-25-20.7-50.8-40.4-75.8-61.1c-6.1-5-10-4.9-16.2,0.2
			c-24.4,20.1-49.2,39.6-74,59.3c-14.4,11.5-17.5,11.4-32.2-0.3c-23.4-18.7-47.3-36.6-69.8-56.3c-9.8-8.6-15.5-6.8-24.2,0.6
			c-22.9,19.2-46.5,37.6-69.9,56.2c-6.3,5-12.5,11-21.7,6.7c-9.5-4.5-9.6-13-9.6-21.8C430.6,1539.7,430.6,1347.4,430.6,1155.2z
			 M522.6,1658.2c23.5-16.4,21.5-16.4,45.6,2.9c22.3,17.9,44.8,35.5,66.9,53.7c5.3,4.3,8.6,4.4,13.9,0c25.1-20.6,50.6-40.6,76-60.9
			c12.7-10.1,17.3-10.2,30.2,0c25.1,19.9,50.3,39.7,74.9,60.1c6.3,5.3,10.1,4.6,16-0.2c24.1-19.8,48.6-39,72.9-58.5
			c15-12,18.5-12,33.2-0.4c23.7,18.9,47.7,37.4,71,56.8c7.8,6.5,12.6,7.6,21.1,0.4c24.4-20.7,49.9-40.1,74.8-60.3
			c8.7-7.1,16.6-7.2,25.2-0.1c15.9,13,31.9,25.7,48,38.4c6.8,5.4,13.7,10.6,21.5,16.6c0.4-3.3,0.6-4.6,0.6-5.8
			c0-307.5,0-615.1,0.2-922.6c0-8.6-2.5-10.6-10.8-10.5c-47.4,0.4-94.8,0.2-142.2,0.2c-16.7,0-21.3-4.6-21.4-21.2
			c-0.1-48.7-0.3-97.4,0.2-146.1c0.1-11.2-2.1-14.9-14.3-14.9c-138.8,0.5-277.6,0.3-416.4,0.3c-29,0-58.1,0.3-87.1,0.4
			c-14.9-0.2-30,0.5-44.8-0.7c-13.1-1.1-16.9,2.7-16.9,16.4c0.4,363.1,0.3,726.1,0.3,1089.2c0,4.5,0,9,0,16.9
			C483.4,1690.4,503,1674.3,522.6,1658.2z M1071.1,609.4c0,42.2,0.2,80.6-0.2,119c-0.1,7.6,2.5,9.2,9.5,9.1
			c27.7-0.4,55.5-0.2,83.2-0.2c9.1,0,18.2,0,30.1,0C1152.1,694,1112.8,652.9,1071.1,609.4z"/>
		<path class="st1" d="M522.7,586.7c0,33.9,0,67.9-0.1,101.8c-15.3,1-14.2,1.1-15.6,26.7c-0.8,14.4,7.7,11.8,15.6,12.4
			c0,9.8,0,19.7,0,29.6c-13.1-1.9-15.5,4.2-15.5,16.5c0.5,121.9,0.5,243.8,0,365.7c0,12.2,2.1,18.6,15.5,16.4
			c0,167.5,0,334.9,0,502.4c-19.6,16.1-39.2,32.2-61.2,50.3c0-7.9,0-12.4,0-16.9c0-363.1,0.1-726.1-0.3-1089.2
			c0-13.7,3.8-17.5,16.9-16.4C492.7,587.3,507.7,586.6,522.7,586.7z"/>
		<path class="st2" d="M1071.1,609.4c41.7,43.5,81,84.5,122.7,128c-11.9,0-21,0-30.1,0c-27.7,0-55.5-0.2-83.2,0.2
			c-7,0.1-9.6-1.5-9.5-9.1C1071.3,690,1071.1,651.6,1071.1,609.4z"/>
		<path class="st3" d="M837.9,1191.8c73.8,0,147.7,0.3,221.5-0.3c12.1-0.1,15.2,3.6,14.6,15c-0.6,9.8,0.9,17.1-13.9,17.1
			c-148.1-0.6-296.2-0.7-444.3,0.1c-16.7,0.1-12.7-9.1-13.9-18.4c-1.5-12.3,4-13.7,14.5-13.7C690.2,1192,764.1,1191.8,837.9,1191.8z
			"/>
		<path class="st3" d="M837.9,1325.8c-74.3,0-148.5-0.4-222.8,0.4c-14.3,0.2-13.2-7-13.1-16.4c0.1-8.9-1.1-15.7,12.5-15.6
			c149,0.5,297.9,0.5,446.9,0c13.7-0.1,12.3,6.9,12.5,15.7c0.2,9.5,1.1,16.6-13.2,16.4C986.4,1325.4,912.2,1325.8,837.9,1325.8z"/>
		<path class="st3" d="M839.3,1397c73.8,0,147.7,0.3,221.5-0.3c11.2-0.1,14.1,3.7,12.9,13.8c-1,8.5,3.7,18.2-12.6,18.2
			c-149-0.6-297.9-0.6-446.9,0c-15.4,0.1-11.8-8.8-12.2-17.2c-0.5-8.7-0.8-15,11.9-14.8C689.1,1397.3,764.2,1397,839.3,1397z"/>
		<path class="st3" d="M838.1,1499.5c74.3,0,148.5,0.3,222.8-0.3c11.3-0.1,14,3.8,12.9,13.9c-0.9,8.6,3.6,18.2-12.7,18.1
			c-149-0.6-297.9-0.6-446.9,0c-15.3,0.1-11.7-8.8-12.2-17.2c-0.5-8.8-0.7-14.9,12-14.8C688.7,1499.8,763.4,1499.5,838.1,1499.5z"/>
		<path class="st3" d="M735.5,1120.7c-40.5,0-81-0.3-121.5,0.2c-9.5,0.1-12.5-2.7-12.1-12.3c1-22.6-2.5-19.2,18.8-19.3
			c78.5-0.1,156.9,0.3,235.4-0.4c13.5-0.1,12.7,6.5,12.6,15.5c-0.1,9.2,1.7,17-12.9,16.6C815.7,1120,775.6,1120.7,735.5,1120.7z"/>
		<path class="st1" d="M513.5,1658.2h-42.9c-5.1,0-9.2-4.1-9.2-9.2V595.2c0-5.1,4.1-9.2,9.2-9.2h42.9c5.1,0,9.2,4.1,9.2,9.2V1649
			C522.6,1654.1,518.5,1658.2,513.5,1658.2z"/>
		<path class="st0" d="M522.7,1089.2c-7.9-0.7-16.4,2-15.6-12.4c1.4-25.6,0.3-25.7,15.6-26.7c15.9,1,14.8,1.1,16.1,27.3
			C539.5,1092.6,529.8,1087.9,522.7,1089.2z"/>
		<path class="st0" d="M522.7,1517.3c-13.3,2.2-15.5-4.2-15.5-16.4c0.5-121.9,0.5-243.8,0-365.7c0-12.3,2.4-18.4,15.5-16.5
			c13.7-2,16,4.4,15.9,17.1c-0.5,121.5-0.5,243.1,0,364.6C538.7,1513.1,536.3,1519.5,522.7,1517.3z"/>
	</g>
	<g>
		<path class="st3" d="M626.7,1016c-0.7-1.2-2.1-1.1-3.1-1.7c-5.7-3.1-7.8-8.1-7.8-14.3c0-14.5,0-29,0-43.5c0-32.5,0-64.9,0.1-97.4
			c0-3.2-0.8-3.2-3.4-2.3c-5.1,1.9-10.3,3.5-15.5,5.1c-8.2,2.6-16.1-1.1-18.7-8.8c-2.6-7.7,1.4-15.5,9.5-18.3
			c8.4-2.9,16.9-5.7,25.4-8.4c1.8-0.6,2.6-1.3,2.6-3.4c-0.1-7.3-0.2-14.6,0-21.9c0-2.5-0.7-2.7-2.8-1.9c-5.3,1.9-10.7,3.6-16,5.3
			c-8.3,2.6-16.1-1.1-18.7-8.8c-2.6-7.8,1.3-15.5,9.5-18.3c8.4-2.9,16.9-5.8,25.4-8.4c2-0.7,2.6-1.5,2.6-3.7
			c-0.1-16.3-0.1-32.7,0-49c0-7.6,3.3-12.8,9.4-15.1c9.5-3.5,19.2,3.3,19.3,13.8c0.1,12.5,0,25.1,0,37.6c0,1.8,0,3.6,0,5.8
			c9.3-3.1,18.4-6.1,27.4-9.1c9.9-3.3,19.8-6.7,29.7-9.9c6.6-2.1,12.8-0.2,16.5,4.9c3.7,5.1,3.9,11.5,0.3,16.7c-2.1,3-5,4.7-8.4,5.9
			c-20.9,7-41.8,14-62.7,20.8c-2.3,0.7-3,1.7-2.9,4c0.2,7.9,0.1,15.8,0.1,23.7c1.5,0.3,2.5-0.4,3.7-0.8
			c17.8-5.9,35.6-11.9,53.4-17.7c9-2.9,17.1,1.7,19.2,10.5c1.6,7.1-2.6,14-10.3,16.7c-8.6,3-17.3,5.8-25.9,8.7
			c-12.5,4.2-25.1,8.4-37.6,12.5c-1.9,0.6-2.4,1.5-2.4,3.5c0.1,45,0.1,90,0,135c0,2.5,0.7,2.6,2.9,2.3c18.1-2.5,35-8.5,50.5-18.2
			c17.7-10.9,31.9-25.4,42.7-43.1c8-13.1,13.4-27.2,16.3-42.2c1.5-8,2.1-16.1,2.4-24.2c0.3-8.1,5.8-14,13.2-14.5
			c9-0.5,15.7,5.9,15.6,15.1c-0.6,38.7-13.3,73-38.6,102.3c-23.2,26.9-52.5,43.9-87.2,51.4c-6.4,1.4-12.9,2.4-19.5,2.7
			c-0.5,0-1-0.1-1.2,0.6C636.6,1016,631.7,1016,626.7,1016z"/>
	</g>
</g>
<g>
	<path class="st4" d="M1292.7,352.3c37.1,2.3,72.8,10.1,107.2,22.4c51.1,18.3,95.9,45.1,133.5,80.8c49,46.6,80.6,101.2,94.2,163.7
		c5.8,26.7,7.9,53.9,5.9,81c-5.1,66.1-29.8,126-75.1,179.2c-37.4,43.9-84.4,77.1-140.5,100.2c-40.8,16.9-83.4,28.3-128.9,29.8
		c-6.5-3.2-13.8-2.6-20.7-3.9c-86.4-15.6-159-51.9-216.8-111.2c-31.2-32.1-54.3-68.1-69.6-107.9c-17.9-46.5-23.4-94.3-17.1-143.2
		c4.6-36.2,15.7-70.6,33.3-103.5c24.9-46.5,60.5-85.5,106.2-117.5c40.5-28.4,85.5-48.4,135.3-60.4
		C1257.1,357.6,1275.1,355.6,1292.7,352.3z"/>
	<path class="st5" d="M1541.1,928.7c-45.4,45.8-100.2,75-162.6,89.9c-81.5,19.4-160.2,10.3-235.5-26.5c-8.6-4.2-14.7-9.8-13.7-20.1
		c0.7-7.9,5.5-13.2,13.1-15.7c5.9-2,11.2,0.1,16.4,2.7c31.3,15.5,64.3,25.5,98.9,29.9c4.9,0.6,9.9,0.6,14.8,1.4
		c6.3,1,7.9-1.6,7.7-7.5c-0.4-8.7-0.3-17.5,0-26.3c0.4-11.6,7.9-19.3,18.3-19.2c10.4,0.1,17.7,7.7,18.2,19.4c0.3,8,0.6,16-0.1,24
		c-0.7,8.4,2.4,10.2,10.3,9.4c59.4-6,113-26.6,160.7-62.4c4.9-3.6,9.7-7.3,14.5-11c-0.5,5.9,2.9,7,7.8,6.8c7.6-0.2,15.2,0,22.9-0.1
		C1536.6,923.4,1540.5,923.3,1541.1,928.7z"/>
	<path class="st5" d="M1477.5,425.4c-29.3-17.9-59.4-33.9-92.8-43c-18.4-5-37.1-8.3-56-10.7c-9.2-1.2-13.5,0.7-12.2,11
		c0.8,6.4,0.2,12.9,0.1,19.4c-0.2,14.2-7.1,22.6-18.6,22.4c-11.1-0.2-17.8-8.3-18-21.9c-0.1-7.6-0.5-15.3,0.1-22.9
		c0.6-7.5-2.4-8.9-9.2-8.3c-37.2,3.1-72.6,12.7-106.4,28.5c-2.8,1.3-5.4,2.8-8.2,3.9c-10.9,4.6-20.5,1.4-25.2-8.1
		c-4.7-9.4-1.2-19.3,9.3-24.8c23.4-12.1,47.9-21.5,73.7-27.3c112-25.4,213.6-3.5,304.2,67.6c2.7,2.1,5,4.7,7.4,7
		c-3.2,5.6-8.7,3.3-13.4,3.8C1500.7,423.5,1488.6,419.5,1477.5,425.4z"/>
	<path class="st5" d="M932.4,699.2c-58.7,0-117.3,0-176,0c-3.4,0-7,0.4-10.3-0.4c-9.7-2.2-15.5-8.4-15.2-18.5
		c0.3-9.6,6-15.4,15.2-17.4c2.9-0.6,6.1-0.3,9.1-0.3c117.7,0,235.4,0,353.1,0c3,0,6.2-0.3,9.1,0.3c9.8,1.9,15.7,7.9,15.7,18.1
		c0,10.1-6,16.2-15.8,18c-3.3,0.6-6.8,0.3-10.3,0.3C1049,699.2,990.7,699.2,932.4,699.2z"/>
	<path class="st5" d="M999.7,589.3c-45.3,0-90.7,0-136,0c-5.8,0-11.5-0.2-16.2-4.2c-5.7-4.8-8.2-11.1-6.3-18.4
		c2.1-8.1,7.7-13.2,16.2-13.9c7.6-0.6,15.2-0.2,22.8-0.2c83.4,0,166.9,0,250.3,0c3,0,6.1-0.1,9.1,0.1c10.7,0.7,18.4,8.2,18.6,17.9
		c0.2,10.1-7.8,18.3-19.1,18.5c-22.9,0.3-45.7,0.1-68.6,0.1C1047,589.3,1023.4,589.3,999.7,589.3z"/>
	<path class="st5" d="M999.7,772.4c45.7,0,91.4,0.1,137.1-0.1c8.8,0,15.6,2.7,19.6,10.9c3.2,6.5,2,12.6-2.1,18.3
		c-4.2,5.8-10.1,7.5-17,7.5c-91.8-0.1-183.6,0-275.4-0.1c-13.3,0-21.5-7.4-21.3-18.6c0.2-11.1,8.3-17.9,21.9-18
		C908.3,772.3,954,772.4,999.7,772.4z"/>
	<path class="st5" d="M1066,479.5c-30.8,0-61.7,0-92.5,0c-14.5,0-22.8-6.6-23-18c-0.2-11.5,8.2-18.5,22.4-18.5
		c62.8-0.1,125.6,0,188.5,0c14.9,0,22.6,6.2,22.8,18c0.1,12.2-7.7,18.5-23.4,18.6C1129.2,479.5,1097.6,479.5,1066,479.5z"/>
	<path class="st5" d="M1067.1,882.2c31.6,0,63.2,0,94.8,0c14.7,0,22.4,6.6,22.3,18.4c-0.1,11.8-7.8,18.1-22.7,18.1
		c-62.8,0-125.6,0.1-188.5,0c-14.4,0-22.6-6.9-22.5-18.4c0.1-11.4,8.4-18.1,22.9-18.1C1004.6,882.2,1035.8,882.2,1067.1,882.2z"/>
	<path class="st5" d="M1405.8,598.5c-12.7,13-25.3,26.3-38.4,39c-4.6,4.5-5.3,7.9-2.4,13.7c4.3,8.5,7,17.7,6.1,27.5
		c-12,0-23.9,0-35.9,0c-4.4-22.5-15.6-32.2-37-32.3c-21.3,0-32.6,9.8-37,32.3c-11.9,0-23.9,0-35.8,0c-0.2-47.4,46.7-80.8,94.4-65.5
		c12.9,4.1,20.1,2.1,27.8-7.4c4.2-5.2,9.8-9.4,14.7-14.1c10.2,4.5,21,1.4,31.6,2.2C1398.5,594.2,1403.3,593.1,1405.8,598.5z"/>
	<path class="st5" d="M1541.1,928.7c-0.6-5.3-4.5-5.3-8.4-5.3c-7.6,0-15.2-0.1-22.9,0.1c-4.9,0.1-8.3-1-7.8-6.8
		c2.5-3.1,1.2-5.2-1.3-7.6c-6.3-6-12.5-12.3-18.6-18.5c-9.4-9.7-10.3-20.2-2.7-28.1c7.9-8.2,18.8-7.3,29,2.5
		c5.2,5,10.8,9.7,15.2,15.4c5.9,7.7,9.3,5.1,14.3-1c22.8-27.4,39.7-58.2,52.6-91.2c12.5,0.1,25,0.2,37.5,0.3
		c-13.1,44.7-35.9,84-66.2,119.1C1555.3,915,1549.1,922.8,1541.1,928.7z"/>
	<path class="st5" d="M1225.5,678.6c11.9,0,23.9,0,35.8,0c1.7,24.3,13.7,36.5,36.1,36.8c23.5,0.3,35.7-11.7,37.8-36.8
		c12,0,23.9,0,35.9,0c0.2,60.5-54.1,84.6-98.4,68.9c-9.3-3.3-14.8-1.8-20.4,5.2c-2.1,2.7-4.6,5.2-7.4,7.1
		c-8.2,5.6-16.4,5.8-23.9-1.2c-7.1-6.5-8.7-18.2-1.1-24.5c12.4-10.1,14.9-20,7.7-34.2C1224.5,693.7,1224.1,685.9,1225.5,678.6z"/>
	<path class="st5" d="M1477.5,425.4c11.1-5.9,23.2-2,34.7-3.2c4.7-0.5,10.1,1.9,13.4-3.8c27.1,26,54,52.3,71.6,86.2
		c-13.4,3.2-27,2-40.5,2.3c-7-8.9-14.1-17.8-20.9-26.8c-3.4-4.5-6.1-5.7-10.3-0.7c-4.6,5.5-10.1,10.3-15.2,15.4
		c-11.6,11.5-22,13.2-30.5,4.9c-8.6-8.3-7.1-19.1,4.2-30.5c5.3-5.4,10.5-11,16.2-16c3.7-3.3,3.9-5.6-0.1-8.8
		C1492.4,438.3,1485,431.8,1477.5,425.4z"/>
	<path class="st5" d="M1628,788.5c-12.5-0.1-25-0.2-37.5-0.3c8.3-25.7,14.5-51.7,17.1-78.7c0.9-9.2-2.2-11.1-10.4-10.4
		c-7.5,0.6-15.2,0.3-22.8,0.1c-14.2-0.5-20.7-8.7-18.6-23.2c29.8,0.1,59.6,0.3,89.4,0.4C1645.5,714.6,1641.3,752.2,1628,788.5z"/>
	<path class="st5" d="M1645.2,676.3c-29.8-0.1-59.6-0.3-89.4-0.4c2.5-9.6,9.4-13.3,18.7-13.4c8.4-0.1,16.8-0.4,25.1,0.1
		c6.7,0.4,8.3-2,7.9-8.5c-1.4-22.1-7.4-43.2-12.2-64.6c11.4-5.1,23.5-1.3,35.1-2.6c7.8,14.8,9.4,31.2,11.8,47.3
		C1644.2,648.2,1646.1,662.2,1645.2,676.3z"/>
	<path class="st5" d="M1405.8,598.5c-2.5-5.4-7.4-4.3-11.8-4.6c-10.5-0.8-21.3,2.3-31.6-2.2c21.7-22,43.2-44.1,65.1-65.8
		c7.9-7.8,18.5-7.4,25.7-0.5c7.5,7.2,7.9,18.2-0.2,26.5C1437.5,567.7,1421.6,583,1405.8,598.5z"/>
	<path class="st5" d="M1630.4,586.9c-11.7,1.3-23.7-2.5-35.1,2.6c-9.2-29.2-22.8-56.4-38.5-82.5c13.5-0.3,27.2,0.8,40.5-2.3
		c14.2,22.5,24.1,47,32.3,72.2C1630.6,580,1630.1,583.6,1630.4,586.9z"/>
	<path class="st5" d="M1335.2,678.6c-2.1,25.2-14.3,37.1-37.8,36.8c-22.4-0.3-34.4-12.5-36.1-36.8c4.4-22.4,15.7-32.3,37-32.3
		C1319.6,646.3,1330.8,656.1,1335.2,678.6z"/>
</g>
</svg>
