<?xml version="1.0" encoding="utf-8"?>
<!-- Generator: Adobe Illustrator 26.1.0, SVG Export Plug-In . SVG Version: 6.00 Build 0)  -->
<svg version="1.1" id="Layer_1" xmlns="http://www.w3.org/2000/svg" xmlns:xlink="http://www.w3.org/1999/xlink" x="0px" y="0px"
	 viewBox="0 0 2000 2000" style="enable-background:new 0 0 2000 2000;" xml:space="preserve">
<style type="text/css">
	.st0{fill:#ECFAF6;stroke:#000000;stroke-width:0.25;stroke-miterlimit:10;}
	.st1{fill:#112DA3;stroke:#000000;stroke-width:0.25;stroke-miterlimit:10;}
	.st2{fill:#D1DEF3;stroke:#000000;stroke-width:0.25;stroke-miterlimit:10;}
	.st3{fill:#FCFCFE;stroke:#000000;stroke-width:0.25;stroke-miterlimit:10;}
	.st4{fill:#55BFDA;stroke:#000000;stroke-width:0.25;stroke-miterlimit:10;}
	.st5{fill:#FEFEFE;stroke:#000000;stroke-width:0.25;stroke-miterlimit:10;}
	.st6{fill:#D5E0F1;stroke:#000000;stroke-width:0.25;stroke-miterlimit:10;}
</style>
<path class="st0" d="M1177.8,208.7c1,0,1.4,0.4,1.3,1.4C1178.7,209.7,1178.2,209.2,1177.8,208.7z"/>
<g>
	<path class="st1" d="M430.6,1155.2c0-191.4,0-382.8,0-574.2c0-21.6,3.8-25.4,25.1-25.4c197,0,393.9,0.1,590.9-0.2
		c10.6,0,18.4,2.8,25.9,10.6c54.4,57.3,109.1,114.4,164,171.3c6.4,6.7,9,13.7,9,22.9c-0.2,323.9-0.1,647.7-0.1,971.6
		c0,8.7,0.1,17.3-9.4,22c-9.2,4.5-15.4-1.4-21.8-6.4c-24.7-19.7-49.5-39.3-73.9-59.4c-6.5-5.4-10.5-5.2-17,0.2
		c-24.7,20.4-50.2,39.8-74.9,60.2c-10.5,8.7-19,8.4-29.4-0.2c-23.3-19.4-47.8-37.4-70.7-57.2c-10-8.7-16-7.4-25.3,0.6
		c-23.1,19.6-47.5,37.7-70.8,57c-10,8.2-18.2,8.5-28.2,0.2c-25-20.7-50.8-40.4-75.8-61.1c-6.1-5-10-4.9-16.2,0.2
		c-24.4,20.1-49.2,39.6-74,59.3c-14.4,11.5-17.5,11.4-32.2-0.3c-23.4-18.7-47.3-36.6-69.8-56.3c-9.8-8.6-15.5-6.8-24.2,0.6
		c-22.9,19.2-46.5,37.6-69.9,56.2c-6.3,5-12.5,11-21.7,6.7c-9.5-4.5-9.6-13-9.6-21.8C430.6,1539.7,430.6,1347.4,430.6,1155.2z
		 M522.6,1658.2c23.5-16.4,21.5-16.4,45.6,2.9c22.3,17.9,44.8,35.5,66.9,53.7c5.3,4.3,8.6,4.4,13.9,0c25.1-20.6,50.6-40.6,76-60.9
		c12.7-10.1,17.3-10.2,30.2,0c25.1,19.9,50.3,39.7,74.9,60.1c6.3,5.3,10.1,4.6,16-0.2c24.1-19.8,48.6-39,72.9-58.5
		c15-12,18.5-12,33.2-0.4c23.7,18.9,47.7,37.4,71,56.8c7.8,6.5,12.6,7.6,21.1,0.4c24.4-20.7,49.9-40.1,74.8-60.3
		c8.7-7.1,16.6-7.2,25.2-0.1c15.9,13,31.9,25.7,48,38.4c6.8,5.4,13.7,10.6,21.5,16.6c0.4-3.3,0.6-4.6,0.6-5.8
		c0-307.5,0-615.1,0.2-922.6c0-8.6-2.5-10.6-10.8-10.5c-47.4,0.4-94.8,0.2-142.2,0.2c-16.7,0-21.3-4.6-21.4-21.2
		c-0.1-48.7-0.3-97.4,0.2-146.1c0.1-11.2-2.1-14.9-14.3-14.9c-138.8,0.5-277.6,0.3-416.4,0.3c-29,0-58.1,0.3-87.1,0.4
		c-14.9-0.2-30,0.5-44.8-0.7c-13.1-1.1-16.9,2.7-16.9,16.4c0.4,363.1,0.3,726.1,0.3,1089.2c0,4.5,0,9,0,16.9
		C483.4,1690.4,503,1674.3,522.6,1658.2z M1071.1,609.4c0,42.2,0.2,80.6-0.2,119c-0.1,7.6,2.5,9.2,9.5,9.1
		c27.7-0.4,55.5-0.2,83.2-0.2c9.1,0,18.2,0,30.1,0C1152.1,694,1112.8,652.9,1071.1,609.4z"/>
	<path class="st2" d="M522.7,586.7c0,33.9,0,67.9-0.1,101.8c-15.3,1-14.2,1.1-15.6,26.7c-0.8,14.4,7.7,11.8,15.6,12.4
		c0,9.8,0,19.7,0,29.6c-13.1-1.9-15.5,4.2-15.5,16.5c0.5,121.9,0.5,243.8,0,365.7c0,12.2,2.1,18.6,15.5,16.4
		c0,167.5,0,334.9,0,502.4c-19.6,16.1-39.2,32.2-61.2,50.3c0-7.9,0-12.4,0-16.9c0-363.1,0.1-726.1-0.3-1089.2
		c0-13.7,3.8-17.5,16.9-16.4C492.7,587.3,507.7,586.6,522.7,586.7z"/>
	<path class="st3" d="M1071.1,609.4c41.7,43.5,81,84.5,122.7,128c-11.9,0-21,0-30.1,0c-27.7,0-55.5-0.2-83.2,0.2
		c-7,0.1-9.6-1.5-9.5-9.1C1071.3,690,1071.1,651.6,1071.1,609.4z"/>
	<path class="st4" d="M837.9,1191.8c73.8,0,147.7,0.3,221.5-0.3c12.1-0.1,15.2,3.6,14.6,15c-0.6,9.8,0.9,17.1-13.9,17.1
		c-148.1-0.6-296.2-0.7-444.3,0.1c-16.7,0.1-12.7-9.1-13.9-18.4c-1.5-12.3,4-13.7,14.5-13.7C690.2,1192,764.1,1191.8,837.9,1191.8z"
		/>
	<path class="st4" d="M837.9,1325.8c-74.3,0-148.5-0.4-222.8,0.4c-14.3,0.2-13.2-7-13.1-16.4c0.1-8.9-1.1-15.7,12.5-15.6
		c149,0.5,297.9,0.5,446.9,0c13.7-0.1,12.3,6.9,12.5,15.7c0.2,9.5,1.1,16.6-13.2,16.4C986.4,1325.4,912.2,1325.8,837.9,1325.8z"/>
	<path class="st4" d="M839.3,1397c73.8,0,147.7,0.3,221.5-0.3c11.2-0.1,14.1,3.7,12.9,13.8c-1,8.5,3.7,18.2-12.6,18.2
		c-149-0.6-297.9-0.6-446.9,0c-15.4,0.1-11.8-8.8-12.2-17.2c-0.5-8.7-0.8-15,11.9-14.8C689.1,1397.3,764.2,1397,839.3,1397z"/>
	<path class="st4" d="M838.1,1499.5c74.3,0,148.5,0.3,222.8-0.3c11.3-0.1,14,3.8,12.9,13.9c-0.9,8.6,3.6,18.2-12.7,18.1
		c-149-0.6-297.9-0.6-446.9,0c-15.3,0.1-11.7-8.8-12.2-17.2c-0.5-8.8-0.7-14.9,12-14.8C688.7,1499.8,763.4,1499.5,838.1,1499.5z"/>
	<path class="st4" d="M735.5,1120.7c-40.5,0-81-0.3-121.5,0.2c-9.5,0.1-12.5-2.7-12.1-12.3c1-22.6-2.5-19.2,18.8-19.3
		c78.5-0.1,156.9,0.3,235.4-0.4c13.5-0.1,12.7,6.5,12.6,15.5c-0.1,9.2,1.7,17-12.9,16.6C815.7,1120,775.6,1120.7,735.5,1120.7z"/>
	<path class="st2" d="M513.5,1658.2h-42.9c-5.1,0-9.2-4.1-9.2-9.2V595.2c0-5.1,4.1-9.2,9.2-9.2h42.9c5.1,0,9.2,4.1,9.2,9.2V1649
		C522.6,1654.1,518.5,1658.2,513.5,1658.2z"/>
	<path class="st1" d="M522.7,1089.2c-7.9-0.7-16.4,2-15.6-12.4c1.4-25.6,0.3-25.7,15.6-26.7c15.9,1,14.8,1.1,16.1,27.3
		C539.5,1092.6,529.8,1087.9,522.7,1089.2z"/>
	<path class="st1" d="M522.7,1517.3c-13.3,2.2-15.5-4.2-15.5-16.4c0.5-121.9,0.5-243.8,0-365.7c0-12.3,2.4-18.4,15.5-16.5
		c13.7-2,16,4.4,15.9,17.1c-0.5,121.5-0.5,243.1,0,364.6C538.7,1513.1,536.3,1519.5,522.7,1517.3z"/>
</g>
<path class="st4" d="M1179.1,308.8c0-32.9,0-65.8,0-98.7c0.1-1-0.4-1.4-1.3-1.4c-16.2-0.1-32.3-0.3-48.5-0.2
	c-6.8,0-11.4-2.3-11.9-9.7c-0.4-6.8,3.8-10.4,11.9-10.4c39.6-0.1,79.1-0.1,118.7,0c8.6,0,13.9,4.1,13.2,10.4
	c-0.9,7.5-6.1,9.8-13.1,9.7c-13.9-0.1-27.9,0.2-41.8-0.1c-5.6-0.1-7,1.8-7,7.1c0.2,29.2,0.4,58.5-0.1,87.8c-0.1,7.1,3.6,8.7,8.9,8.8
	c20.5,0.1,40.5,3.7,60.4,8.2c19.7,4.5,38.6,10.9,57.2,18.5c33.2,13.6,62.5,33.5,90.4,55.6c10,7.9,9.6,7.7,19.2-1.3
	c18.7-17.4,37.6-34.6,56.6-51.6c4.8-4.3,5.3-7.2,0.2-11.7c-6.3-5.4-12-11.7-17.8-17.6c-4.9-5-6.1-10.7-1.6-16.4
	c3.1-4,11-2.5,16.1,2.5c19.7,19.7,39.4,39.4,59,59.2c6.4,6.5,12.6,13.3,18.6,20.2c3.8,4.4,4,9.3-0.4,13.2c-4,3.5-8.5,4.9-13.2,0.1
	c-11.6-12-23.7-23.6-35.2-35.7c-4.1-4.4-6.3-4.8-11.1-0.2c-16.2,15.5-33.2,30.1-49.8,45.2c-2.1,1.9-3.7,4.1-5.7,6.1
	c-11.8,11.5-11.4,11.1-0.2,23c24.4,26,42.8,56.1,57.6,88.4c13.3,29,22.2,59.5,26.6,91.1c3.7,26.6,5,53.2,2.4,80.3
	c-3,31.6-9,62.2-19.9,91.8c-13.7,37.4-33.4,71.3-58.8,102.1c-29.4,35.6-64.3,64.1-104.8,86c-37.3,20.2-76.8,32.8-118.8,39
	c-23.8,3.5-47.7,4.2-71.4,2.5c-35.5-2.5-70.2-10.4-103.5-23.9c-88.2-35.9-151.5-98-191.4-183.9c-14.7-31.7-23.9-65.2-27.6-100.2
	c-1.8-16.8-3.7-33.6-3-50.5c2.7-62,19.2-119.8,51.3-173.1c18.7-31,41.9-58.1,68.9-81.8c38-33.3,81.3-57.8,130.3-71.8
	c25.9-7.4,52-12.6,79-13.1c3.3-0.1,6.5-1.1,9.7-1.8C1178.8,310.3,1179.2,309.8,1179.1,308.8z M1217.9,332.3
	c-23.2-0.4-46.2-1.2-69.4,1.4c-35,3.9-68.3,13.5-100,28.3c-38.3,17.8-71.6,42.6-100.5,73.6c-20.6,22.1-38.1,46.2-51.9,72.9
	c-18,34.9-29.8,71.8-34.4,111.1c-3.5,30.2-3.6,60.5,0.7,90.4c5.7,38.8,18.1,75.7,37.7,110c32.6,57.1,76.9,102.3,135.2,133.1
	c50.2,26.5,103.7,39.5,160.6,37.8c6.2-0.2,12.7,1.9,18.8-1.3c40.1-1.5,77.7-13,113.7-29.8c49.5-23.2,91-56.3,124-100.2
	c40-53.2,61.8-113.1,66.3-179.2c1.8-27.1,0-54.3-5.2-81c-12-62.4-39.9-117.1-83.2-163.7c-33.2-35.7-72.7-62.5-117.8-80.8
	C1282.2,342.3,1250.7,334.5,1217.9,332.3z"/>
<path class="st0" d="M1179.1,308.8c0.1,1-0.3,1.5-1.3,1.5C1178.2,309.8,1178.7,309.3,1179.1,308.8z"/>
<path class="st5" d="M1217.9,332.3c32.8,2.3,64.3,10.1,94.6,22.4c45.1,18.3,84.6,45.1,117.8,80.8c43.3,46.6,71.2,101.2,83.2,163.7
	c5.1,26.7,7,53.9,5.2,81c-4.5,66.1-26.3,126-66.3,179.2c-33,43.9-74.5,77.1-124,100.2c-36,16.9-73.6,28.3-113.7,29.8
	c-5.7-3.2-12.2-2.6-18.3-3.9c-76.3-15.6-140.4-51.9-191.3-111.2c-27.5-32.1-47.9-68.1-61.5-107.9c-15.8-46.5-20.6-94.3-15.1-143.2
	c4.1-36.2,13.9-70.6,29.4-103.5c22-46.5,53.4-85.5,93.7-117.5c35.8-28.4,75.5-48.4,119.5-60.4
	C1186.5,337.6,1202.3,335.6,1217.9,332.3z"/>
<path class="st6" d="M1217.9,332.3c-15.6,3.4-31.4,5.3-46.9,9.5c-44,12-83.7,32-119.5,60.4c-40.3,32-71.7,70.9-93.7,117.5
	c-15.5,32.8-25.3,67.2-29.4,103.5c-5.5,49-0.7,96.7,15.1,143.2c13.5,39.8,33.9,75.8,61.5,107.9c51,59.3,115.1,95.7,191.3,111.2
	c6.1,1.2,12.6,0.7,18.3,3.9c-6.1,3.2-12.5,1.1-18.8,1.3c-56.9,1.7-110.4-11.3-160.6-37.8c-58.3-30.8-102.6-76-135.2-133.1
	c-19.6-34.3-32-71.2-37.7-110c-4.4-29.9-4.3-60.1-0.7-90.4c4.6-39.3,16.3-76.2,34.4-111c13.8-26.7,31.3-50.8,51.9-72.9
	c28.9-31,62.2-55.8,100.5-73.6c31.8-14.8,65-24.4,100-28.3C1171.6,331.1,1194.7,331.9,1217.9,332.3z"/>
<path class="st1" d="M1267.1,611.6c18-29.1,36.1-58.2,54.1-87.3c6.1-9.8,5.9-13.7-0.6-17.5c-6.4-3.7-11-1.8-16.5,7
	c-33.4,54-67,107.8-100,162c-4.7,7.8-7.9,7.6-14.9,3.2c-38.6-24.4-77.5-48.2-116.3-72.2c-1.9-1.2-3.7-2.6-5.7-3.4
	c-5.1-2-10-1.5-13.1,3.2c-3.2,4.9-0.8,9.5,2.5,13.4c1.2,1.4,3.2,2.2,4.8,3.2c75.3,46.6,114,70.6,131.4,81.3
	c10.6,6.5,13.3,5.8,20-4.9C1230.7,670.3,1248.9,641,1267.1,611.6z"/>
<g>
	<path class="st4" d="M626.7,1016c-0.7-1.2-2.1-1.1-3.1-1.7c-5.7-3.1-7.8-8.1-7.8-14.3c0-14.5,0-29,0-43.5c0-32.5,0-64.9,0.1-97.4
		c0-3.2-0.8-3.2-3.4-2.3c-5.1,1.9-10.3,3.5-15.5,5.1c-8.2,2.6-16.1-1.1-18.7-8.8c-2.6-7.7,1.4-15.5,9.5-18.3
		c8.4-2.9,16.9-5.7,25.4-8.4c1.8-0.6,2.6-1.3,2.6-3.4c-0.1-7.3-0.2-14.6,0-21.9c0-2.5-0.7-2.7-2.8-1.9c-5.3,1.9-10.7,3.6-16,5.3
		c-8.3,2.6-16.1-1.1-18.7-8.8c-2.6-7.8,1.3-15.5,9.5-18.3c8.4-2.9,16.9-5.8,25.4-8.4c2-0.7,2.6-1.5,2.6-3.7c-0.1-16.3-0.1-32.7,0-49
		c0-7.6,3.3-12.8,9.4-15.1c9.5-3.5,19.2,3.3,19.3,13.8c0.1,12.5,0,25.1,0,37.6c0,1.8,0,3.6,0,5.8c9.3-3.1,18.4-6.1,27.4-9.1
		c9.9-3.3,19.8-6.7,29.7-9.9c6.6-2.1,12.8-0.2,16.5,4.9c3.7,5.1,3.9,11.5,0.3,16.7c-2.1,3-5,4.7-8.4,5.9c-20.9,7-41.8,14-62.7,20.8
		c-2.3,0.7-3,1.7-2.9,4c0.2,7.9,0.1,15.8,0.1,23.7c1.5,0.3,2.5-0.4,3.7-0.8c17.8-5.9,35.6-11.9,53.4-17.7c9-2.9,17.1,1.7,19.2,10.5
		c1.6,7.1-2.6,14-10.3,16.7c-8.6,3-17.3,5.8-25.9,8.7c-12.5,4.2-25.1,8.4-37.6,12.5c-1.9,0.6-2.4,1.5-2.4,3.5c0.1,45,0.1,90,0,135
		c0,2.5,0.7,2.6,2.9,2.3c18.1-2.5,35-8.5,50.5-18.2c17.7-10.9,31.9-25.4,42.7-43.1c8-13.1,13.4-27.2,16.3-42.2
		c1.5-8,2.1-16.1,2.4-24.2c0.3-8.1,5.8-14,13.2-14.5c9-0.5,15.7,5.9,15.6,15.1c-0.6,38.7-13.3,73-38.6,102.3
		c-23.2,26.9-52.5,43.9-87.2,51.4c-6.4,1.4-12.9,2.4-19.5,2.7c-0.5,0-1-0.1-1.2,0.6C636.6,1016,631.7,1016,626.7,1016z"/>
</g>
</svg>
