<?xml version="1.0" encoding="utf-8"?>
<!-- Generator: Adobe Illustrator 26.1.0, SVG Export Plug-In . SVG Version: 6.00 Build 0)  -->
<svg version="1.1" id="Layer_1" xmlns="http://www.w3.org/2000/svg" xmlns:xlink="http://www.w3.org/1999/xlink" x="0px" y="0px"
	 viewBox="0 0 2000 2000" style="enable-background:new 0 0 2000 2000;" xml:space="preserve">
<style type="text/css">
	.st0{fill:#112DA3;stroke:#000000;stroke-width:0.25;stroke-miterlimit:10;}
	.st1{fill:#55BFDA;stroke:#000000;stroke-width:0.25;stroke-miterlimit:10;}
	.st2{fill:#D3E0F3;stroke:#000000;stroke-width:0.25;stroke-miterlimit:10;}
	.st3{fill:#F7FDFC;stroke:#000000;stroke-width:0.25;stroke-miterlimit:10;}
	.st4{fill:#FAFEFD;stroke:#000000;stroke-width:0.25;stroke-miterlimit:10;}
	.st5{fill:#FBFEFD;stroke:#000000;stroke-width:0.25;stroke-miterlimit:10;}
	.st6{fill:#F2F4FB;stroke:#000000;stroke-width:0.25;stroke-miterlimit:10;}
</style>
<g>
	<path class="st0" d="M1113.2,1456.8c-205.3,0-410.7,0.2-616,0c-56-0.1-96.4-42.6-96.5-101c-0.1-229.1,0-458.2,0-687.3
		c0-41.4,0-82.9,0-124.3c0.1-62.5,39.4-101.6,102.3-101.6c13,0,26.1-0.6,39.1,0.2c9.4,0.6,13.3-1.6,12.5-11.9
		c-1-13.4-0.5-27-0.1-40.5c1.3-44.6,37.8-79.5,82.5-79.4c44.7,0.1,80.9,35.2,82.1,79.9c0.4,13.5,0.7,27-0.1,40.5
		c-0.5,9.3,2.6,11.5,11.6,11.5c62.4-0.4,124.8-0.2,187.2-0.2c82.9,0,165.8-0.3,248.6,0.3c12.1,0.1,14.4-3.4,14.2-14.7
		c-0.4-18-2.3-36.3,2.1-54.2c9.3-38,45.8-65.2,83.6-62c42,3.6,74.3,36.4,75.8,77.4c0.6,14.9,0.5,29.8,0,44.7
		c-0.2,6.8,2.1,8.7,8.7,8.6c18.6-0.4,37.3-0.5,55.9,0c49.3,1.4,91.4,41.8,91.6,91.2c0.7,145.7,0.1,291.5,0,437.2
		c-11.1-6.8-22.3-13.6-33.4-20.4c0.1-89.4-0.3-178.7,0.7-268.1c0.2-14.9-4.5-16.8-17.7-16.8c-310.4,0.4-620.9,0.3-931.3,0.3
		c-5.1,0-10.2,0.3-15.3,0.4c-17.2-0.2-34.5,0.6-51.6-0.7c-12.9-1-15.8,3.3-15.8,15.9c0.4,223.4,0.3,446.9,0.3,670.3
		c0,4.2-0.1,8.4,0.2,12.6c2.2,31.2,26.9,56.7,57.3,58.4c11.6,0.7,23.2-0.2,34.8-0.4c4.6,0.2,9.3,0.6,13.9,0.6
		c190.8,0,381.5,0,572.3,0C1112.9,1434.4,1113,1445.6,1113.2,1456.8z M526.5,476.7c-12-0.1-24.1-1-36.1-0.3
		c-29.6,1.8-54.7,26.3-55.8,55.9c-1.1,30.6-0.1,61.2-0.5,91.8c-0.1,6.9,2.4,8.6,8.9,8.5c19.5-0.5,39-0.4,58.4-0.6
		c4.2,0.2,8.4,0.4,12.5,0.4c312.4,0,624.8,0,937.2,0c1.9,0,3.8-0.2,5.6,0c6.6,0.9,8.8-1.6,8.8-8.4c-0.4-29.8,0.5-59.6-0.4-89.4
		c-1-31.6-26.9-57.2-58.4-58.5c-18.6-0.8-37.2,0.1-55.9-0.4c-6.9-0.2-8.7,2.3-8.5,8.8c0.4,15.8,0.4,31.7,0.1,47.5
		c-0.3,13.8-5.8,19.2-19.8,19.3c-40.5,0.1-81,0.2-121.5,0c-14.5-0.1-20.4-6-20.6-20.2c-0.3-14.9-0.6-29.8,0.2-44.7
		c0.5-8.9-2.6-10.8-10.9-10.7c-33.5,0.5-67,0.2-100.6,0.2c-111.7,0-223.5,0.3-335.2-0.4c-12.8-0.1-15.7,3.6-14.8,15.4
		c1,13.4,0.5,27,0.2,40.5c-0.3,13-6.9,19.7-20,19.8c-41.9,0.2-83.8,0.2-125.7,0c-12.4,0-18.8-6.8-19-19.2c-0.2-10.2,0-20.5,0-30.7
		C554.3,474.8,554.3,474.8,526.5,476.7z M587.9,449c0,20,0.3,40-0.2,60c-0.2,7.6,2.3,9.3,9.5,9.2c26.5-0.4,53-0.4,79.5,0
		c7.7,0.1,9.2-2.6,9.1-9.6c-0.3-38.6,0.2-77.2-0.3-115.8c-0.3-27.8-21.7-48.4-49-48.3c-27.2,0.1-48.1,20.8-48.6,48.7
		C587.6,411.7,587.9,430.4,587.9,449z M1308.8,450.6C1308.7,450.6,1308.7,450.6,1308.8,450.6c-0.1-20,0.5-40-0.2-60
		c-0.9-25.4-22.5-45.5-47.5-45.3c-25.1,0.2-46.6,20.4-47,45.8c-0.7,39.5-0.1,79-0.4,118.6c-0.1,6.9,2.4,8.5,8.8,8.4
		c25.6-0.3,51.2-0.5,76.7,0.1c8.3,0.2,9.9-2.9,9.8-10.4C1308.4,488.8,1308.8,469.7,1308.8,450.6z"/>
	<path class="st1" d="M1113.2,1456.8c-0.1-11.2-0.3-22.3-0.4-33.5c2.1-38.9,20-55.8,59.2-55.9c21.6,0,43.2,0,68.8,0
		c-7-4.6-10.8-7.1-14.4-9.5c-147.7-98.5-140.4-315.8,14.2-402.9c73.3-41.3,148.9-40.3,224.5-4.3c11.1,6.8,22.3,13.6,33.4,20.4
		c26.7,22.9,50.3,48.2,66.6,79.8c56,108.5,22.3,238.7-79.5,306.8c-3.7,2.4-7.2,5-14,9.6c26.9,0,49.9-0.1,73,0
		c32.6,0.1,52.1,19.4,51.9,52.2c-0.1,19.3,3.8,39.4-9.3,56.6c-2.1,2.8-0.5,4.9,0.7,7.6c13.4,28.5,13.3,57.3,0.1,85.7
		c-2.3,4.9-0.6,7.3,1.2,11.2c11.9,24.8,10.6,51,3.1,76.1c-5.7,18.9-21.9,29-41.9,29c-129.9,0.3-259.8,0.3-389.7-0.1
		c-26.3-0.1-47-21.1-47.2-47.4c-0.1-20.6-4.8-42.2,9.1-60.8c2.1-2.8,0.6-4.9-0.6-7.6c-13.4-28.5-13.2-57.2-0.2-85.7
		c1.8-4,1.9-6.3-0.2-10C1118.2,1468.7,1115.9,1462.6,1113.2,1456.8z M1155.1,1186c4.8,36.7,18.2,69.8,41.1,99.1
		c3.7,4.8,6.4,5,11.2,1.4c7-5.3,15.1-5.4,21.6,0.8c7,6.8,7,15.2,1.2,22.7c-4.1,5.3-2.2,7.7,2.1,11.1c28.5,22.2,60.8,35.5,96.5,40.7
		c7.3,1.1,10.6-0.4,11.5-8.8c0.8-8.1,7.2-13.1,15.6-13.2c9.1-0.1,15.7,5.1,16.5,13.9c0.7,8.1,4.2,9,10.6,8
		c35.6-5.4,67.9-18.6,96.6-40.5c5.2-3.9,6-6.8,1.4-12.1c-6-6.9-5.2-14.9,1.1-21.4c6.4-6.5,14.7-7.1,21.5-1.6
		c6.7,5.4,9.5,2.1,13.3-2.8c22.1-28.7,34.8-61.2,39.9-96.8c0.7-4.8,1.4-8.9-6.1-9.3c-9.4-0.6-15.7-5.9-15.8-16
		c-0.2-10.8,6.2-16.3,16.4-17c6.6-0.4,6.2-3.9,5.5-8.4c-5.3-36.1-18.5-68.9-40.6-98.1c-3.7-4.9-6.4-6.8-12-1.8
		c-6.8,6-14.7,5.5-21.4-0.8c-6.8-6.3-7.9-14.5-2.2-21.3c5.8-6.9,3.1-9.8-2.6-14c-28.6-21.2-60.6-34-95.7-39.5
		c-6-0.9-9.1-0.4-9.8,7.1c-0.8,9.4-6.9,15.1-17,14.8c-9.4-0.3-14.9-6-15.6-14.7c-0.6-7.5-3.7-8.1-9.7-7.2
		c-35.2,5.2-67.3,17.6-95.7,39.2c-4.9,3.7-9.8,6.7-3.6,14.3c5.5,6.8,4.7,15.1-2,21.4c-6.7,6.2-14.5,6.5-21.4,0.6
		c-4.7-4-7.4-3.7-11.1,1.1c-22.3,29-35.9,61.6-41.1,97.8c-0.8,5.8-0.3,9.3,7.2,9.9c8.9,0.7,14.5,6.8,14.6,15.8
		c0.2,9.8-5.5,15.9-15.1,16.8C1155.5,1177.6,1154.1,1180.3,1155.1,1186z M1355,1400.9c-57.3,0-114.6,0-171.8,0
		c-36.6,0-36.6,0-36.5,37.2c0.1,20.7,3.6,24.3,24.3,24.3c117.8,0,235.6,0,353.5,0c38.9,0,38.9,0,38.6-39.3
		c-0.1-18-4.2-22.1-22.2-22.1C1478.9,1400.9,1416.9,1400.9,1355,1400.9z M1355.5,1591c-56.8,0-113.6,0-170.4,0
		c-38.6,0-38.6,0-38.4,38.1c0.1,19.8,3.7,23.4,23.8,23.4c117.8,0,235.6,0,353.4,0c39.3,0,39.3,0,39.1-38.8
		c-0.1-18.7-4-22.7-23.1-22.7C1478.5,1590.9,1417,1591,1355.5,1591z M1353.4,1557.4c57.3,0,114.6,0,171.8,0c37.8,0,37.8,0,37.8-37.4
		c-0.1-20.7-3.5-24.1-24.5-24.1c-117.8,0-235.6,0-353.4,0c-38.7,0-38.7,0-38.4,39.5c0.1,17.9,4.2,22,22.4,22
		C1230.5,1557.5,1292,1557.4,1353.4,1557.4z"/>
	<path class="st2" d="M501.3,666.5c-0.2,15-0.3,30-0.5,45c-9.4-4.4-18.7-5.1-24.5,4.8c-5.2,8.8-5.5,19.1,0.9,27.6
		c6.4,8.5,15.2,7.5,23.9,3c-0.3,8.9-0.5,17.8-0.8,26.7c-19-5.1-27,0.4-27,19.1c-0.1,77.2-0.1,154.3,0,231.5
		c0,19.5,9.2,25.6,27.8,18.8c0,102.8,0.5,205.5-0.2,308.3c-0.2,25,6.5,46.5,22.7,65.2c1.4,1.6,1.9,4.1,2.9,6.1
		c-11.6,0.2-23.3,1-34.9,0.4c-30.5-1.8-55.1-27.3-57.3-58.4c-0.3-4.2-0.2-8.4-0.2-12.6c0-223.4,0.1-446.9-0.3-670.3
		c0-12.6,2.9-16.9,15.8-15.9C466.8,667.1,484.1,666.4,501.3,666.5z"/>
	<path class="st2" d="M526.5,476.7c-13.3,18.3-26.2,36.7-25.4,61c0.4,12.9,0.1,25.9,0.1,38.9c0,18.5,0.1,37,0.1,55.5
		c-19.5,0.2-39,0.1-58.4,0.6c-6.4,0.2-8.9-1.6-8.9-8.5c0.4-30.6-0.6-61.3,0.5-91.8c1.1-29.6,26.2-54.1,55.8-55.9
		C502.4,475.7,514.5,476.5,526.5,476.7z"/>
	<path class="st3" d="M1155.1,1186c-1-5.7,0.4-8.3,6.9-8.9c9.6-0.9,15.3-7.1,15.1-16.8c-0.2-9.1-5.8-15.1-14.6-15.8
		c-7.5-0.6-8.1-4.1-7.2-9.9c5.2-36.2,18.8-68.8,41.1-97.8c3.7-4.8,6.4-5.1,11.1-1.1c6.9,5.9,14.7,5.7,21.4-0.6
		c6.7-6.3,7.5-14.7,2-21.4c-6.2-7.6-1.3-10.5,3.6-14.3c28.4-21.6,60.5-34,95.7-39.2c6-0.9,9.2-0.2,9.7,7.2
		c0.7,8.7,6.2,14.4,15.6,14.7c10.1,0.3,16.2-5.3,17-14.8c0.7-7.5,3.8-8,9.8-7.1c35.1,5.5,67.1,18.3,95.7,39.5
		c5.7,4.2,8.4,7.2,2.6,14c-5.7,6.8-4.6,15,2.2,21.3c6.7,6.2,14.6,6.8,21.4,0.8c5.6-5,8.3-3.1,12,1.8c22.1,29.2,35.3,62,40.6,98.1
		c0.7,4.4,1,8-5.5,8.4c-10.1,0.7-16.5,6.2-16.4,17c0.2,10.1,6.4,15.5,15.8,16c7.4,0.4,6.7,4.5,6.1,9.3
		c-5.1,35.7-17.7,68.2-39.9,96.8c-3.7,4.8-6.6,8.1-13.3,2.8c-6.8-5.5-15.1-4.9-21.5,1.6c-6.4,6.5-7.1,14.5-1.1,21.4
		c4.6,5.3,3.8,8.2-1.4,12.1c-28.7,21.9-61,35.1-96.6,40.5c-6.5,1-9.9,0-10.6-8c-0.8-8.7-7.3-14-16.5-13.9
		c-8.4,0.1-14.8,5.1-15.6,13.2c-0.9,8.3-4.2,9.8-11.5,8.8c-35.7-5.2-67.9-18.5-96.5-40.7c-4.3-3.4-6.2-5.8-2.1-11.1
		c5.8-7.5,5.8-15.9-1.2-22.7c-6.5-6.3-14.6-6.2-21.6-0.8c-4.8,3.7-7.5,3.4-11.2-1.4C1173.3,1255.8,1159.9,1222.6,1155.1,1186z
		 M1527.8,1161.9c0.1-95.5-77.8-174.3-171.1-173.3c-96.3,1-173.1,77.1-173.3,171.7c-0.3,95.3,77.6,173.3,173,173.3
		C1450.2,1333.6,1527.7,1255.9,1527.8,1161.9z"/>
	<path class="st4" d="M1355,1400.9c61.9,0,123.9,0,185.8,0c18.1,0,22.1,4.1,22.2,22.1c0.3,39.3,0.3,39.3-38.6,39.3
		c-117.8,0-235.6,0-353.5,0c-20.8,0-24.3-3.5-24.3-24.3c-0.1-37.2-0.1-37.2,36.5-37.2C1240.4,1400.9,1297.7,1400.9,1355,1400.9z
		 M1549.1,1432.2c0.1-13.5-5.8-21.4-16.2-21.8c-10.6-0.4-17.1,7.4-17.3,20.7c-0.2,14.2,6.1,22.7,16.9,22.6
		C1542.9,1453.6,1549,1445.7,1549.1,1432.2z M1163.4,1431.4c-0.3,13.5,5.7,22,16.4,22.3c10.4,0.3,17-7.8,17.2-20.9
		c0.2-14.2-6.2-23.1-17.1-22.2C1168,1411.5,1163.1,1419.2,1163.4,1431.4z M1247.3,1432.2c0.1-13.5-5.8-21.4-16.2-21.8
		c-10.6-0.4-17.1,7.5-17.3,20.7c-0.2,14.2,6.1,22.7,16.9,22.6C1241.1,1453.6,1247.2,1445.7,1247.3,1432.2z M1297.6,1432
		c0-13.4-6.1-21.4-16.5-21.6c-10.5-0.2-17,7.7-17.1,20.9c-0.2,14.2,6.3,22.6,17.2,22.3C1291.5,1453.5,1297.6,1445.4,1297.6,1432z
		 M1347.9,1433.2c0.3-14.3-5.8-23.2-16.6-22.7c-11.9,0.6-16.8,8-17,19.6c-0.2,14.4,5.4,23,16,23.6
		C1340.7,1454.3,1347.6,1446.2,1347.9,1433.2z M1364.6,1431.4c-0.3,13.5,5.7,22,16.4,22.3c10.4,0.3,17-7.8,17.2-20.9
		c0.2-14.2-6.2-23.1-17.1-22.2C1369.2,1411.5,1364.3,1419.2,1364.6,1431.4z M1414.9,1430.8c-0.3,14.3,5.8,22.8,16.5,23
		c10.4,0.2,16.7-7.8,17.1-21.1c0.4-11.7-3.1-20.5-15.9-22.1C1422.2,1409.3,1415.2,1417.8,1414.9,1430.8z M1498.8,1432.8
		c0.2-14.2-6.2-23.1-17.1-22.2c-11.9,1-16.5,8.6-16.5,20.1c0,14.3,5.8,22.8,16.5,23.1C1492,1454,1498.6,1446,1498.8,1432.8z"/>
	<path class="st5" d="M1355.5,1591c61.5,0,122.9,0,184.4,0c19.1,0,23,3.9,23.1,22.7c0.2,38.8,0.2,38.8-39.1,38.8
		c-117.8,0-235.6,0-353.4,0c-20.1,0-23.7-3.6-23.8-23.4c-0.2-38.1-0.2-38.1,38.4-38.1C1241.9,1591,1298.7,1591,1355.5,1591z
		 M1515.5,1621.9c0,13.2,6.1,21.2,16.3,21.6c10.7,0.4,17.4-8.1,17.3-22c0-13.1-6.2-21.3-16.3-21.6
		C1522.1,1599.6,1515.4,1608.1,1515.5,1621.9z M1498.8,1622.7c0.2-14-6-22.5-16.6-22.7c-10.2-0.2-16.8,8-17,20.9
		c-0.2,14.2,5.9,22.5,16.6,22.7C1492,1643.7,1498.6,1635.6,1498.8,1622.7z M1448.5,1622.8c0.3-14-5.9-22.6-16.5-22.8
		c-10.2-0.2-16.9,7.9-17.2,20.7c-0.2,14.1,5.9,22.6,16.4,22.8C1441.6,1643.8,1448.3,1635.7,1448.5,1622.8z M1398.2,1622.1
		c0.1-13.9-6.6-22.4-17.2-22.1c-10.2,0.3-16.3,8.4-16.4,21.5c-0.1,13.9,6.5,22.4,17.2,22.1
		C1391.9,1643.3,1398.1,1635.2,1398.2,1622.1z M1347.9,1622.9c0.3-14.1-5.8-22.6-16.4-22.9c-10.2-0.3-17,7.8-17.2,20.7
		c-0.3,14.1,5.8,22.6,16.4,22.9C1340.9,1643.8,1347.7,1635.7,1347.9,1622.9z M1297.6,1622.5c0.2-14-6.1-22.5-16.8-22.5
		c-10.2-0.1-16.7,8.1-16.9,21c-0.2,14.1,6.1,22.5,16.7,22.5C1291,1643.6,1297.4,1635.5,1297.6,1622.5z M1213.7,1621.3
		c-0.1,13.9,6.4,22.4,17.1,22.2c10.2-0.2,16.4-8.3,16.5-21.4c0.1-13.9-6.4-22.4-17.1-22.2
		C1220.1,1600.2,1213.8,1608.3,1213.7,1621.3z M1197,1622.4c0.2-14-6.2-22.5-16.9-22.4c-10.2,0-16.6,8.2-16.7,21.2
		c-0.1,14,6.2,22.4,16.9,22.4C1190.6,1643.5,1196.9,1635.6,1197,1622.4z"/>
	<path class="st5" d="M1353.4,1557.4c-61.5,0-122.9,0-184.4,0c-18.1,0-22.2-4.1-22.4-22c-0.3-39.5-0.3-39.5,38.4-39.5
		c117.8,0,235.6,0,353.4,0c21,0,24.4,3.4,24.5,24.1c0.1,37.4,0.1,37.4-37.8,37.4C1468,1557.4,1410.7,1557.4,1353.4,1557.4z
		 M1549.1,1528c0.3-14-5.9-22.6-16.4-22.9c-10.2-0.3-16.9,7.9-17.2,20.7c-0.3,14.1,5.8,22.6,16.4,22.8
		C1542.2,1548.9,1548.8,1540.9,1549.1,1528z M1498.8,1527.5c0.2-14-6.3-22.4-16.9-22.4c-10.2,0.1-16.6,8.2-16.7,21.2
		c-0.1,14,6.2,22.4,16.9,22.3C1492.3,1548.6,1498.7,1540.6,1498.8,1527.5z M1414.9,1526c-0.2,14.3,5.8,22.5,16.6,22.6
		c10.3,0.1,16.8-7.9,17-20.9c0.2-14-6.1-22.5-16.6-22.7C1421.7,1505,1415.1,1513.1,1414.9,1526z M1364.6,1525.9
		c-0.2,14.1,5.9,22.5,16.5,22.7c10.3,0.2,16.8-7.8,17.1-20.8c0.2-14-6-22.6-16.5-22.7C1371.5,1504.9,1364.8,1513.1,1364.6,1525.9z
		 M1347.9,1527.4c0.1-13.9-6.3-22.4-17-22.3c-10.2,0.1-16.5,8.3-16.6,21.3c-0.1,14,6.3,22.4,17,22.3
		C1341.5,1548.5,1347.8,1540.5,1347.9,1527.4z M1163.4,1525.9c-0.2,14.1,5.9,22.5,16.5,22.7c10.3,0.2,16.8-7.8,17.1-20.8
		c0.2-14-6-22.6-16.5-22.7C1170.3,1504.9,1163.6,1513.1,1163.4,1525.9z M1247.3,1527.4c0.1-13.9-6.3-22.4-16.9-22.3
		c-10.2,0.1-16.5,8.2-16.7,21.2c-0.1,14,6.2,22.4,16.9,22.3C1240.9,1548.5,1247.2,1540.6,1247.3,1527.4z M1297.6,1527.3
		c0.1-13.9-6.4-22.4-17.1-22.2c-10.2,0.2-16.4,8.3-16.5,21.3c-0.1,14,6.4,22.4,17.1,22.2C1291.3,1548.5,1297.5,1540.4,1297.6,1527.3
		z"/>
	<path class="st0" d="M501.1,1043.1c-18.6,6.8-27.8,0.7-27.8-18.8c-0.1-77.2-0.1-154.3,0-231.5c0-18.7,8-24.2,27-19.1
		c5,5.4,6.6,11.7,6.6,19.1c-0.2,77-0.2,154,0,231C507,1030.9,505.7,1037.4,501.1,1043.1z"/>
	<path class="st0" d="M900.5,1247.4c0-27.2,21.1-48.4,48.5-48.6c26.7-0.2,49.2,22,49,48.5c-0.1,26.8-22.2,48.8-48.9,48.8
		C922,1296.1,900.5,1274.6,900.5,1247.4z M948.5,1262.4c9.4-0.3,15.3-5.3,15.7-14.4c0.3-9-5-15.1-14.5-15.4
		c-9.3-0.3-15.1,4.7-15.5,14.2C933.8,1256.3,939.3,1261.2,948.5,1262.4z"/>
	<path class="st0" d="M817.3,1246.9c0.1,27.3-21.1,49-48.1,49.1c-26.8,0.2-49-21.6-49.4-48.3c-0.3-26.5,21.5-48.6,48.6-49
		C795.5,1198.4,817.2,1219.8,817.3,1246.9z M783.8,1247.1c-0.9-9.3-6-14.6-15.4-14.4c-9.5,0.2-14.9,6.2-14.7,15.1
		c0.2,9,6,14.7,15.4,14.5C778.5,1262,783.4,1256.5,783.8,1247.1z"/>
	<path class="st0" d="M589,1198.8c26.7,0,49,22.5,48.6,48.9c-0.4,26.8-22.7,48.6-49.3,48.4c-27.2-0.3-48.3-21.8-48.2-49.1
		C540.2,1219.8,561.5,1198.8,589,1198.8z M573.5,1247.1c0.5,9.5,5.6,14.9,14.9,15.1c9.4,0.2,15.2-5.5,15.2-14.6
		c0.1-9-5.4-14.9-14.9-15C579.4,1232.5,574.3,1237.8,573.5,1247.1z"/>
	<path class="st0" d="M540,1097.3c-0.1-27.3,21-48.6,48.4-48.7c26.9-0.2,49.1,21.7,49.2,48.3c0,26.5-22.4,49.1-48.8,49.1
		C562,1146.1,540.1,1124.2,540,1097.3z M573.5,1096.2c0.3,10,5.7,15.4,14.4,15.9c9,0.6,15.2-5.2,15.6-14c0.4-9.4-4.9-15.9-15-15.9
		C579.3,1082.2,574.5,1087.7,573.5,1096.2z"/>
	<path class="st0" d="M1177.8,796.6c-0.1,27.3-21.4,48.5-48.7,48.5c-26.8,0-48.9-22.1-48.8-48.8c0.1-26.5,22.5-48.7,49.1-48.8
		C1155.9,747.5,1178,769.8,1177.8,796.6z M1144.3,796.3c-0.9-9.4-6.2-14.9-15.1-14.9c-9-0.1-15,5.8-15.1,14.7
		c0,9.4,5.6,15.7,15.7,15.3C1139.2,811,1143.8,805.3,1144.3,796.3z"/>
	<path class="st0" d="M1129.1,898c26.8-0.2,48.8,21.6,48.8,48.6c0,27.1-21.5,48.9-48.4,49.1c-26.6,0.1-49-22-49.2-48.6
		C1080.1,920.5,1102.3,898.2,1129.1,898z M1144.4,946.9c-0.8-9.2-5.6-14.9-14.8-15.1c-10-0.2-15.6,6.2-15.3,15.7
		c0.2,8.8,6.2,14.7,15.3,14.4C1138.6,961.7,1143.6,956,1144.4,946.9z"/>
	<path class="st0" d="M949.5,1048.6c26.8,0.1,49,22.5,48.6,48.9c-0.4,26.6-23.1,48.9-49.4,48.5c-26.9-0.3-48.3-22.3-48.1-49.3
		C900.7,1069.5,922,1048.5,949.5,1048.6z M933.9,1097.6c0.8,8.8,6.1,14.3,14.9,14.6c9,0.3,15.1-5.6,15.3-14.4
		c0.2-9.3-5.3-15.7-15.5-15.5C939.3,1082.5,934.8,1088.1,933.9,1097.6z"/>
	<path class="st0" d="M817.3,1098.3c-0.6,26.8-23.2,48.6-49.8,47.7c-26.7-0.9-48.6-23.9-47.7-50.1c0.9-26.9,23-47.7,50.2-47.3
		C797,1048.9,817.9,1070.9,817.3,1098.3z M768.7,1082c-9.1,0.6-14.7,5.9-15,14.7c-0.3,9.7,6,15.8,15.6,15.5
		c8.7-0.2,14.5-5.8,14.3-15.2C783.5,1087.6,778,1083,768.7,1082z"/>
	<path class="st0" d="M817.3,797.3c-0.4,27.2-22,48.1-49.4,47.8c-26.7-0.3-48.7-22.9-48.1-49.5s23.3-48.5,49.8-48.1
		C796.2,747.9,817.8,770.3,817.3,797.3z M783.8,797.8c-0.2-10-5.3-15.8-14.1-16.3c-9.7-0.6-16,5.5-16,15.1c0,8.7,5.4,14.8,14.8,14.9
		C777.8,811.6,782.7,806.2,783.8,797.8z"/>
	<path class="st0" d="M949.5,845.1c-27.2,0.2-48.8-21-49-48.1c-0.2-27,21.2-49,48.1-49.4c26.2-0.4,49.3,22.2,49.5,48.5
		C998.3,822.7,976.3,844.9,949.5,845.1z M948.4,781.1c-8.2,1.7-14.3,5.8-14.2,15.3c0.1,9.2,5.3,14.7,14.5,15
		c10.1,0.3,15.7-6.1,15.4-15.5C963.9,787,957.8,782.1,948.4,781.1z"/>
	<path class="st0" d="M769,898c26.8,0,48.5,22,48.4,48.9c-0.1,27.1-21.9,48.8-48.8,48.7c-26.6-0.1-48.9-22.4-48.8-49
		C719.9,920,742.1,898,769,898z M783.9,947.9c-0.3-9.6-5-15.4-14.1-16c-10-0.7-15.9,5.6-16,15c-0.2,8.8,5.6,14.9,14.7,15
		C777.5,962.1,782.7,956.6,783.9,947.9z"/>
	<path class="st0" d="M900.5,946.2c0.2-27,22.1-48.4,49.2-48.2c26.5,0.2,48.9,23.1,48.3,49.4c-0.6,26.8-22.9,48.5-49.6,48.2
		C921.6,995.3,900.3,973.3,900.5,946.2z M934,946c0.4,9.5,5.3,15.3,14.3,15.9c9.9,0.6,15.9-5.7,15.9-15.2c0-8.7-5.6-14.9-14.8-14.9
		C940.2,931.7,935.2,937.2,934,946z"/>
	<path class="st0" d="M1309.4,845.1c-27.2,0-48.4-21.5-48.4-48.8c0.1-26.9,22-48.8,48.8-48.8c26.3,0,49.1,22.9,48.8,49.2
		C1358.2,823.5,1336.3,845.1,1309.4,845.1z M1308.7,811.7c9.3-0.2,15.3-5.1,15.9-13.9c0.7-9.7-5.3-16.1-14.8-16.3
		c-8.8-0.2-14.8,5.1-15.1,14.5C1294.4,805.3,1299.7,810.2,1308.7,811.7z"/>
	<path class="st0" d="M588.3,898c26.7-0.2,49.2,21.9,49.3,48.5c0.1,26.6-22.1,49-48.7,49.1c-26.9,0.2-48.8-21.6-48.8-48.5
		C539.9,920,561.3,898.2,588.3,898z M573.5,947.5c1.1,9,6.3,14.4,15.3,14.4c9.2,0,15-6,14.9-14.9c-0.1-9.4-5.8-15.8-15.9-15.2
		C578.7,932.3,574,938.1,573.5,947.5z"/>
	<path class="st0" d="M501.1,746.9c-8.7,4.4-17.4,5.5-23.9-3c-6.5-8.5-6.1-18.8-0.9-27.6c5.8-9.9,15.1-9.2,24.5-4.8
		C509.5,723.2,509.4,735,501.1,746.9z"/>
	<path class="st1" d="M1527.8,1161.9c-0.1,94.1-77.6,171.7-171.4,171.7c-95.4,0-173.3-78-173-173.3c0.3-94.6,77-170.6,173.3-171.7
		C1450,987.5,1527.8,1066.4,1527.8,1161.9z M1494.2,1161c0.1-77-60.8-138-138.1-138.4c-76.4-0.4-139.2,61.8-139.2,137.8
		c0,76.8,62.5,139.4,139.4,139.6C1432.4,1300.2,1494.2,1237.9,1494.2,1161z"/>
	<path class="st1" d="M1549.1,1432.2c-0.1,13.5-6.2,21.4-16.6,21.5c-10.8,0.1-17.1-8.3-16.9-22.6c0.2-13.3,6.7-21.1,17.3-20.7
		C1543.2,1410.8,1549.1,1418.7,1549.1,1432.2z"/>
	<path class="st1" d="M1163.4,1431.4c-0.3-12.2,4.6-19.9,16.5-20.8c10.9-0.8,17.3,8,17.1,22.2c-0.2,13.2-6.8,21.2-17.2,20.9
		C1169.1,1453.5,1163.1,1445,1163.4,1431.4z"/>
	<path class="st1" d="M1247.3,1432.2c-0.1,13.5-6.2,21.4-16.6,21.5c-10.8,0.1-17.1-8.3-16.9-22.6c0.2-13.3,6.7-21.1,17.3-20.7
		C1241.4,1410.8,1247.4,1418.7,1247.3,1432.2z"/>
	<path class="st1" d="M1297.6,1432c0,13.4-6.1,21.4-16.4,21.7c-10.8,0.3-17.3-8.2-17.2-22.3c0.1-13.2,6.6-21.2,17.1-20.9
		C1291.6,1410.7,1297.6,1418.6,1297.6,1432z"/>
	<path class="st1" d="M1347.9,1433.2c-0.3,13-7.2,21.1-17.6,20.5c-10.6-0.6-16.2-9.1-16-23.6c0.1-11.6,5.1-18.9,17-19.6
		C1342.1,1410,1348.2,1418.9,1347.9,1433.2z"/>
	<path class="st1" d="M1364.6,1431.4c-0.3-12.2,4.6-19.9,16.5-20.8c10.9-0.8,17.3,8,17.1,22.2c-0.2,13.2-6.8,21.2-17.2,20.9
		C1370.3,1453.5,1364.3,1445,1364.6,1431.4z"/>
	<path class="st1" d="M1414.9,1430.8c0.3-13,7.3-21.5,17.7-20.2c12.8,1.6,16.3,10.4,15.9,22.1c-0.4,13.2-6.7,21.2-17.1,21.1
		C1420.7,1453.6,1414.6,1445.1,1414.9,1430.8z"/>
	<path class="st1" d="M1498.8,1432.8c-0.2,13.2-6.8,21.2-17.2,20.9c-10.7-0.3-16.5-8.8-16.5-23.1c0-11.5,4.7-19.1,16.5-20.1
		C1492.6,1409.7,1499,1418.5,1498.8,1432.8z"/>
	<path class="st1" d="M1515.5,1621.9c-0.1-13.8,6.7-22.3,17.3-22c10.2,0.3,16.3,8.5,16.3,21.6c0,13.8-6.7,22.3-17.3,22
		C1521.6,1643.2,1515.5,1635.1,1515.5,1621.9z"/>
	<path class="st1" d="M1498.8,1622.7c-0.2,12.9-6.8,21-17,20.9c-10.7-0.2-16.8-8.5-16.6-22.7c0.2-12.9,6.8-21,17-20.9
		C1492.8,1600.1,1499,1608.7,1498.8,1622.7z"/>
	<path class="st1" d="M1448.5,1622.8c-0.2,12.9-6.9,21-17.2,20.7c-10.6-0.2-16.7-8.7-16.4-22.8c0.2-12.9,6.9-21,17.2-20.7
		C1442.6,1600.2,1448.8,1608.8,1448.5,1622.8z"/>
	<path class="st1" d="M1398.2,1622.1c-0.1,13.1-6.3,21.2-16.4,21.5c-10.7,0.3-17.3-8.2-17.2-22.1c0.1-13.1,6.3-21.2,16.4-21.5
		C1391.7,1599.7,1398.3,1608.2,1398.2,1622.1z"/>
	<path class="st1" d="M1347.9,1622.9c-0.2,12.9-7,20.9-17.2,20.7c-10.6-0.3-16.6-8.8-16.4-22.9c0.2-12.8,7-21,17.2-20.7
		C1342.1,1600.3,1348.2,1608.8,1347.9,1622.9z"/>
	<path class="st1" d="M1297.6,1622.5c-0.2,13-6.7,21.1-16.9,21c-10.7-0.1-16.9-8.5-16.7-22.5c0.2-13,6.7-21.1,16.9-21
		C1291.5,1600,1297.8,1608.5,1297.6,1622.5z"/>
	<path class="st1" d="M1213.7,1621.3c0.1-13.1,6.4-21.2,16.5-21.4c10.7-0.2,17.2,8.3,17.1,22.2c-0.1,13.1-6.4,21.2-16.5,21.4
		C1220.1,1643.7,1213.6,1635.3,1213.7,1621.3z"/>
	<path class="st1" d="M1197,1622.4c-0.2,13.2-6.4,21.1-16.8,21.2c-10.7,0.1-17-8.4-16.9-22.4c0.1-13,6.6-21.1,16.7-21.2
		C1190.8,1599.9,1197.2,1608.4,1197,1622.4z"/>
	<path class="st1" d="M1549.1,1528c-0.2,12.9-6.9,20.9-17.2,20.7c-10.6-0.3-16.7-8.7-16.4-22.8c0.2-12.8,7-21,17.2-20.7
		C1543.2,1505.4,1549.4,1513.9,1549.1,1528z"/>
	<path class="st1" d="M1498.8,1527.5c-0.1,13.1-6.5,21.1-16.7,21.2c-10.7,0.1-17-8.3-16.9-22.3c0.1-13,6.5-21.1,16.7-21.2
		C1492.5,1505,1498.9,1513.5,1498.8,1527.5z"/>
	<path class="st1" d="M1414.9,1526c0.2-12.9,6.8-21,17-20.9c10.6,0.1,16.8,8.7,16.6,22.7c-0.2,13-6.7,21-17,20.9
		C1420.7,1548.5,1414.7,1540.3,1414.9,1526z"/>
	<path class="st1" d="M1364.6,1525.9c0.2-12.9,6.9-21,17.1-20.8c10.6,0.2,16.8,8.7,16.5,22.7c-0.2,13-6.8,21-17.1,20.8
		C1370.5,1548.4,1364.4,1540,1364.6,1525.9z"/>
	<path class="st1" d="M1347.9,1527.4c-0.1,13.1-6.4,21.1-16.6,21.2c-10.7,0.1-17.1-8.3-17-22.3c0.1-13,6.5-21.2,16.6-21.3
		C1341.6,1505,1348,1513.5,1347.9,1527.4z"/>
	<path class="st1" d="M1163.4,1525.9c0.2-12.9,6.9-21,17.1-20.8c10.6,0.2,16.8,8.7,16.5,22.7c-0.2,13-6.8,21-17.1,20.8
		C1169.3,1548.4,1163.2,1540,1163.4,1525.9z"/>
	<path class="st1" d="M1247.3,1527.4c-0.1,13.1-6.4,21.1-16.7,21.2c-10.7,0.1-17.1-8.3-16.9-22.3c0.1-13,6.5-21.1,16.7-21.2
		C1241,1505,1247.5,1513.5,1247.3,1527.4z"/>
	<path class="st1" d="M1297.6,1527.3c-0.1,13.1-6.4,21.1-16.6,21.3c-10.7,0.2-17.2-8.2-17.1-22.2c0.1-13,6.4-21.2,16.5-21.3
		C1291.2,1504.9,1297.7,1513.4,1297.6,1527.3z"/>
	<path class="st6" d="M948.5,1262.4c-9.2-1.2-14.7-6-14.3-15.6c0.4-9.5,6.2-14.5,15.5-14.2c9.4,0.3,14.8,6.4,14.5,15.4
		C963.8,1257.1,957.9,1262.1,948.5,1262.4z"/>
	<path class="st6" d="M783.8,1247.1c-0.4,9.5-5.3,14.9-14.7,15.2c-9.4,0.2-15.2-5.5-15.4-14.5c-0.2-8.9,5.2-14.9,14.7-15.1
		C777.9,1232.5,782.9,1237.8,783.8,1247.1z"/>
	<path class="st6" d="M573.5,1247.1c0.8-9.3,5.9-14.6,15.3-14.5c9.5,0.1,14.9,6.1,14.9,15c-0.1,9.1-5.9,14.7-15.2,14.6
		C579.1,1262,574.1,1256.6,573.5,1247.1z"/>
	<path class="st6" d="M573.5,1096.2c1-8.5,5.7-14,15-14c10.2,0.1,15.5,6.5,15,15.9c-0.4,8.8-6.6,14.6-15.6,14
		C579.2,1111.6,573.8,1106.2,573.5,1096.2z"/>
	<path class="st6" d="M1144.3,796.3c-0.6,9-5.1,14.7-14.4,15c-10.1,0.4-15.7-5.9-15.7-15.3c0-8.9,6-14.8,15.1-14.7
		C1138.2,781.5,1143.5,787,1144.3,796.3z"/>
	<path class="st6" d="M1144.4,946.9c-0.7,9.1-5.8,14.7-14.8,15c-9.1,0.2-15.1-5.6-15.3-14.4c-0.3-9.5,5.3-15.9,15.3-15.7
		C1138.7,932,1143.6,937.7,1144.4,946.9z"/>
	<path class="st6" d="M933.9,1097.6c0.8-9.5,5.4-15.2,14.7-15.4c10.2-0.2,15.6,6.2,15.5,15.5c-0.2,8.8-6.2,14.7-15.3,14.4
		C940,1112,934.7,1106.4,933.9,1097.6z"/>
	<path class="st6" d="M768.7,1082c9.3,1,14.8,5.6,14.9,15c0.2,9.5-5.6,15-14.3,15.2c-9.6,0.3-15.8-5.9-15.6-15.5
		C754,1087.9,759.6,1082.6,768.7,1082z"/>
	<path class="st6" d="M783.8,797.8c-1.1,8.4-6,13.8-15.3,13.7c-9.4-0.1-14.8-6.1-14.8-14.9c0-9.6,6.3-15.7,16-15.1
		C778.5,782,783.7,787.8,783.8,797.8z"/>
	<path class="st6" d="M948.4,781.1c9.3,1,15.5,5.9,15.7,14.8c0.2,9.4-5.3,15.8-15.4,15.5c-9.2-0.2-14.4-5.7-14.5-15
		C934.1,786.9,940.2,782.8,948.4,781.1z"/>
	<path class="st6" d="M783.9,947.9c-1.2,8.7-6.3,14.2-15.4,14c-9.1-0.2-14.9-6.2-14.7-15c0.2-9.4,6-15.7,16-15
		C778.8,932.4,783.5,938.3,783.9,947.9z"/>
	<path class="st6" d="M934,946c1.2-8.7,6.2-14.3,15.3-14.2c9.3,0.1,14.9,6.2,14.8,14.9c0,9.5-6,15.7-15.9,15.2
		C939.3,961.3,934.4,955.5,934,946z"/>
	<path class="st6" d="M1308.7,811.7c-8.9-1.5-14.3-6.4-14-15.7c0.3-9.4,6.3-14.7,15.1-14.5c9.6,0.2,15.5,6.7,14.8,16.3
		C1323.9,806.6,1317.9,811.4,1308.7,811.7z"/>
	<path class="st6" d="M573.5,947.5c0.5-9.3,5.2-15.2,14.3-15.7c10-0.5,15.8,5.9,15.9,15.2c0.1,8.8-5.8,14.8-14.9,14.9
		C579.8,961.9,574.6,956.4,573.5,947.5z"/>
</g>
<g>
	<path class="st1" d="M1343.8,1238.4c-0.3-0.6-1-0.5-1.5-0.8c-2.8-1.5-3.8-4-3.8-7c0-7.1,0-14.2,0-21.4c0-16,0-31.9,0-47.9
		c0-1.6-0.4-1.6-1.7-1.1c-2.5,0.9-5.1,1.7-7.6,2.5c-4.1,1.3-7.9-0.6-9.2-4.3c-1.3-3.8,0.7-7.6,4.7-9c4.1-1.4,8.3-2.8,12.5-4.1
		c0.9-0.3,1.3-0.7,1.3-1.7c-0.1-3.6-0.1-7.2,0-10.8c0-1.2-0.3-1.3-1.3-0.9c-2.6,0.9-5.2,1.8-7.9,2.6c-4.1,1.3-7.9-0.5-9.2-4.3
		c-1.3-3.8,0.7-7.6,4.7-9c4.1-1.4,8.3-2.8,12.5-4.2c1-0.3,1.3-0.8,1.3-1.8c-0.1-8,0-16.1,0-24.1c0-3.8,1.6-6.3,4.6-7.4
		c4.7-1.7,9.4,1.6,9.5,6.8c0.1,6.2,0,12.3,0,18.5c0,0.9,0,1.8,0,2.8c4.6-1.5,9-3,13.5-4.5c4.9-1.6,9.7-3.3,14.6-4.9
		c3.2-1.1,6.3-0.1,8.1,2.4c1.8,2.5,1.9,5.7,0.2,8.2c-1,1.5-2.5,2.3-4.1,2.9c-10.3,3.4-20.5,6.9-30.8,10.2c-1.1,0.4-1.4,0.8-1.4,2
		c0.1,3.9,0,7.8,0,11.7c0.7,0.1,1.2-0.2,1.8-0.4c8.8-2.9,17.5-5.8,26.2-8.7c4.4-1.4,8.4,0.8,9.4,5.2c0.8,3.5-1.3,6.9-5,8.2
		c-4.2,1.4-8.5,2.8-12.8,4.3c-6.2,2.1-12.3,4.1-18.5,6.1c-0.9,0.3-1.2,0.7-1.2,1.7c0,22.1,0,44.3,0,66.4c0,1.2,0.3,1.3,1.4,1.1
		c8.9-1.2,17.2-4.2,24.9-8.9c8.7-5.4,15.7-12.5,21-21.2c3.9-6.4,6.6-13.4,8-20.8c0.8-3.9,1.1-7.9,1.2-11.9c0.1-4,2.8-6.9,6.5-7.1
		c4.4-0.3,7.7,2.9,7.7,7.4c-0.3,19-6.5,35.9-19,50.3c-11.4,13.2-25.8,21.6-42.9,25.3c-3.2,0.7-6.3,1.2-9.6,1.3c-0.2,0-0.5,0-0.6,0.3
		C1348.7,1238.4,1346.2,1238.4,1343.8,1238.4z"/>
</g>
</svg>
